<?xml version="1.0" encoding="UTF-8" standalone="no"?>
<!-- Created with Inkscape (http://www.inkscape.org/) -->

<svg
   width="420mm"
   height="297mm"
   viewBox="0 0 1587.4016 1122.5197"
   version="1.1"
   id="svg5"
   inkscape:version="1.2.2 (732a01da63, 2022-12-09)"
   sodipodi:docname="MODELO.svg"
   xml:space="preserve"
   xmlns:inkscape="http://www.inkscape.org/namespaces/inkscape"
   xmlns:sodipodi="http://sodipodi.sourceforge.net/DTD/sodipodi-0.dtd"
   xmlns:xlink="http://www.w3.org/1999/xlink"
   xmlns="http://www.w3.org/2000/svg"
   xmlns:svg="http://www.w3.org/2000/svg"><sodipodi:namedview
     id="namedview7"
     pagecolor="#ffffff"
     bordercolor="#000000"
     borderopacity="0.25"
     inkscape:showpageshadow="2"
     inkscape:pageopacity="0.0"
     inkscape:pagecheckerboard="0"
     inkscape:deskcolor="#d1d1d1"
     inkscape:document-units="px"
     showgrid="true"
     inkscape:zoom="0.43457604"
     inkscape:cx="860.60888"
     inkscape:cy="522.34817"
     inkscape:window-width="1366"
     inkscape:window-height="697"
     inkscape:window-x="-8"
     inkscape:window-y="-8"
     inkscape:window-maximized="1"
     inkscape:current-layer="layer1"><inkscape:grid
       type="xygrid"
       id="grid129"
       units="mm"
       spacingx="396.8504"
       spacingy="561.25985" /></sodipodi:namedview><defs
     id="defs2"><rect
       x="549.9661"
       y="855.86441"
       width="96"
       height="99.254237"
       id="rect26336" /><rect
       x="1208.074"
       y="32.215306"
       width="353.21781"
       height="514.29434"
       id="rect19460" /><rect
       x="811.13537"
       y="34.516399"
       width="362.42219"
       height="510.8427"
       id="rect18728" /><rect
       x="82.839357"
       y="724.84438"
       width="165.67871"
       height="94.344823"
       id="rect11195" /><rect
       x="32.542373"
       y="237.55932"
       width="235.13078"
       height="329.29888"
       id="rect9077" /><rect
       x="28.763666"
       y="115.05466"
       width="363.34147"
       height="520.09157"
       id="rect8836" /></defs><g
     inkscape:label="Layer 1"
     inkscape:groupmode="layer"
     id="layer1"><text
       xml:space="preserve"
       style="font-size:66.6667px;line-height:1;font-family:'Newton Sans';-inkscape-font-specification:'Newton Sans';letter-spacing:-3.85px;fill:#070707;stroke:#f5f5f5;stroke-width:2;paint-order:markers fill stroke"
       x="57.919231"
       y="140.09865"
       id="text5680"><tspan
         sodipodi:role="line"
         id="tspan5678"
         x="57.919231"
         y="140.09865"
         style="font-style:normal;font-variant:normal;font-weight:bold;font-stretch:normal;font-size:66.6667px;font-family:'Fira Sans';-inkscape-font-specification:'Fira Sans Bold'"
         dx="0 0 0 0 0 0 0 0 -0.02">Tecniquim</tspan></text><text
       xml:space="preserve"
       id="text8834"
       style="font-style:normal;font-variant:normal;font-weight:bold;font-stretch:normal;font-size:18.6667px;line-height:1;font-family:'Fira Sans';-inkscape-font-specification:'Fira Sans Bold';white-space:pre;shape-inside:url(#rect8836);display:inline;fill:#070707;stroke:#f5f5f5;stroke-width:2;paint-order:markers fill stroke"
       transform="translate(382.53982,-80.994996)"
       x="361.5553"
       y="0"><tspan
         x="101.14768"
         y="129.59916"
         id="tspan31668"><tspan
           style="font-weight:normal;-inkscape-font-specification:'Fira Sans';text-align:end;text-anchor:end;stroke:none"
           id="tspan31666">Tecniquim é uma zine sobre arte e </tspan></tspan><tspan
         x="137.19304"
         y="148.26586"
         id="tspan31672"><tspan
           style="font-weight:normal;-inkscape-font-specification:'Fira Sans';text-align:end;text-anchor:end;stroke:none"
           id="tspan31670">programação que é produzida </tspan></tspan><tspan
         x="74.752977"
         y="166.93256"
         id="tspan31676"><tspan
           style="font-weight:normal;-inkscape-font-specification:'Fira Sans';text-align:end;text-anchor:end;stroke:none"
           id="tspan31674">coletivamente em encontros híbridos </tspan></tspan><tspan
         x="59.595647"
         y="185.59927"
         id="tspan31680"><tspan
           style="font-weight:normal;-inkscape-font-specification:'Fira Sans';text-align:end;text-anchor:end;stroke:none"
           id="tspan31678">(presenciais e online) e que acontecem </tspan></tspan><tspan
         x="75.200981"
         y="204.26597"
         id="tspan31684"><tspan
           style="font-weight:normal;-inkscape-font-specification:'Fira Sans';text-align:end;text-anchor:end;stroke:none"
           id="tspan31682">mensalmente. A parte presencial tem </tspan></tspan><tspan
         x="32.528917"
         y="222.93267"
         id="tspan31688"><tspan
           style="font-weight:normal;-inkscape-font-specification:'Fira Sans';text-align:end;text-anchor:end;stroke:none"
           id="tspan31686">acontecido no Garoa Hacker Clube em São </tspan></tspan><tspan
         x="55.470365"
         y="241.59937"
         id="tspan31692"><tspan
           style="font-weight:normal;-inkscape-font-specification:'Fira Sans';text-align:end;text-anchor:end;stroke:none"
           id="tspan31690">Paulo, em geral na última terça-feira do </tspan></tspan><tspan
         x="40.032868"
         y="260.26607"
         id="tspan31696"><tspan
           style="font-weight:normal;-inkscape-font-specification:'Fira Sans';text-align:end;text-anchor:end;stroke:none"
           id="tspan31694">mês, ocupando o slot em que acontecia a </tspan></tspan><tspan
         x="30.438185"
         y="278.93278"
         id="tspan31700"><tspan
           style="font-weight:normal;-inkscape-font-specification:'Fira Sans';text-align:end;text-anchor:end;stroke:none"
           id="tspan31698">Noite de Processing. A transmissão ao vivo </tspan></tspan><tspan
         x="35.944934"
         y="297.59946"
         id="tspan31704"><tspan
           style="font-weight:normal;-inkscape-font-specification:'Fira Sans';text-align:end;text-anchor:end;stroke:none"
           id="tspan31702">tem sido pelo canal do Garoa no YouTube. </tspan></tspan><tspan
         x="59.166335"
         y="316.26615"
         id="tspan31708"><tspan
           style="font-weight:normal;-inkscape-font-specification:'Fira Sans';text-align:end;text-anchor:end;stroke:none"
           id="tspan31706">Você pode saber mais sobre a zine e os </tspan></tspan><tspan
         x="34.246129"
         y="334.93284"
         id="tspan31712"><tspan
           style="font-weight:normal;-inkscape-font-specification:'Fira Sans';text-align:end;text-anchor:end;stroke:none"
           id="tspan31710">encontros na página https://garoa.net.br/</tspan></tspan><tspan
         x="262.18522"
         y="353.59952"
         id="tspan31716"><tspan
           style="font-weight:normal;-inkscape-font-specification:'Fira Sans';text-align:end;text-anchor:end;stroke:none"
           id="tspan31714">wiki/Tecniquim
</tspan></tspan><tspan
         x="43.299562"
         y="372.26621"
         id="tspan31720"><tspan
           style="font-weight:normal;-inkscape-font-specification:'Fira Sans';text-align:end;text-anchor:end;stroke:none"
           id="tspan31718">Neste número, uma exploração de “Tours </tspan></tspan><tspan
         x="38.352826"
         y="390.9329"
         id="tspan31724"><tspan
           style="font-weight:normal;-inkscape-font-specification:'Fira Sans';text-align:end;text-anchor:end;stroke:none"
           id="tspan31722">Mágicos do Rei”, com resultados musicais </tspan></tspan><tspan
         x="73.539596"
         y="409.59959"
         id="tspan31728"><tspan
           style="font-weight:normal;-inkscape-font-specification:'Fira Sans';text-align:end;text-anchor:end;stroke:none"
           id="tspan31726">e visuais que obtivemos ao longo dos </tspan></tspan><tspan
         x="34.694204"
         y="428.26627"
         id="tspan31732"><tspan
           style="font-weight:normal;-inkscape-font-specification:'Fira Sans';text-align:end;text-anchor:end;stroke:none"
           id="tspan31730">nossos encontros de trabalho, incluindo o </tspan></tspan><tspan
         x="80.800977"
         y="446.93296"
         id="tspan31736"><tspan
           style="font-weight:normal;-inkscape-font-specification:'Fira Sans';text-align:end;text-anchor:end;stroke:none"
           id="tspan31734">pôster sorteado para cada exemplar. </tspan></tspan><tspan
         x="37.120895"
         y="465.59965"
         id="tspan31740"><tspan
           style="font-weight:normal;-inkscape-font-specification:'Fira Sans';text-align:end;text-anchor:end;stroke:none"
           id="tspan31738">Temos dicas de como começar com SDL, a </tspan></tspan><tspan
         x="37.830268"
         y="484.26633"
         id="tspan31744"><tspan
           style="font-weight:normal;-inkscape-font-specification:'Fira Sans';text-align:end;text-anchor:end;stroke:none"
           id="tspan31742">biblioteca em C para gráficos e interações </tspan></tspan><tspan
         x="40.070109"
         y="502.93302"
         id="tspan31748"><tspan
           style="font-weight:normal;-inkscape-font-specification:'Fira Sans';text-align:end;text-anchor:end;stroke:none"
           id="tspan31746">que usamos na obra da edição 0x00, uma </tspan></tspan><tspan
         x="33.89155"
         y="521.59971"
         id="tspan31752"><tspan
           style="font-weight:normal;-inkscape-font-specification:'Fira Sans';text-align:end;text-anchor:end;stroke:none"
           id="tspan31750">extensão do nosso horóscopo gerado com </tspan></tspan><tspan
         x="62.544897"
         y="540.26639"
         id="tspan31756"><tspan
           style="font-weight:normal;-inkscape-font-specification:'Fira Sans';text-align:end;text-anchor:end;stroke:none"
           id="tspan31754">uma gramática formal, uma coleção de </tspan></tspan><tspan
         x="74.920921"
         y="558.93308"
         id="tspan31760"><tspan
           style="font-weight:normal;-inkscape-font-specification:'Fira Sans';text-align:end;text-anchor:end;stroke:none"
           id="tspan31758">eventos astronômicos e aforismos ou </tspan></tspan><tspan
         x="215.27582"
         y="577.59977"
         id="tspan31764"><tspan
           style="font-weight:normal;-inkscape-font-specification:'Fira Sans';text-align:end;text-anchor:end;stroke:none"
           id="tspan31762">conselhos genéricos.
</tspan></tspan><tspan
         x="392.10547"
         y="596.26646"
         id="tspan31768"><tspan
           style="font-weight:normal;-inkscape-font-specification:'Fira Sans';text-align:end;text-anchor:end;stroke:none"
           id="tspan31766">
</tspan></tspan><tspan
         x="232.4306"
         y="614.93314"
         id="tspan31772"><tspan
           style="font-weight:normal;-inkscape-font-specification:'Fira Sans';text-align:end;text-anchor:end;stroke:none"
           id="tspan31770">-Alexandre Villares</tspan></tspan></text><path
       style="fill:none;fill-opacity:1;stroke:#000000;stroke-width:4.22409;stroke-linecap:square;stroke-linejoin:miter;stroke-dasharray:none;stroke-opacity:1;paint-order:markers fill stroke"
       d="m 115.13235,283.20794 -24.137672,24.13767 h -12.06883 l -12.06884,-12.06883 h -12.06883 v 12.06883 h 12.06883 l 36.206512,-36.2065 H 90.994678 l 36.206502,36.2065 h 12.06883 v -12.06883 h -12.06883 l -12.06883,12.06883 H 103.06352 L 78.925848,283.20794 h -12.06884 l -12.06883,-12.06883 v 12.06883 l 12.06883,-12.06883 h 12.06884 v -12.06884 h -12.06884 l -12.06883,-12.06883 v 12.06883 l 12.06883,-12.06883 h 12.06884 l 24.137672,-24.13767 h 12.06883 l 12.06883,12.06883 h 12.06883 v -12.06883 h -12.06883 l -36.206502,36.2065 h 12.068842 l -36.206512,-36.2065 h -12.06883 v 12.06883 h 12.06883 l 12.06884,-12.06883 h 12.06883 l 24.137672,24.13767 h 12.06883 l 12.06883,12.06883 v -12.06883 l -12.06883,12.06883 h -12.06883 v 12.06884 h 12.06883 l 12.06883,12.06883 v -12.06883 l -12.06883,12.06883 z"
       id="path1998-0-4-0-8"
       sodipodi:nodetypes="ccccccccccccccccccccccccccccccccccccccccccccccccccccc"
       inkscape:label="G9" /><path
       style="fill:none;fill-opacity:1;stroke:#000000;stroke-width:4.2241;stroke-linecap:square;stroke-linejoin:miter;stroke-dasharray:none;stroke-opacity:1;paint-order:markers fill stroke"
       d="m 54.788148,317.10832 v 12.06884 l 12.06884,12.06884 12.06884,-12.06884 12.06885,12.06884 h 12.068842 l 12.06885,-12.06884 12.06883,12.06884 12.06884,-12.06884 V 317.10832 H 103.06352 L 78.925828,341.246 66.856988,329.17716 54.788148,341.246 v 12.06885 l 12.06884,12.06884 12.06884,-12.06884 12.06885,12.06884 v -12.06884 l -12.06885,12.06884 -12.06884,-12.06884 -12.06884,12.06884 v 12.06885 l 12.06884,12.06884 12.06884,-12.06884 24.137692,24.13768 h 36.20652 V 389.52138 L 127.2012,377.45254 115.13237,389.52138 103.06352,377.45254 H 90.994678 l -12.06885,12.06884 -12.06884,-12.06884 -12.06884,12.06884 v 12.06884 h 36.20653 l 24.137692,-24.13768 12.06883,12.06884 12.06884,-12.06884 v -12.06885 l -12.06884,-12.06884 -12.06883,12.06884 -12.06885,-12.06884 v 12.06884 l 12.06885,-12.06884 12.06883,12.06884 12.06884,-12.06884 V 341.246 L 127.2012,329.17716 115.13237,341.246 90.994678,317.10832 Z"
       id="path1768-1"
       sodipodi:nodetypes="ccccccccccccccccccccccccccccccccccccccccccccccccccccc"
       inkscape:label="E1" /><path
       style="fill:none;fill-opacity:1;stroke:#000000;stroke-width:4.2241;stroke-linecap:square;stroke-linejoin:miter;stroke-dasharray:none;stroke-opacity:1;paint-order:markers fill stroke"
       d="m 103.06352,417.18995 -12.068842,12.06884 -12.06885,-12.06884 -24.13768,24.13769 v 12.06884 l 24.13768,24.13769 12.06885,-12.06885 36.206522,36.20653 h 12.06884 v -12.06884 l -24.13767,-24.13769 v -12.06884 l 24.13767,-24.13769 V 417.18995 H 127.2012 l -36.206522,36.20653 -12.06885,-12.06884 -24.13768,24.13768 v 12.06885 l 24.13768,24.13768 12.06885,-12.06884 12.068842,12.06884 H 90.994678 l 12.068842,-12.06884 12.06885,12.06884 24.13767,-24.13768 v -12.06885 l -24.13767,-24.13768 -12.06885,12.06884 -36.206532,-36.20653 h -12.06884 v 12.06884 l 24.13768,24.13769 v 12.06884 l -24.13768,24.13769 v 12.06884 h 12.06884 l 36.206532,-36.20653 12.06885,12.06885 24.13767,-24.13769 v -12.06884 l -24.13767,-24.13769 -12.06885,12.06884 -12.068842,-12.06884 z"
       id="path1663-4"
       sodipodi:nodetypes="ccccccccccccccccccccccccccccccccccccccccccccc"
       inkscape:label="C1" /><path
       style="fill:none;fill-opacity:1;stroke:#000000;stroke-width:4.22409;stroke-linecap:square;stroke-linejoin:miter;stroke-dasharray:none;stroke-opacity:1;paint-order:markers fill stroke"
       d="M 214.51467,283.20794 190.377,307.34561 H 178.30817 L 166.23933,295.27678 H 154.1705 v 12.06883 h 12.06883 l 36.20651,-36.2065 H 190.377 l 36.20651,36.2065 h 12.06883 v -12.06883 h -12.06883 l -12.06884,12.06883 H 202.44584 L 178.30817,283.20794 H 166.23933 L 154.1705,271.13911 v 12.06883 l 12.06883,-12.06883 h 12.06884 V 259.07027 H 166.23933 L 154.1705,247.00144 v 12.06883 l 12.06883,-12.06883 h 12.06884 l 24.13767,-24.13767 h 12.06883 l 12.06884,12.06883 h 12.06883 v -12.06883 h -12.06883 l -36.20651,36.2065 h 12.06884 l -36.20651,-36.2065 H 154.1705 v 12.06883 h 12.06883 l 12.06884,-12.06883 H 190.377 l 24.13767,24.13767 h 12.06884 l 12.06883,12.06883 v -12.06883 l -12.06883,12.06883 h -12.06884 v 12.06884 h 12.06884 l 12.06883,12.06883 v -12.06883 l -12.06883,12.06883 z"
       id="path1998-0-4-0-8-8"
       sodipodi:nodetypes="ccccccccccccccccccccccccccccccccccccccccccccccccccccc"
       inkscape:label="G9" /><path
       style="fill:none;fill-opacity:1;stroke:#000000;stroke-width:4.2241;stroke-linecap:square;stroke-linejoin:miter;stroke-dasharray:none;stroke-opacity:1;paint-order:markers fill stroke"
       d="m 154.17047,317.10832 v 12.06884 L 166.23931,341.246 178.30815,329.17716 190.377,341.246 h 12.06884 l 12.06885,-12.06884 12.06884,12.06884 12.06884,-12.06884 V 317.10832 H 202.44584 L 178.30815,341.246 166.23931,329.17716 154.17047,341.246 v 12.06885 l 12.06884,12.06884 12.06884,-12.06884 12.06885,12.06884 v -12.06884 l -12.06885,12.06884 -12.06884,-12.06884 -12.06884,12.06884 v 12.06885 l 12.06884,12.06884 12.06884,-12.06884 24.13769,24.13768 h 36.20653 v -12.06884 l -12.06884,-12.06884 -12.06884,12.06884 -12.06885,-12.06884 H 190.377 l -12.06885,12.06884 -12.06884,-12.06884 -12.06884,12.06884 v 12.06884 H 190.377 l 24.13769,-24.13768 12.06884,12.06884 12.06884,-12.06884 v -12.06885 l -12.06884,-12.06884 -12.06884,12.06884 -12.06885,-12.06884 v 12.06884 l 12.06885,-12.06884 12.06884,12.06884 12.06884,-12.06884 V 341.246 L 226.58353,329.17716 214.51469,341.246 190.377,317.10832 Z"
       id="path1768-1-0"
       sodipodi:nodetypes="ccccccccccccccccccccccccccccccccccccccccccccccccccccc"
       inkscape:label="E1" /><path
       style="fill:none;fill-opacity:1;stroke:#000000;stroke-width:4.2241;stroke-linecap:square;stroke-linejoin:miter;stroke-dasharray:none;stroke-opacity:1;paint-order:markers fill stroke"
       d="m 202.44584,417.18995 -12.06884,12.06884 -12.06885,-12.06884 -24.13768,24.13769 v 12.06884 l 24.13768,24.13769 12.06885,-12.06885 36.20653,36.20653 h 12.06884 v -12.06884 l -24.13768,-24.13769 v -12.06884 l 24.13768,-24.13769 v -12.06884 h -12.06884 l -36.20653,36.20653 -12.06885,-12.06884 -24.13768,24.13768 v 12.06885 l 24.13768,24.13768 12.06885,-12.06884 12.06884,12.06884 H 190.377 l 12.06884,-12.06884 12.06885,12.06884 24.13768,-24.13768 v -12.06885 l -24.13768,-24.13768 -12.06885,12.06884 -36.20653,-36.20653 h -12.06884 v 12.06884 l 24.13768,24.13769 v 12.06884 l -24.13768,24.13769 v 12.06884 h 12.06884 l 36.20653,-36.20653 12.06885,12.06885 24.13768,-24.13769 V 441.32764 L 214.51469,417.18995 202.44584,429.25879 190.377,417.18995 Z"
       id="path1663-4-3"
       sodipodi:nodetypes="ccccccccccccccccccccccccccccccccccccccccccccc"
       inkscape:label="C1" /><path
       style="fill:none;fill-opacity:1;stroke:#000000;stroke-width:4.22409;stroke-linecap:square;stroke-linejoin:miter;stroke-dasharray:none;stroke-opacity:1;paint-order:markers fill stroke"
       d="M 312.49667,283.20794 288.359,307.34561 H 276.29017 L 264.22133,295.27678 H 252.1525 v 12.06883 h 12.06883 l 36.20651,-36.2065 H 288.359 l 36.20651,36.2065 h 12.06883 v -12.06883 h -12.06883 l -12.06884,12.06883 H 300.42784 L 276.29017,283.20794 H 264.22133 L 252.1525,271.13911 v 12.06883 l 12.06883,-12.06883 h 12.06884 V 259.07027 H 264.22133 L 252.1525,247.00144 v 12.06883 l 12.06883,-12.06883 h 12.06884 l 24.13767,-24.13767 h 12.06883 l 12.06884,12.06883 h 12.06883 v -12.06883 h -12.06883 l -36.20651,36.2065 h 12.06884 l -36.20651,-36.2065 H 252.1525 v 12.06883 h 12.06883 l 12.06884,-12.06883 H 288.359 l 24.13767,24.13767 h 12.06884 l 12.06883,12.06883 v -12.06883 l -12.06883,12.06883 h -12.06884 v 12.06884 h 12.06884 l 12.06883,12.06883 v -12.06883 l -12.06883,12.06883 z"
       id="path1998-0-4-0-8-9"
       sodipodi:nodetypes="ccccccccccccccccccccccccccccccccccccccccccccccccccccc"
       inkscape:label="G9" /><path
       style="fill:none;fill-opacity:1;stroke:#000000;stroke-width:4.2241;stroke-linecap:square;stroke-linejoin:miter;stroke-dasharray:none;stroke-opacity:1;paint-order:markers fill stroke"
       d="m 252.15247,317.10832 v 12.06884 L 264.22131,341.246 276.29015,329.17716 288.359,341.246 h 12.06884 l 12.06885,-12.06884 12.06884,12.06884 12.06884,-12.06884 V 317.10832 H 300.42784 L 276.29015,341.246 264.22131,329.17716 252.15247,341.246 v 12.06885 l 12.06884,12.06884 12.06884,-12.06884 12.06885,12.06884 v -12.06884 l -12.06885,12.06884 -12.06884,-12.06884 -12.06884,12.06884 v 12.06885 l 12.06884,12.06884 12.06884,-12.06884 24.13769,24.13768 h 36.20653 v -12.06884 l -12.06884,-12.06884 -12.06884,12.06884 -12.06885,-12.06884 H 288.359 l -12.06885,12.06884 -12.06884,-12.06884 -12.06884,12.06884 v 12.06884 H 288.359 l 24.13769,-24.13768 12.06884,12.06884 12.06884,-12.06884 v -12.06885 l -12.06884,-12.06884 -12.06884,12.06884 -12.06885,-12.06884 v 12.06884 l 12.06885,-12.06884 12.06884,12.06884 12.06884,-12.06884 V 341.246 L 324.56553,329.17716 312.49669,341.246 288.359,317.10832 Z"
       id="path1768-1-7"
       sodipodi:nodetypes="ccccccccccccccccccccccccccccccccccccccccccccccccccccc"
       inkscape:label="E1" /><path
       style="fill:none;fill-opacity:1;stroke:#000000;stroke-width:4.2241;stroke-linecap:square;stroke-linejoin:miter;stroke-dasharray:none;stroke-opacity:1;paint-order:markers fill stroke"
       d="m 300.42784,417.18995 -12.06884,12.06884 -12.06885,-12.06884 -24.13768,24.13769 v 12.06884 l 24.13768,24.13769 12.06885,-12.06885 36.20653,36.20653 h 12.06884 v -12.06884 l -24.13768,-24.13769 v -12.06884 l 24.13768,-24.13769 v -12.06884 h -12.06884 l -36.20653,36.20653 -12.06885,-12.06884 -24.13768,24.13768 v 12.06885 l 24.13768,24.13768 12.06885,-12.06884 12.06884,12.06884 H 288.359 l 12.06884,-12.06884 12.06885,12.06884 24.13768,-24.13768 v -12.06885 l -24.13768,-24.13768 -12.06885,12.06884 -36.20653,-36.20653 h -12.06884 v 12.06884 l 24.13768,24.13769 v 12.06884 l -24.13768,24.13769 v 12.06884 h 12.06884 l 36.20653,-36.20653 12.06885,12.06885 24.13768,-24.13769 V 441.32764 L 312.49669,417.18995 300.42784,429.25879 288.359,417.18995 Z"
       id="path1663-4-9"
       sodipodi:nodetypes="ccccccccccccccccccccccccccccccccccccccccccccc"
       inkscape:label="C1" /><text
       xml:space="preserve"
       id="text18726"
       style="font-style:normal;font-variant:normal;font-weight:normal;font-stretch:normal;font-size:17.3333px;line-height:1;font-family:'Fira Sans';-inkscape-font-specification:'Fira Sans';text-align:start;white-space:pre;shape-inside:url(#rect18728);display:inline;fill:#070707;stroke:none;stroke-width:2;paint-order:markers fill stroke"
       transform="translate(-1.6271186,71.59322)"
       x="-360.28995"
       y="0"><tspan
         x="811.13477"
         y="48.021154"
         id="tspan31774">Tivemos uma dificuldade enorme na </tspan><tspan
         x="811.13477"
         y="65.354452"
         id="tspan31776">elaboração desta edição: O excesso de ideias. </tspan><tspan
         x="811.13477"
         y="82.68775"
         id="tspan31778">Nos primeiros encontros de trabalho sugiram </tspan><tspan
         x="811.13477"
         y="100.02105"
         id="tspan31780">inúmeras, e tivemos que cuidadosamente </tspan><tspan
         x="811.13477"
         y="117.35435"
         id="tspan31782">selecionar entre elas e arquivá-las para </tspan><tspan
         x="811.13477"
         y="134.68764"
         id="tspan31784">futuras edições. No final, a ideia que ganhou </tspan><tspan
         x="811.13477"
         y="152.02094"
         id="tspan31786">o prestigioso papel de estrela desta edição </tspan><tspan
         x="811.13477"
         y="169.35424"
         id="tspan31788">número 0x01 foi uma que chegou no final do </tspan><tspan
         x="811.13477"
         y="186.68754"
         id="tspan31790">processo: O Numberphile, um querido canal </tspan><tspan
         x="811.13477"
         y="204.02083"
         id="tspan31792">de nerds do mundo inteiro, publicou um </tspan><tspan
         x="811.13477"
         y="221.35413"
         id="tspan31794">vídeo sobre os tours mágicos do rei… Vamos </tspan><tspan
         x="811.13477"
         y="238.68743"
         id="tspan31796">pegar por partes: Estamos no tabuleiro de </tspan><tspan
         x="811.13477"
         y="256.02073"
         id="tspan31798">xadrez. O rei quer fazer um ‘tour’ do </tspan><tspan
         x="811.13477"
         y="273.35404"
         id="tspan31800">tabuleiro, ou seja, quer visitar cada casa uma </tspan><tspan
         x="811.13477"
         y="290.68735"
         id="tspan31802">vez, sem repetir nenhuma. Até ai tudo bem, </tspan><tspan
         x="811.13477"
         y="308.02067"
         id="tspan31804">se você conhece as regras de movimento do </tspan><tspan
         x="811.13477"
         y="325.35398"
         id="tspan31806">rei no xadrez, provavelmente consegue </tspan><tspan
         x="811.13477"
         y="342.68729"
         id="tspan31808">pensar em vários caminhos possíveis. O </tspan><tspan
         x="811.13477"
         y="360.0206"
         id="tspan31810">desafio é que este caminho forme um </tspan><tspan
         x="811.13477"
         y="377.35392"
         id="tspan31812">quadrado mágico, que vem a ser uma tabela </tspan><tspan
         x="811.13477"
         y="394.68723"
         id="tspan31814">de números onde a somas dos conteúdos de </tspan><tspan
         x="811.13477"
         y="412.02054"
         id="tspan31816">cada fileira, coluna e de ambas as diagonais é </tspan><tspan
         x="811.13477"
         y="429.35386"
         id="tspan31818">sempre a mesma.</tspan></text><text
       xml:space="preserve"
       id="text19458"
       style="font-style:normal;font-variant:normal;font-weight:normal;font-stretch:normal;font-size:17.3333px;line-height:1;font-family:'Fira Sans';-inkscape-font-specification:'Fira Sans';text-align:start;white-space:pre;shape-inside:url(#rect19460);display:inline;fill:#070707;stroke:none;stroke-width:2;paint-order:markers fill stroke"
       transform="translate(-1183.1139,574.5316)"
       x="-352.94058"
       y="0"><tspan
         x="1208.0742"
         y="45.720373"
         id="tspan31820">Então agora, à medida que movemos o </tspan><tspan
         x="1208.0742"
         y="63.053671"
         id="tspan31822">nosso rei, anotamos naquela casa o número </tspan><tspan
         x="1208.0742"
         y="80.386969"
         id="tspan31824">do ‘passo’, de 1 a 64, e no final o tabuleiro </tspan><tspan
         x="1208.0742"
         y="97.720266"
         id="tspan31826">tem que estar preenchido com um quadrado </tspan><tspan
         x="1208.0742"
         y="115.05356"
         id="tspan31828">mágico. Bem mais difícil. Por nossa sorte </tspan><tspan
         x="1208.0742"
         y="132.38686"
         id="tspan31830">algum matemático bem esforçado já </tspan><tspan
         x="1208.0742"
         y="149.72016"
         id="tspan31832">resolveu este problema para nós: Existem 47 </tspan><tspan
         x="1208.0742"
         y="167.05346"
         id="tspan31834">possíveis Tours Mágicos do Rei, (doravante, </tspan><tspan
         x="1208.0742"
         y="184.38675"
         id="tspan31836">TMRs), e, além de terem essas qualidades </tspan><tspan
         x="1208.0742"
         y="201.72005"
         id="tspan31838">matemáticas tão intrigantes, eles também </tspan><tspan
         x="1208.0742"
         y="219.05335"
         id="tspan31840">formam desenhos belíssimos, que foi, no fim </tspan><tspan
         x="1208.0742"
         y="236.38665"
         id="tspan31842">das contas, o que conquistou sua vaga nesta </tspan><tspan
         x="1208.0742"
         y="253.71995"
         id="tspan31844">zine.
</tspan><tspan
         x="1208.0742"
         y="271.05326"
         id="tspan31846">E não satisfeitos com isso pensamos ainda </tspan><tspan
         x="1208.0742"
         y="288.38657"
         id="tspan31848">numa terceira possível beleza: A musical. E </tspan><tspan
         x="1208.0742"
         y="305.71988"
         id="tspan31850">se, de alguma maneira, pudéssemos </tspan><tspan
         x="1208.0742"
         y="323.0532"
         id="tspan31852">&lt;i&gt;ouvir&lt;/i&gt; estas “terríveis simetrias”? Essa </tspan><tspan
         x="1208.0742"
         y="340.38651"
         id="tspan31854">exploração teve fim numa pequena </tspan><tspan
         x="1208.0742"
         y="357.71982"
         id="tspan31856">ferramenta, feita com Processing, onde se </tspan><tspan
         x="1208.0742"
         y="375.05314"
         id="tspan31858">pode pintar notas no tabuleiro de xadrez, e </tspan><tspan
         x="1208.0742"
         y="392.38645"
         id="tspan31860">selecionar um TMR para ‘tocar’ este teclado </tspan><tspan
         x="1208.0742"
         y="409.71976"
         id="tspan31862">bidimensional. Nossa expectativa era </tspan><tspan
         x="1208.0742"
         y="427.05308"
         id="tspan31864">basicamente de criar um barulho curioso, </tspan><tspan
         x="1208.0742"
         y="444.38639"
         id="tspan31866">mas os TMRs surpreenderam mais uma vez, </tspan><tspan
         x="1208.0742"
         y="461.7197"
         id="tspan31868">e entregaram composições até que bem </tspan><tspan
         x="1208.0742"
         y="479.05301"
         id="tspan31870">melódicas!</tspan></text><path
       style="fill:none;fill-opacity:1;stroke:#000000;stroke-width:4.99341;stroke-linecap:square;stroke-linejoin:miter;stroke-dasharray:none;stroke-opacity:1;paint-order:markers fill stroke"
       d="m 1317.0133,364.6178 h -42.8007 v 14.26689 l 14.2669,14.26689 14.2669,-14.26689 h 14.2669 l 14.2669,14.26689 v 14.26689 h 28.5338 l -14.2669,-14.26689 14.2669,-14.26689 14.2669,14.26689 v 42.80066 l -14.2669,14.26689 -14.2669,-14.26689 14.2669,-14.26689 h -28.5338 v 14.26689 l -14.2669,14.26689 h -14.2669 l -14.2669,-14.26689 -14.2669,14.26689 v 14.26689 h 99.8683 v -14.26689 l -14.2669,-14.26689 -14.2669,14.26689 h -14.2669 l -14.2669,-14.26689 v -14.26689 h -28.5338 l 14.2669,14.26689 -14.2669,14.26689 -14.2669,-14.26689 v -42.80066 l 14.2669,-14.26689 14.2669,14.26689 -14.2669,14.26689 h 28.5338 v -14.26689 l 14.2669,-14.26689 h 14.2669 l 14.2669,14.26689 14.2669,-14.26689 V 364.6178 h -42.8007 z"
       id="path1644"
       sodipodi:nodetypes="ccccccccccccccccccccccccccccccccccccccccccccccc"
       inkscape:label="B0" /><path
       style="fill:none;fill-opacity:1;stroke:#000000;stroke-width:4.99341;stroke-linecap:square;stroke-linejoin:miter;stroke-dasharray:none;stroke-opacity:1;paint-order:markers fill stroke"
       d="m 1431.1484,364.6178 h -42.8007 v 14.26689 l 14.2669,14.26689 14.2669,-14.26689 h 14.2669 l 14.2669,14.26689 v 14.26689 l 14.2669,14.26688 14.2669,-14.26688 -14.2669,-14.26689 14.2669,-14.26689 14.2669,14.26689 v 42.80066 l -14.2669,14.26689 -14.2669,-14.26689 14.2669,-14.26689 -14.2669,-14.26688 -14.2669,14.26688 v 14.26689 l -14.2669,14.26689 h -14.2669 l -14.2669,-14.26689 -14.2669,14.26689 v 14.26689 h 99.8683 v -14.26689 l -14.2669,-14.26689 -14.2669,14.26689 h -14.2669 l -14.2669,-14.26689 v -14.26689 l -14.2669,-14.26688 -14.2669,14.26688 14.2669,14.26689 -14.2669,14.26689 -14.2669,-14.26689 v -42.80066 l 14.2669,-14.26689 14.2669,14.26689 -14.2669,14.26689 14.2669,14.26688 14.2669,-14.26688 v -14.26689 l 14.2669,-14.26689 h 14.2669 l 14.2669,14.26689 14.2669,-14.26689 V 364.6178 h -42.8007 z"
       id="path1646"
       sodipodi:nodetypes="ccccccccccccccccccccccccccccccccccccccccccccccccccc"
       inkscape:label="B1" /><text
       xml:space="preserve"
       style="font-style:normal;font-variant:normal;font-weight:normal;font-stretch:normal;font-size:29.3333px;line-height:1;font-family:'Fira Sans';-inkscape-font-specification:'Fira Sans';text-align:end;text-anchor:end;fill:#070707;stroke:none;stroke-width:2;paint-order:markers fill stroke"
       x="231.83514"
       y="186.96382"
       id="text23123"><tspan
         sodipodi:role="line"
         id="tspan23121"
         x="231.83514"
         y="186.96382"
         style="font-style:normal;font-variant:normal;font-weight:bold;font-stretch:normal;font-size:29.3333px;font-family:'Fira Sans';-inkscape-font-specification:'Fira Sans Bold'">0x01</tspan></text><image
       width="353.51898"
       height="187.62903"
       preserveAspectRatio="none"
       style="image-rendering:optimizeQuality"
       xlink:href="instrumento%20-%20print.png"
       id="image25909"
       x="411.28195"
       y="585.67767" /><text
       xml:space="preserve"
       style="font-style:normal;font-variant:normal;font-weight:bold;font-stretch:normal;font-size:29.3333px;line-height:1;font-family:'Fira Sans';-inkscape-font-specification:'Fira Sans Bold';text-align:center;text-anchor:middle;fill:#070707;stroke:none;stroke-width:2;paint-order:markers fill stroke"
       x="568.86737"
       y="813.55933"
       id="text26278"><tspan
         sodipodi:role="line"
         id="tspan26276"
         x="568.86737"
         y="813.55933">&lt;link das musicas&gt;</tspan></text><rect
       style="fill:#070707;stroke:none;stroke-width:2;paint-order:markers fill stroke"
       id="rect26332"
       width="91.118645"
       height="89.491524"
       x="411.66101"
       y="834.71185" /><text
       xml:space="preserve"
       id="text26334"
       style="font-style:normal;font-variant:normal;font-weight:bold;font-stretch:normal;font-size:29.3333px;line-height:1;font-family:'Fira Sans';-inkscape-font-specification:'Fira Sans Bold';text-align:center;white-space:pre;shape-inside:url(#rect26336);display:inline;fill:#070707;stroke:none;stroke-width:2;paint-order:markers fill stroke"
       transform="translate(-141.27445,8.9941713)"><tspan
         x="578.79747"
         y="878.72076"
         id="tspan31874"><tspan
           style="fill:#ffffff"
           id="tspan31872">QR</tspan></tspan></text><rect
       style="fill:#ffffff;fill-opacity:1;stroke:#000000;stroke-width:5;stroke-dasharray:none;stroke-opacity:1;paint-order:markers fill stroke"
       id="rect28194"
       width="333.30582"
       height="154.17328"
       x="1221.8805"
       y="593.68207" /><text
       xml:space="preserve"
       style="font-style:normal;font-variant:normal;font-weight:bold;font-stretch:normal;font-size:29.3333px;line-height:1;font-family:'Fira Sans';-inkscape-font-specification:'Fira Sans Bold';text-align:start;text-anchor:start;fill:#ffffff;fill-opacity:1;stroke:#000000;stroke-width:5;stroke-dasharray:none;stroke-opacity:1;paint-order:markers fill stroke"
       x="966.45917"
       y="761.66187"
       id="text30053"><tspan
         sodipodi:role="line"
         id="tspan30051"
         x="966.45917"
         y="761.66187"
         style="fill:#000000;fill-opacity:1;stroke:none">SDL</tspan></text><text
       xml:space="preserve"
       style="font-style:normal;font-variant:normal;font-weight:bold;font-stretch:normal;font-size:29.3333px;line-height:1;font-family:'Fira Sans';-inkscape-font-specification:'Fira Sans Bold';text-align:start;text-anchor:start;fill:#000000;fill-opacity:1;stroke:none;stroke-width:5;stroke-dasharray:none;stroke-opacity:1;paint-order:markers fill stroke"
       x="1320.8275"
       y="630.49957"
       id="text30159"><tspan
         sodipodi:role="line"
         id="tspan30157"
         x="1320.8275"
         y="630.49957">Horoscopo</tspan></text><text
       xml:space="preserve"
       style="font-style:normal;font-variant:normal;font-weight:bold;font-stretch:normal;font-size:29.3333px;line-height:1;font-family:'Fira Sans';-inkscape-font-specification:'Fira Sans Bold';text-align:start;text-anchor:start;fill:#000000;fill-opacity:1;stroke:none;stroke-width:5;stroke-dasharray:none;stroke-opacity:1;paint-order:markers fill stroke"
       x="1267.9023"
       y="816.88812"
       id="text30889"><tspan
         sodipodi:role="line"
         id="tspan30887"
         x="1267.9023"
         y="816.88812">Links</tspan></text><text
       xml:space="preserve"
       style="font-style:normal;font-variant:normal;font-weight:bold;font-stretch:normal;font-size:29.3333px;line-height:1;font-family:'Fira Sans';-inkscape-font-specification:'Fira Sans Bold';text-align:start;text-anchor:start;fill:#000000;fill-opacity:1;stroke:none;stroke-width:5;stroke-dasharray:none;stroke-opacity:1;paint-order:markers fill stroke"
       x="830.69464"
       y="75.936081"
       id="text30893"><tspan
         sodipodi:role="line"
         id="tspan30891"
         x="830.69464"
         y="75.936081">Tours Mágicos dos Reis</tspan></text></g></svg>
