<?xml version="1.0" encoding="utf-8"?>
<svg xmlns="http://www.w3.org/2000/svg" xmlns:xlink="http://www.w3.org/1999/xlink" xml:space="preserve" width="870" height="870" viewBox="0 0 870 870"><g fill="#000000">
<g transform="translate(399,87) scale(4.12)"><rect width="6" height="6"/></g>
<g transform="translate(423,87) scale(4.12)"><rect width="6" height="6"/></g>
<g transform="translate(447,87) scale(4.12)"><rect width="6" height="6"/></g>
<g transform="translate(567,87) scale(4.12)"><rect width="6" height="6"/></g>
<g transform="translate(303,111) scale(4.12)"><rect width="6" height="6"/></g>
<g transform="translate(375,111) scale(4.12)"><rect width="6" height="6"/></g>
<g transform="translate(399,111) scale(4.12)"><rect width="6" height="6"/></g>
<g transform="translate(423,111) scale(4.12)"><rect width="6" height="6"/></g>
<g transform="translate(447,111) scale(4.12)"><rect width="6" height="6"/></g>
<g transform="translate(471,111) scale(4.12)"><rect width="6" height="6"/></g>
<g transform="translate(495,111) scale(4.12)"><rect width="6" height="6"/></g>
<g transform="translate(519,111) scale(4.12)"><rect width="6" height="6"/></g>
<g transform="translate(279,135) scale(4.12)"><rect width="6" height="6"/></g>
<g transform="translate(351,135) scale(4.12)"><rect width="6" height="6"/></g>
<g transform="translate(399,135) scale(4.12)"><rect width="6" height="6"/></g>
<g transform="translate(447,135) scale(4.12)"><rect width="6" height="6"/></g>
<g transform="translate(279,159) scale(4.12)"><rect width="6" height="6"/></g>
<g transform="translate(423,159) scale(4.12)"><rect width="6" height="6"/></g>
<g transform="translate(447,159) scale(4.12)"><rect width="6" height="6"/></g>
<g transform="translate(543,159) scale(4.12)"><rect width="6" height="6"/></g>
<g transform="translate(279,183) scale(4.12)"><rect width="6" height="6"/></g>
<g transform="translate(303,183) scale(4.12)"><rect width="6" height="6"/></g>
<g transform="translate(327,183) scale(4.12)"><rect width="6" height="6"/></g>
<g transform="translate(351,183) scale(4.12)"><rect width="6" height="6"/></g>
<g transform="translate(375,183) scale(4.12)"><rect width="6" height="6"/></g>
<g transform="translate(447,183) scale(4.12)"><rect width="6" height="6"/></g>
<g transform="translate(471,183) scale(4.12)"><rect width="6" height="6"/></g>
<g transform="translate(519,183) scale(4.12)"><rect width="6" height="6"/></g>
<g transform="translate(567,183) scale(4.12)"><rect width="6" height="6"/></g>
<g transform="translate(279,207) scale(4.12)"><rect width="6" height="6"/></g>
<g transform="translate(279,231) scale(4.12)"><rect width="6" height="6"/></g>
<g transform="translate(327,231) scale(4.12)"><rect width="6" height="6"/></g>
<g transform="translate(375,231) scale(4.12)"><rect width="6" height="6"/></g>
<g transform="translate(423,231) scale(4.12)"><rect width="6" height="6"/></g>
<g transform="translate(471,231) scale(4.12)"><rect width="6" height="6"/></g>
<g transform="translate(519,231) scale(4.12)"><rect width="6" height="6"/></g>
<g transform="translate(567,231) scale(4.12)"><rect width="6" height="6"/></g>
<g transform="translate(279,255) scale(4.12)"><rect width="6" height="6"/></g>
<g transform="translate(351,255) scale(4.12)"><rect width="6" height="6"/></g>
<g transform="translate(423,255) scale(4.12)"><rect width="6" height="6"/></g>
<g transform="translate(471,255) scale(4.12)"><rect width="6" height="6"/></g>
<g transform="translate(519,255) scale(4.12)"><rect width="6" height="6"/></g>
<g transform="translate(567,255) scale(4.12)"><rect width="6" height="6"/></g>
<g transform="translate(87,279) scale(4.12)"><rect width="6" height="6"/></g>
<g transform="translate(135,279) scale(4.12)"><rect width="6" height="6"/></g>
<g transform="translate(159,279) scale(4.12)"><rect width="6" height="6"/></g>
<g transform="translate(183,279) scale(4.12)"><rect width="6" height="6"/></g>
<g transform="translate(207,279) scale(4.12)"><rect width="6" height="6"/></g>
<g transform="translate(231,279) scale(4.12)"><rect width="6" height="6"/></g>
<g transform="translate(303,279) scale(4.12)"><rect width="6" height="6"/></g>
<g transform="translate(327,279) scale(4.12)"><rect width="6" height="6"/></g>
<g transform="translate(375,279) scale(4.12)"><rect width="6" height="6"/></g>
<g transform="translate(471,279) scale(4.12)"><rect width="6" height="6"/></g>
<g transform="translate(495,279) scale(4.12)"><rect width="6" height="6"/></g>
<g transform="translate(543,279) scale(4.12)"><rect width="6" height="6"/></g>
<g transform="translate(615,279) scale(4.12)"><rect width="6" height="6"/></g>
<g transform="translate(639,279) scale(4.12)"><rect width="6" height="6"/></g>
<g transform="translate(663,279) scale(4.12)"><rect width="6" height="6"/></g>
<g transform="translate(687,279) scale(4.12)"><rect width="6" height="6"/></g>
<g transform="translate(711,279) scale(4.12)"><rect width="6" height="6"/></g>
<g transform="translate(87,303) scale(4.12)"><rect width="6" height="6"/></g>
<g transform="translate(111,303) scale(4.12)"><rect width="6" height="6"/></g>
<g transform="translate(135,303) scale(4.12)"><rect width="6" height="6"/></g>
<g transform="translate(159,303) scale(4.12)"><rect width="6" height="6"/></g>
<g transform="translate(183,303) scale(4.12)"><rect width="6" height="6"/></g>
<g transform="translate(351,303) scale(4.12)"><rect width="6" height="6"/></g>
<g transform="translate(399,303) scale(4.12)"><rect width="6" height="6"/></g>
<g transform="translate(423,303) scale(4.12)"><rect width="6" height="6"/></g>
<g transform="translate(447,303) scale(4.12)"><rect width="6" height="6"/></g>
<g transform="translate(495,303) scale(4.12)"><rect width="6" height="6"/></g>
<g transform="translate(519,303) scale(4.12)"><rect width="6" height="6"/></g>
<g transform="translate(543,303) scale(4.12)"><rect width="6" height="6"/></g>
<g transform="translate(567,303) scale(4.12)"><rect width="6" height="6"/></g>
<g transform="translate(615,303) scale(4.12)"><rect width="6" height="6"/></g>
<g transform="translate(639,303) scale(4.12)"><rect width="6" height="6"/></g>
<g transform="translate(663,303) scale(4.12)"><rect width="6" height="6"/></g>
<g transform="translate(759,303) scale(4.12)"><rect width="6" height="6"/></g>
<g transform="translate(111,327) scale(4.12)"><rect width="6" height="6"/></g>
<g transform="translate(207,327) scale(4.12)"><rect width="6" height="6"/></g>
<g transform="translate(231,327) scale(4.12)"><rect width="6" height="6"/></g>
<g transform="translate(255,327) scale(4.12)"><rect width="6" height="6"/></g>
<g transform="translate(279,327) scale(4.12)"><rect width="6" height="6"/></g>
<g transform="translate(303,327) scale(4.12)"><rect width="6" height="6"/></g>
<g transform="translate(351,327) scale(4.12)"><rect width="6" height="6"/></g>
<g transform="translate(399,327) scale(4.12)"><rect width="6" height="6"/></g>
<g transform="translate(423,327) scale(4.12)"><rect width="6" height="6"/></g>
<g transform="translate(447,327) scale(4.12)"><rect width="6" height="6"/></g>
<g transform="translate(471,327) scale(4.12)"><rect width="6" height="6"/></g>
<g transform="translate(663,327) scale(4.12)"><rect width="6" height="6"/></g>
<g transform="translate(135,351) scale(4.12)"><rect width="6" height="6"/></g>
<g transform="translate(159,351) scale(4.12)"><rect width="6" height="6"/></g>
<g transform="translate(207,351) scale(4.12)"><rect width="6" height="6"/></g>
<g transform="translate(255,351) scale(4.12)"><rect width="6" height="6"/></g>
<g transform="translate(279,351) scale(4.12)"><rect width="6" height="6"/></g>
<g transform="translate(303,351) scale(4.12)"><rect width="6" height="6"/></g>
<g transform="translate(351,351) scale(4.12)"><rect width="6" height="6"/></g>
<g transform="translate(399,351) scale(4.12)"><rect width="6" height="6"/></g>
<g transform="translate(447,351) scale(4.12)"><rect width="6" height="6"/></g>
<g transform="translate(543,351) scale(4.12)"><rect width="6" height="6"/></g>
<g transform="translate(567,351) scale(4.12)"><rect width="6" height="6"/></g>
<g transform="translate(639,351) scale(4.12)"><rect width="6" height="6"/></g>
<g transform="translate(663,351) scale(4.12)"><rect width="6" height="6"/></g>
<g transform="translate(687,351) scale(4.12)"><rect width="6" height="6"/></g>
<g transform="translate(735,351) scale(4.12)"><rect width="6" height="6"/></g>
<g transform="translate(135,375) scale(4.12)"><rect width="6" height="6"/></g>
<g transform="translate(207,375) scale(4.12)"><rect width="6" height="6"/></g>
<g transform="translate(231,375) scale(4.12)"><rect width="6" height="6"/></g>
<g transform="translate(255,375) scale(4.12)"><rect width="6" height="6"/></g>
<g transform="translate(279,375) scale(4.12)"><rect width="6" height="6"/></g>
<g transform="translate(327,375) scale(4.12)"><rect width="6" height="6"/></g>
<g transform="translate(351,375) scale(4.12)"><rect width="6" height="6"/></g>
<g transform="translate(423,375) scale(4.12)"><rect width="6" height="6"/></g>
<g transform="translate(447,375) scale(4.12)"><rect width="6" height="6"/></g>
<g transform="translate(495,375) scale(4.12)"><rect width="6" height="6"/></g>
<g transform="translate(591,375) scale(4.12)"><rect width="6" height="6"/></g>
<g transform="translate(639,375) scale(4.12)"><rect width="6" height="6"/></g>
<g transform="translate(687,375) scale(4.12)"><rect width="6" height="6"/></g>
<g transform="translate(711,375) scale(4.12)"><rect width="6" height="6"/></g>
<g transform="translate(87,399) scale(4.12)"><rect width="6" height="6"/></g>
<g transform="translate(111,399) scale(4.12)"><rect width="6" height="6"/></g>
<g transform="translate(207,399) scale(4.12)"><rect width="6" height="6"/></g>
<g transform="translate(255,399) scale(4.12)"><rect width="6" height="6"/></g>
<g transform="translate(303,399) scale(4.12)"><rect width="6" height="6"/></g>
<g transform="translate(351,399) scale(4.12)"><rect width="6" height="6"/></g>
<g transform="translate(375,399) scale(4.12)"><rect width="6" height="6"/></g>
<g transform="translate(447,399) scale(4.12)"><rect width="6" height="6"/></g>
<g transform="translate(471,399) scale(4.12)"><rect width="6" height="6"/></g>
<g transform="translate(543,399) scale(4.12)"><rect width="6" height="6"/></g>
<g transform="translate(567,399) scale(4.12)"><rect width="6" height="6"/></g>
<g transform="translate(591,399) scale(4.12)"><rect width="6" height="6"/></g>
<g transform="translate(615,399) scale(4.12)"><rect width="6" height="6"/></g>
<g transform="translate(639,399) scale(4.12)"><rect width="6" height="6"/></g>
<g transform="translate(663,399) scale(4.12)"><rect width="6" height="6"/></g>
<g transform="translate(759,399) scale(4.12)"><rect width="6" height="6"/></g>
<g transform="translate(207,423) scale(4.12)"><rect width="6" height="6"/></g>
<g transform="translate(231,423) scale(4.12)"><rect width="6" height="6"/></g>
<g transform="translate(255,423) scale(4.12)"><rect width="6" height="6"/></g>
<g transform="translate(495,423) scale(4.12)"><rect width="6" height="6"/></g>
<g transform="translate(519,423) scale(4.12)"><rect width="6" height="6"/></g>
<g transform="translate(615,423) scale(4.12)"><rect width="6" height="6"/></g>
<g transform="translate(639,423) scale(4.12)"><rect width="6" height="6"/></g>
<g transform="translate(663,423) scale(4.12)"><rect width="6" height="6"/></g>
<g transform="translate(687,423) scale(4.12)"><rect width="6" height="6"/></g>
<g transform="translate(711,423) scale(4.12)"><rect width="6" height="6"/></g>
<g transform="translate(87,447) scale(4.12)"><rect width="6" height="6"/></g>
<g transform="translate(159,447) scale(4.12)"><rect width="6" height="6"/></g>
<g transform="translate(255,447) scale(4.12)"><rect width="6" height="6"/></g>
<g transform="translate(327,447) scale(4.12)"><rect width="6" height="6"/></g>
<g transform="translate(351,447) scale(4.12)"><rect width="6" height="6"/></g>
<g transform="translate(375,447) scale(4.12)"><rect width="6" height="6"/></g>
<g transform="translate(423,447) scale(4.12)"><rect width="6" height="6"/></g>
<g transform="translate(471,447) scale(4.12)"><rect width="6" height="6"/></g>
<g transform="translate(519,447) scale(4.12)"><rect width="6" height="6"/></g>
<g transform="translate(543,447) scale(4.12)"><rect width="6" height="6"/></g>
<g transform="translate(591,447) scale(4.12)"><rect width="6" height="6"/></g>
<g transform="translate(615,447) scale(4.12)"><rect width="6" height="6"/></g>
<g transform="translate(639,447) scale(4.12)"><rect width="6" height="6"/></g>
<g transform="translate(663,447) scale(4.12)"><rect width="6" height="6"/></g>
<g transform="translate(735,447) scale(4.12)"><rect width="6" height="6"/></g>
<g transform="translate(111,471) scale(4.12)"><rect width="6" height="6"/></g>
<g transform="translate(135,471) scale(4.12)"><rect width="6" height="6"/></g>
<g transform="translate(207,471) scale(4.12)"><rect width="6" height="6"/></g>
<g transform="translate(231,471) scale(4.12)"><rect width="6" height="6"/></g>
<g transform="translate(255,471) scale(4.12)"><rect width="6" height="6"/></g>
<g transform="translate(279,471) scale(4.12)"><rect width="6" height="6"/></g>
<g transform="translate(303,471) scale(4.12)"><rect width="6" height="6"/></g>
<g transform="translate(327,471) scale(4.12)"><rect width="6" height="6"/></g>
<g transform="translate(351,471) scale(4.12)"><rect width="6" height="6"/></g>
<g transform="translate(471,471) scale(4.12)"><rect width="6" height="6"/></g>
<g transform="translate(543,471) scale(4.12)"><rect width="6" height="6"/></g>
<g transform="translate(567,471) scale(4.12)"><rect width="6" height="6"/></g>
<g transform="translate(639,471) scale(4.12)"><rect width="6" height="6"/></g>
<g transform="translate(687,471) scale(4.12)"><rect width="6" height="6"/></g>
<g transform="translate(711,471) scale(4.12)"><rect width="6" height="6"/></g>
<g transform="translate(87,495) scale(4.12)"><rect width="6" height="6"/></g>
<g transform="translate(135,495) scale(4.12)"><rect width="6" height="6"/></g>
<g transform="translate(159,495) scale(4.12)"><rect width="6" height="6"/></g>
<g transform="translate(255,495) scale(4.12)"><rect width="6" height="6"/></g>
<g transform="translate(327,495) scale(4.12)"><rect width="6" height="6"/></g>
<g transform="translate(351,495) scale(4.12)"><rect width="6" height="6"/></g>
<g transform="translate(399,495) scale(4.12)"><rect width="6" height="6"/></g>
<g transform="translate(423,495) scale(4.12)"><rect width="6" height="6"/></g>
<g transform="translate(447,495) scale(4.12)"><rect width="6" height="6"/></g>
<g transform="translate(495,495) scale(4.12)"><rect width="6" height="6"/></g>
<g transform="translate(519,495) scale(4.12)"><rect width="6" height="6"/></g>
<g transform="translate(543,495) scale(4.12)"><rect width="6" height="6"/></g>
<g transform="translate(567,495) scale(4.12)"><rect width="6" height="6"/></g>
<g transform="translate(591,495) scale(4.12)"><rect width="6" height="6"/></g>
<g transform="translate(615,495) scale(4.12)"><rect width="6" height="6"/></g>
<g transform="translate(639,495) scale(4.12)"><rect width="6" height="6"/></g>
<g transform="translate(663,495) scale(4.12)"><rect width="6" height="6"/></g>
<g transform="translate(711,495) scale(4.12)"><rect width="6" height="6"/></g>
<g transform="translate(759,495) scale(4.12)"><rect width="6" height="6"/></g>
<g transform="translate(87,519) scale(4.12)"><rect width="6" height="6"/></g>
<g transform="translate(135,519) scale(4.12)"><rect width="6" height="6"/></g>
<g transform="translate(159,519) scale(4.12)"><rect width="6" height="6"/></g>
<g transform="translate(183,519) scale(4.12)"><rect width="6" height="6"/></g>
<g transform="translate(231,519) scale(4.12)"><rect width="6" height="6"/></g>
<g transform="translate(327,519) scale(4.12)"><rect width="6" height="6"/></g>
<g transform="translate(351,519) scale(4.12)"><rect width="6" height="6"/></g>
<g transform="translate(399,519) scale(4.12)"><rect width="6" height="6"/></g>
<g transform="translate(423,519) scale(4.12)"><rect width="6" height="6"/></g>
<g transform="translate(447,519) scale(4.12)"><rect width="6" height="6"/></g>
<g transform="translate(471,519) scale(4.12)"><rect width="6" height="6"/></g>
<g transform="translate(567,519) scale(4.12)"><rect width="6" height="6"/></g>
<g transform="translate(591,519) scale(4.12)"><rect width="6" height="6"/></g>
<g transform="translate(639,519) scale(4.12)"><rect width="6" height="6"/></g>
<g transform="translate(711,519) scale(4.12)"><rect width="6" height="6"/></g>
<g transform="translate(87,543) scale(4.12)"><rect width="6" height="6"/></g>
<g transform="translate(135,543) scale(4.12)"><rect width="6" height="6"/></g>
<g transform="translate(159,543) scale(4.12)"><rect width="6" height="6"/></g>
<g transform="translate(255,543) scale(4.12)"><rect width="6" height="6"/></g>
<g transform="translate(351,543) scale(4.12)"><rect width="6" height="6"/></g>
<g transform="translate(375,543) scale(4.12)"><rect width="6" height="6"/></g>
<g transform="translate(399,543) scale(4.12)"><rect width="6" height="6"/></g>
<g transform="translate(447,543) scale(4.12)"><rect width="6" height="6"/></g>
<g transform="translate(519,543) scale(4.12)"><rect width="6" height="6"/></g>
<g transform="translate(567,543) scale(4.12)"><rect width="6" height="6"/></g>
<g transform="translate(591,543) scale(4.12)"><rect width="6" height="6"/></g>
<g transform="translate(615,543) scale(4.12)"><rect width="6" height="6"/></g>
<g transform="translate(639,543) scale(4.12)"><rect width="6" height="6"/></g>
<g transform="translate(735,543) scale(4.12)"><rect width="6" height="6"/></g>
<g transform="translate(87,567) scale(4.12)"><rect width="6" height="6"/></g>
<g transform="translate(159,567) scale(4.12)"><rect width="6" height="6"/></g>
<g transform="translate(231,567) scale(4.12)"><rect width="6" height="6"/></g>
<g transform="translate(279,567) scale(4.12)"><rect width="6" height="6"/></g>
<g transform="translate(351,567) scale(4.12)"><rect width="6" height="6"/></g>
<g transform="translate(375,567) scale(4.12)"><rect width="6" height="6"/></g>
<g transform="translate(423,567) scale(4.12)"><rect width="6" height="6"/></g>
<g transform="translate(447,567) scale(4.12)"><rect width="6" height="6"/></g>
<g transform="translate(543,567) scale(4.12)"><rect width="6" height="6"/></g>
<g transform="translate(567,567) scale(4.12)"><rect width="6" height="6"/></g>
<g transform="translate(591,567) scale(4.12)"><rect width="6" height="6"/></g>
<g transform="translate(615,567) scale(4.12)"><rect width="6" height="6"/></g>
<g transform="translate(639,567) scale(4.12)"><rect width="6" height="6"/></g>
<g transform="translate(663,567) scale(4.12)"><rect width="6" height="6"/></g>
<g transform="translate(711,567) scale(4.12)"><rect width="6" height="6"/></g>
<g transform="translate(735,567) scale(4.12)"><rect width="6" height="6"/></g>
<g transform="translate(759,567) scale(4.12)"><rect width="6" height="6"/></g>
<g transform="translate(279,591) scale(4.12)"><rect width="6" height="6"/></g>
<g transform="translate(447,591) scale(4.12)"><rect width="6" height="6"/></g>
<g transform="translate(471,591) scale(4.12)"><rect width="6" height="6"/></g>
<g transform="translate(567,591) scale(4.12)"><rect width="6" height="6"/></g>
<g transform="translate(663,591) scale(4.12)"><rect width="6" height="6"/></g>
<g transform="translate(687,591) scale(4.12)"><rect width="6" height="6"/></g>
<g transform="translate(711,591) scale(4.12)"><rect width="6" height="6"/></g>
<g transform="translate(735,591) scale(4.12)"><rect width="6" height="6"/></g>
<g transform="translate(759,591) scale(4.12)"><rect width="6" height="6"/></g>
<g transform="translate(327,615) scale(4.12)"><rect width="6" height="6"/></g>
<g transform="translate(375,615) scale(4.12)"><rect width="6" height="6"/></g>
<g transform="translate(543,615) scale(4.12)"><rect width="6" height="6"/></g>
<g transform="translate(567,615) scale(4.12)"><rect width="6" height="6"/></g>
<g transform="translate(615,615) scale(4.12)"><rect width="6" height="6"/></g>
<g transform="translate(663,615) scale(4.12)"><rect width="6" height="6"/></g>
<g transform="translate(687,615) scale(4.12)"><rect width="6" height="6"/></g>
<g transform="translate(711,615) scale(4.12)"><rect width="6" height="6"/></g>
<g transform="translate(279,639) scale(4.12)"><rect width="6" height="6"/></g>
<g transform="translate(327,639) scale(4.12)"><rect width="6" height="6"/></g>
<g transform="translate(351,639) scale(4.12)"><rect width="6" height="6"/></g>
<g transform="translate(423,639) scale(4.12)"><rect width="6" height="6"/></g>
<g transform="translate(471,639) scale(4.12)"><rect width="6" height="6"/></g>
<g transform="translate(543,639) scale(4.12)"><rect width="6" height="6"/></g>
<g transform="translate(567,639) scale(4.12)"><rect width="6" height="6"/></g>
<g transform="translate(663,639) scale(4.12)"><rect width="6" height="6"/></g>
<g transform="translate(735,639) scale(4.12)"><rect width="6" height="6"/></g>
<g transform="translate(279,663) scale(4.12)"><rect width="6" height="6"/></g>
<g transform="translate(303,663) scale(4.12)"><rect width="6" height="6"/></g>
<g transform="translate(471,663) scale(4.12)"><rect width="6" height="6"/></g>
<g transform="translate(519,663) scale(4.12)"><rect width="6" height="6"/></g>
<g transform="translate(567,663) scale(4.12)"><rect width="6" height="6"/></g>
<g transform="translate(591,663) scale(4.12)"><rect width="6" height="6"/></g>
<g transform="translate(615,663) scale(4.12)"><rect width="6" height="6"/></g>
<g transform="translate(639,663) scale(4.12)"><rect width="6" height="6"/></g>
<g transform="translate(663,663) scale(4.12)"><rect width="6" height="6"/></g>
<g transform="translate(711,663) scale(4.12)"><rect width="6" height="6"/></g>
<g transform="translate(759,663) scale(4.12)"><rect width="6" height="6"/></g>
<g transform="translate(279,687) scale(4.12)"><rect width="6" height="6"/></g>
<g transform="translate(303,687) scale(4.12)"><rect width="6" height="6"/></g>
<g transform="translate(351,687) scale(4.12)"><rect width="6" height="6"/></g>
<g transform="translate(399,687) scale(4.12)"><rect width="6" height="6"/></g>
<g transform="translate(423,687) scale(4.12)"><rect width="6" height="6"/></g>
<g transform="translate(447,687) scale(4.12)"><rect width="6" height="6"/></g>
<g transform="translate(495,687) scale(4.12)"><rect width="6" height="6"/></g>
<g transform="translate(519,687) scale(4.12)"><rect width="6" height="6"/></g>
<g transform="translate(543,687) scale(4.12)"><rect width="6" height="6"/></g>
<g transform="translate(567,687) scale(4.12)"><rect width="6" height="6"/></g>
<g transform="translate(687,687) scale(4.12)"><rect width="6" height="6"/></g>
<g transform="translate(711,687) scale(4.12)"><rect width="6" height="6"/></g>
<g transform="translate(279,711) scale(4.12)"><rect width="6" height="6"/></g>
<g transform="translate(303,711) scale(4.12)"><rect width="6" height="6"/></g>
<g transform="translate(327,711) scale(4.12)"><rect width="6" height="6"/></g>
<g transform="translate(351,711) scale(4.12)"><rect width="6" height="6"/></g>
<g transform="translate(375,711) scale(4.12)"><rect width="6" height="6"/></g>
<g transform="translate(399,711) scale(4.12)"><rect width="6" height="6"/></g>
<g transform="translate(423,711) scale(4.12)"><rect width="6" height="6"/></g>
<g transform="translate(447,711) scale(4.12)"><rect width="6" height="6"/></g>
<g transform="translate(471,711) scale(4.12)"><rect width="6" height="6"/></g>
<g transform="translate(495,711) scale(4.12)"><rect width="6" height="6"/></g>
<g transform="translate(543,711) scale(4.12)"><rect width="6" height="6"/></g>
<g transform="translate(567,711) scale(4.12)"><rect width="6" height="6"/></g>
<g transform="translate(591,711) scale(4.12)"><rect width="6" height="6"/></g>
<g transform="translate(615,711) scale(4.12)"><rect width="6" height="6"/></g>
<g transform="translate(639,711) scale(4.12)"><rect width="6" height="6"/></g>
<g transform="translate(663,711) scale(4.12)"><rect width="6" height="6"/></g>
<g transform="translate(687,711) scale(4.12)"><rect width="6" height="6"/></g>
<g transform="translate(711,711) scale(4.12)"><rect width="6" height="6"/></g>
<g transform="translate(735,711) scale(4.12)"><rect width="6" height="6"/></g>
<g transform="translate(303,735) scale(4.12)"><rect width="6" height="6"/></g>
<g transform="translate(327,735) scale(4.12)"><rect width="6" height="6"/></g>
<g transform="translate(399,735) scale(4.12)"><rect width="6" height="6"/></g>
<g transform="translate(423,735) scale(4.12)"><rect width="6" height="6"/></g>
<g transform="translate(447,735) scale(4.12)"><rect width="6" height="6"/></g>
<g transform="translate(495,735) scale(4.12)"><rect width="6" height="6"/></g>
<g transform="translate(519,735) scale(4.12)"><rect width="6" height="6"/></g>
<g transform="translate(567,735) scale(4.12)"><rect width="6" height="6"/></g>
<g transform="translate(639,735) scale(4.12)"><rect width="6" height="6"/></g>
<g transform="translate(663,735) scale(4.12)"><rect width="6" height="6"/></g>
<g transform="translate(687,735) scale(4.12)"><rect width="6" height="6"/></g>
<g transform="translate(735,735) scale(4.12)"><rect width="6" height="6"/></g>
<g transform="translate(279,759) scale(4.12)"><rect width="6" height="6"/></g>
<g transform="translate(327,759) scale(4.12)"><rect width="6" height="6"/></g>
<g transform="translate(351,759) scale(4.12)"><rect width="6" height="6"/></g>
<g transform="translate(423,759) scale(4.12)"><rect width="6" height="6"/></g>
<g transform="translate(447,759) scale(4.12)"><rect width="6" height="6"/></g>
<g transform="translate(687,759) scale(4.12)"><rect width="6" height="6"/></g>
<g transform="translate(711,759) scale(4.12)"><rect width="6" height="6"/></g>
<g transform="translate(87,87)"><g transform="scale(12)"><path d="M0,0v14h14V0H0z M12,12H2V2h10V12z"/></g></g>
<g transform="translate(615,87)"><g transform="scale(12)"><path d="M0,0v14h14V0H0z M12,12H2V2h10V12z"/></g></g>
<g transform="translate(87,615)"><g transform="scale(12)"><path d="M0,0v14h14V0H0z M12,12H2V2h10V12z"/></g></g>
<g transform="translate(135,135)"><g transform="scale(12)"><rect width="6" height="6"/></g></g>
<g transform="translate(663,135)"><g transform="scale(12)"><rect width="6" height="6"/></g></g>
<g transform="translate(135,663)"><g transform="scale(12)"><rect width="6" height="6"/></g></g>
</g><g id="front" fill="#eeeeee" transform="scale(36.25)"><path d="M23,1v22H1V1H23 M23.5,0.5h-23v23h23V0.5L23.5,0.5z"/></g></svg>
