<?xml version="1.0" encoding="UTF-8" standalone="no"?>
<!-- Created with Inkscape (http://www.inkscape.org/) -->

<svg
   width="210mm"
   height="297mm"
   viewBox="0 0 793.7008 1122.5197"
   version="1.1"
   id="svg5"
   inkscape:version="1.2.2 (732a01da63, 2022-12-09)"
   sodipodi:docname="Tour Stickers.svg"
   inkscape:export-filename="Magic Kings tours.pdf"
   inkscape:export-xdpi="96"
   inkscape:export-ydpi="96"
   xmlns:inkscape="http://www.inkscape.org/namespaces/inkscape"
   xmlns:sodipodi="http://sodipodi.sourceforge.net/DTD/sodipodi-0.dtd"
   xmlns="http://www.w3.org/2000/svg"
   xmlns:svg="http://www.w3.org/2000/svg">
  <sodipodi:namedview
     id="namedview7"
     pagecolor="#ffffff"
     bordercolor="#000000"
     borderopacity="0.25"
     inkscape:showpageshadow="2"
     inkscape:pageopacity="0.0"
     inkscape:pagecheckerboard="0"
     inkscape:deskcolor="#d1d1d1"
     inkscape:document-units="px"
     showgrid="true"
     showguides="true"
     inkscape:zoom="0.35355339"
     inkscape:cx="154.14928"
     inkscape:cy="661.85194"
     inkscape:window-width="1366"
     inkscape:window-height="697"
     inkscape:window-x="-8"
     inkscape:window-y="-8"
     inkscape:window-maximized="1"
     inkscape:current-layer="layer2">
    <inkscape:grid
       type="xygrid"
       id="grid1810"
       spacingx="119.685"
       originx="37.795001"
       originy="37.795001"
       spacingy="119.685"
       visible="false"
       enabled="false" />
  </sodipodi:namedview>
  <defs
     id="defs2" />
  <g
     inkscape:label="Layer 1"
     inkscape:groupmode="layer"
     id="layer1"
     sodipodi:insensitive="true">
    <g
       id="g1754"
       transform="matrix(14.960629,0,0,14.960629,-556.77803,-549.82932)">
      <rect
         style="fill:#0e0c0a;fill-opacity:1;stroke:none;stroke-width:6;stroke-linecap:square;stroke-linejoin:bevel;stroke-opacity:1;paint-order:markers fill stroke"
         id="rect887"
         width="48"
         height="64"
         x="39.742535"
         y="39.278069"
         inkscape:export-filename="tours.png"
         inkscape:export-xdpi="1440"
         inkscape:export-ydpi="1440" />
      <path
         style="fill:none;fill-opacity:1;stroke:#ffffff;stroke-width:0.35;stroke-linecap:square;stroke-linejoin:miter;stroke-dasharray:none;stroke-opacity:1;paint-order:markers fill stroke"
         d="m 51.242527,39.77807 h -3 v 1 l 1,1 1,-1 h 1 l 1,1 h 1 l 1,-1 1,1 v 1 h -3 v 1 h 3 v 1 l -1,1 -1,-1 h -1 l -1,1 h -1 l -1,-1 -1,1 v 1 h 7 v -1 l -1,-1 -1,1 h -1 l -1,-1 h -1 l -1,1 -1,-1 v -1 h 3 v -1 h -3 v -1 l 1,-1 1,1 h 1 l 1,-1 h 1 l 1,1 1,-1 v -1 h -3 z"
         id="path1429-1"
         sodipodi:nodetypes="ccccccccccccccccccccccccccccccccccccccccccccccc"
         inkscape:label="A0" />
      <path
         style="fill:none;fill-opacity:1;stroke:#ffffff;stroke-width:0.35;stroke-linecap:square;stroke-linejoin:miter;stroke-dasharray:none;stroke-opacity:1;paint-order:markers fill stroke"
         d="m 67.242527,39.77807 h -3 v 1 l 1,1 1,-1 h 1 l 1,1 h 1 l 1,-1 1,1 v 1 l -1,1 h -1 l -1,-1 v 1 l 1,-1 h 1 l 1,1 v 1 l -1,1 -1,-1 h -1 l -1,1 h -1 l -1,-1 -1,1 v 1 h 7 v -1 l -1,-1 -1,1 h -1 l -1,-1 h -1 l -1,1 -1,-1 v -1 l 1,-1 h 1 l 1,1 v -1 l -1,1 h -1 l -1,-1 v -1 l 1,-1 1,1 h 1 l 1,-1 h 1 l 1,1 1,-1 v -1 h -3 z"
         id="path1429-6-0"
         sodipodi:nodetypes="ccccccccccccccccccccccccccccccccccccccccccccccccccccccc"
         inkscape:label="A2" />
      <path
         style="fill:none;fill-opacity:1;stroke:#ffffff;stroke-width:0.35;stroke-linecap:square;stroke-linejoin:miter;stroke-dasharray:none;stroke-opacity:1;paint-order:markers fill stroke"
         d="m 43.242527,47.77807 h -3 v 1 l 1,1 1,-1 h 1 l 1,1 h 1 l 1,-1 1,1 v 1 h -1 l -1,1 -1,-1 v 1 l 1,-1 1,1 h 1 v 1 l -1,1 -1,-1 h -1 l -1,1 h -1 l -1,-1 -1,1 v 1 h 7 v -1 l -1,-1 -1,1 h -1 l -1,-1 h -1 l -1,1 -1,-1 v -1 h 1 l 1,-1 1,1 v -1 l -1,1 -1,-1 h -1 v -1 l 1,-1 1,1 h 1 l 1,-1 h 1 l 1,1 1,-1 v -1 h -3 z"
         id="path1429-6-2-3"
         sodipodi:nodetypes="ccccccccccccccccccccccccccccccccccccccccccccccccccccccc"
         inkscape:label="A4" />
      <path
         style="fill:none;fill-opacity:1;stroke:#ffffff;stroke-width:0.35;stroke-linecap:square;stroke-linejoin:miter;stroke-dasharray:none;stroke-opacity:1;paint-order:markers fill stroke"
         d="m 59.242527,39.77807 h -3 v 1 l 1,1 1,-1 1,1 1,-1 1,1 1,-1 1,1 v 1 h -3 v 1 h 3 v 1 l -1,1 -1,-1 -1,1 -1,-1 -1,1 -1,-1 -1,1 v 1 h 7 v -1 l -1,-1 -1,1 -1,-1 -1,1 -1,-1 -1,1 -1,-1 v -1 h 3 v -1 h -3 v -1 l 1,-1 1,1 1,-1 1,1 1,-1 1,1 1,-1 v -1 h -3 z"
         id="path1431-24"
         sodipodi:nodetypes="ccccccccccccccccccccccccccccccccccccccccccccccc"
         inkscape:label="A1" />
      <path
         style="fill:none;fill-opacity:1;stroke:#ffffff;stroke-width:0.35;stroke-linecap:square;stroke-linejoin:miter;stroke-dasharray:none;stroke-opacity:1;paint-order:markers fill stroke"
         d="m 75.242527,39.77807 h -3 v 1 l 1,1 1,-1 1,1 1,-1 1,1 1,-1 1,1 v 1 l -1,1 h -1 l -1,-1 v 1 l 1,-1 h 1 l 1,1 v 1 l -1,1 -1,-1 -1,1 -1,-1 -1,1 -1,-1 -1,1 v 1 h 7 v -1 l -1,-1 -1,1 -1,-1 -1,1 -1,-1 -1,1 -1,-1 v -1 l 1,-1 h 1 l 1,1 v -1 l -1,1 h -1 l -1,-1 v -1 l 1,-1 1,1 1,-1 1,1 1,-1 1,1 1,-1 v -1 h -3 z"
         id="path1431-2-2"
         sodipodi:nodetypes="ccccccccccccccccccccccccccccccccccccccccccccccccccccccc"
         inkscape:label="A3" />
      <path
         style="fill:none;fill-opacity:1;stroke:#ffffff;stroke-width:0.35;stroke-linecap:square;stroke-linejoin:miter;stroke-dasharray:none;stroke-opacity:1;paint-order:markers fill stroke"
         d="m 51.242527,47.77807 h -3 v 1 l 1,1 1,-1 1,1 1,-1 1,1 1,-1 1,1 v 1 h -1 l -1,1 -1,-1 v 1 l 1,-1 1,1 h 1 v 1 l -1,1 -1,-1 -1,1 -1,-1 -1,1 -1,-1 -1,1 v 1 h 7 v -1 l -1,-1 -1,1 -1,-1 -1,1 -1,-1 -1,1 -1,-1 v -1 h 1 l 1,-1 1,1 v -1 l -1,1 -1,-1 h -1 v -1 l 1,-1 1,1 1,-1 1,1 1,-1 1,1 1,-1 v -1 h -3 z"
         id="path1431-2-7-8"
         sodipodi:nodetypes="ccccccccccccccccccccccccccccccccccccccccccccccccccccccc"
         inkscape:label="A5" />
      <path
         style="fill:none;fill-opacity:1;stroke:#ffffff;stroke-width:0.35;stroke-linecap:square;stroke-linejoin:miter;stroke-dasharray:none;stroke-opacity:1;paint-order:markers fill stroke"
         d="m 59.242527,47.77807 h -3 v 1 l 1,1 1,-1 h 1 l 1,1 h 1 l 1,-1 1,1 v 1 l -1,1 -1,-1 h -1 v 1 h 1 l 1,-1 1,1 v 1 l -1,1 -1,-1 h -1 l -1,1 h -1 l -1,-1 -1,1 v 1 h 7 v -1 l -1,-1 -1,1 h -1 l -1,-1 h -1 l -1,1 -1,-1 v -1 l 1,-1 1,1 h 1 v -1 h -1 l -1,1 -1,-1 v -1 l 1,-1 1,1 h 1 l 1,-1 h 1 l 1,1 1,-1 v -1 h -3 z"
         id="path1429-6-2-2-8"
         sodipodi:nodetypes="ccccccccccccccccccccccccccccccccccccccccccccccccccccccc"
         inkscape:label="A6" />
      <path
         style="fill:none;fill-opacity:1;stroke:#ffffff;stroke-width:0.35;stroke-linecap:square;stroke-linejoin:miter;stroke-dasharray:none;stroke-opacity:1;paint-order:markers fill stroke"
         d="m 67.242527,47.77807 h -3 v 1 l 1,1 1,-1 1,1 1,-1 1,1 1,-1 1,1 v 1 l -1,1 -1,-1 h -1 v 1 h 1 l 1,-1 1,1 v 1 l -1,1 -1,-1 -1,1 -1,-1 -1,1 -1,-1 -1,1 v 1 h 7 v -1 l -1,-1 -1,1 -1,-1 -1,1 -1,-1 -1,1 -1,-1 v -1 l 1,-1 1,1 h 1 v -1 h -1 l -1,1 -1,-1 v -1 l 1,-1 1,1 1,-1 1,1 1,-1 1,1 1,-1 v -1 h -3 z"
         id="path1431-2-7-5-1"
         sodipodi:nodetypes="ccccccccccccccccccccccccccccccccccccccccccccccccccccccc"
         inkscape:label="A7" />
      <path
         style="fill:none;fill-opacity:1;stroke:#ffffff;stroke-width:0.35;stroke-linecap:square;stroke-linejoin:miter;stroke-dasharray:none;stroke-opacity:1;paint-order:markers fill stroke"
         d="m 43.242527,55.77807 h -3 v 1 l 1,1 1,-1 h 1 l 1,1 v 1 h 2 l -1,-1 1,-1 1,1 v 3 l -1,1 -1,-1 1,-1 h -2 v 1 l -1,1 h -1 l -1,-1 -1,1 v 1 h 7 v -1 l -1,-1 -1,1 h -1 l -1,-1 v -1 h -2 l 1,1 -1,1 -1,-1 v -3 l 1,-1 1,1 -1,1 h 2 v -1 l 1,-1 h 1 l 1,1 1,-1 v -1 h -3 z"
         id="path1644-0"
         sodipodi:nodetypes="ccccccccccccccccccccccccccccccccccccccccccccccc"
         inkscape:label="B0" />
      <path
         style="fill:none;fill-opacity:1;stroke:#ffffff;stroke-width:0.35;stroke-linecap:square;stroke-linejoin:miter;stroke-dasharray:none;stroke-opacity:1;paint-order:markers fill stroke"
         d="m 51.242527,55.77807 h -3 v 1 l 1,1 1,-1 h 1 l 1,1 v 1 l 1,1 1,-1 -1,-1 1,-1 1,1 v 3 l -1,1 -1,-1 1,-1 -1,-1 -1,1 v 1 l -1,1 h -1 l -1,-1 -1,1 v 1 h 7 v -1 l -1,-1 -1,1 h -1 l -1,-1 v -1 l -1,-1 -1,1 1,1 -1,1 -1,-1 v -3 l 1,-1 1,1 -1,1 1,1 1,-1 v -1 l 1,-1 h 1 l 1,1 1,-1 v -1 h -3 z"
         id="path1646-2"
         sodipodi:nodetypes="ccccccccccccccccccccccccccccccccccccccccccccccccccc"
         inkscape:label="B1" />
      <path
         style="fill:none;fill-opacity:1;stroke:#ffffff;stroke-width:0.35;stroke-linecap:square;stroke-linejoin:miter;stroke-dasharray:none;stroke-opacity:1;paint-order:markers fill stroke"
         d="m 60.242527,56.77807 -1,-1 h -1 l -2,2 v 1 l 2,2 1,-1 3,3 h 1 v -1 l -2,-2 v -1 l 2,-2 v -1 h -1 l -3,3 -1,-1 -2,2 v 1 l 2,2 h 1 l 1,-1 h -1 l 1,1 h 1 l 2,-2 v -1 l -2,-2 -1,1 -3,-3 h -1 v 1 l 2,2 v 1 l -2,2 v 1 h 1 l 3,-3 1,1 2,-2 v -1 l -2,-2 h -1 l -1,1 z"
         id="path1663-7"
         sodipodi:nodetypes="ccccccccccccccccccccccccccccccccccccccccccccc"
         inkscape:label="C0" />
      <path
         style="fill:none;fill-opacity:1;stroke:#ffffff;stroke-width:0.35;stroke-linecap:square;stroke-linejoin:miter;stroke-dasharray:none;stroke-opacity:1;paint-order:markers fill stroke"
         d="m 68.242527,55.77807 -1,1 -1,-1 -2,2 v 1 l 2,2 1,-1 3,3 h 1 v -1 l -2,-2 v -1 l 2,-2 v -1 h -1 l -3,3 -1,-1 -2,2 v 1 l 2,2 1,-1 1,1 h -1 l 1,-1 1,1 2,-2 v -1 l -2,-2 -1,1 -3,-3 h -1 v 1 l 2,2 v 1 l -2,2 v 1 h 1 l 3,-3 1,1 2,-2 v -1 l -2,-2 -1,1 -1,-1 z"
         id="path1663-4-6"
         sodipodi:nodetypes="ccccccccccccccccccccccccccccccccccccccccccccc"
         inkscape:label="C1" />
      <path
         style="fill:none;fill-opacity:1;stroke:#ffffff;stroke-width:0.35;stroke-linecap:square;stroke-linejoin:miter;stroke-dasharray:none;stroke-opacity:1;paint-order:markers fill stroke"
         d="m 43.242527,63.77807 -2,2 -1,-1 v -1 h 2 l 2,2 h 1 l 1,-1 1,1 v 1 h -2 l -1,1 v -1 l 1,1 h 2 v 1 l -1,1 -1,-1 h -1 l -2,2 h -2 v -1 l 1,-1 2,2 h 1 l 2,-2 1,1 v 1 h -2 l -2,-2 h -1 l -1,1 -1,-1 v -1 h 2 l 1,-1 v 1 l -1,-1 h -2 v -1 l 1,-1 1,1 h 1 l 2,-2 h 2 v 1 l -1,1 -2,-2 z"
         id="path1687-6"
         inkscape:label="D0" />
      <path
         style="fill:none;fill-opacity:1;stroke:#ffffff;stroke-width:0.35;stroke-linecap:square;stroke-linejoin:miter;stroke-dasharray:none;stroke-opacity:1;paint-order:markers fill stroke"
         d="m 51.242527,63.77807 -2,2 -1,-1 v -1 h 2 l 2,2 h 1 l 1,-1 1,1 v 1 h -1 l -1,1 h -1 v -1 h 1 l 1,1 h 1 v 1 l -1,1 -1,-1 h -1 l -2,2 h -2 v -1 l 1,-1 2,2 h 1 l 2,-2 1,1 v 1 h -2 l -2,-2 h -1 l -1,1 -1,-1 v -1 h 1 l 1,-1 h 1 v 1 h -1 l -1,-1 h -1 v -1 l 1,-1 1,1 h 1 l 2,-2 h 2 v 1 l -1,1 -2,-2 z"
         id="path1687-7-8"
         sodipodi:nodetypes="ccccccccccccccccccccccccccccccccccccccccccccccccccccc"
         inkscape:label="D1" />
      <path
         style="fill:none;fill-opacity:1;stroke:#ffffff;stroke-width:0.35;stroke-linecap:square;stroke-linejoin:miter;stroke-dasharray:none;stroke-opacity:1;paint-order:markers fill stroke"
         d="m 59.242527,63.77807 -2,2 -1,-1 v -1 h 2 l 2,2 h 1 l 1,-1 1,1 v 1 l -1,1 h -2 v -1 h 2 l 1,1 v 1 l -1,1 -1,-1 h -1 l -2,2 h -2 v -1 l 1,-1 2,2 h 1 l 2,-2 1,1 v 1 h -2 l -2,-2 h -1 l -1,1 -1,-1 v -1 l 1,-1 h 2 v 1 h -2 l -1,-1 v -1 l 1,-1 1,1 h 1 l 2,-2 h 2 v 1 l -1,1 -2,-2 z"
         id="path1687-7-0-4"
         sodipodi:nodetypes="ccccccccccccccccccccccccccccccccccccccccccccccccc"
         inkscape:label="D2" />
      <path
         style="fill:none;fill-opacity:1;stroke:#ffffff;stroke-width:0.35;stroke-linecap:square;stroke-linejoin:miter;stroke-dasharray:none;stroke-opacity:1;paint-order:markers fill stroke"
         d="m 67.242527,63.77807 -2,2 -1,-1 v -1 h 2 l 2,2 h 1 l 1,-1 1,1 v 1 l -1,1 -1,-1 -1,1 v -1 l 1,1 1,-1 1,1 v 1 l -1,1 -1,-1 h -1 l -2,2 h -2 v -1 l 1,-1 2,2 h 1 l 2,-2 1,1 v 1 h -2 l -2,-2 h -1 l -1,1 -1,-1 v -1 l 1,-1 1,1 1,-1 v 1 l -1,-1 -1,1 -1,-1 v -1 l 1,-1 1,1 h 1 l 2,-2 h 2 v 1 l -1,1 -2,-2 z"
         id="path1687-7-0-9-1"
         sodipodi:nodetypes="ccccccccccccccccccccccccccccccccccccccccccccccccccccc"
         inkscape:label="D3" />
      <path
         style="fill:none;fill-opacity:1;stroke:#ffffff;stroke-width:0.35;stroke-linecap:square;stroke-linejoin:miter;stroke-dasharray:none;stroke-opacity:1;paint-order:markers fill stroke"
         d="m 40.242527,71.77807 v 1 l 1,1 1,-1 1,1 h 1 l 1,-1 1,1 1,-1 v -1 h -3 l -2,2 -1,-1 -1,1 v 1 l 1,1 h 2 v -1 h -2 l -1,1 v 1 l 1,1 1,-1 2,2 h 3 v -1 l -1,-1 -1,1 -1,-1 h -1 l -1,1 -1,-1 -1,1 v 1 h 3 l 2,-2 1,1 1,-1 v -1 l -1,-1 h -2 v 1 h 2 l 1,-1 v -1 l -1,-1 -1,1 -2,-2 z"
         id="path1768-8"
         inkscape:label="E0" />
      <path
         style="fill:none;fill-opacity:1;stroke:#ffffff;stroke-width:0.35;stroke-linecap:square;stroke-linejoin:miter;stroke-dasharray:none;stroke-opacity:1;paint-order:markers fill stroke"
         d="m 56.242527,71.77807 v 1 l 1,1 1,-1 1,1 h 1 l 1,-1 1,1 1,-1 v -1 h -3 l -2,2 -1,-1 -1,1 v 1 h 1 l 1,1 h 1 v -1 h -1 l -1,1 h -1 v 1 l 1,1 1,-1 2,2 h 3 v -1 l -1,-1 -1,1 -1,-1 h -1 l -1,1 -1,-1 -1,1 v 1 h 3 l 2,-2 1,1 1,-1 v -1 h -1 l -1,-1 h -1 v 1 h 1 l 1,-1 h 1 v -1 l -1,-1 -1,1 -2,-2 z"
         id="path1768-4-0"
         sodipodi:nodetypes="ccccccccccccccccccccccccccccccccccccccccccccccccccccc"
         inkscape:label="E2" />
      <path
         style="fill:none;fill-opacity:1;stroke:#ffffff;stroke-width:0.35;stroke-linecap:square;stroke-linejoin:miter;stroke-dasharray:none;stroke-opacity:1;paint-order:markers fill stroke"
         d="m 64.242527,71.77807 v 1 l 1,1 1,-1 1,1 h 1 l 1,-1 1,1 1,-1 v -1 h -3 l -2,2 -1,-1 -1,1 v 1 h 2 l 1,1 v -1 l -1,1 h -2 v 1 l 1,1 1,-1 2,2 h 3 v -1 l -1,-1 -1,1 -1,-1 h -1 l -1,1 -1,-1 -1,1 v 1 h 3 l 2,-2 1,1 1,-1 v -1 h -2 l -1,-1 v 1 l 1,-1 h 2 v -1 l -1,-1 -1,1 -2,-2 z"
         id="path1768-4-9-9"
         sodipodi:nodetypes="ccccccccccccccccccccccccccccccccccccccccccccccccc"
         inkscape:label="E3" />
      <path
         style="fill:none;fill-opacity:1;stroke:#ffffff;stroke-width:0.35;stroke-linecap:square;stroke-linejoin:miter;stroke-dasharray:none;stroke-opacity:1;paint-order:markers fill stroke"
         d="m 48.242527,71.77807 v 1 l 1,1 1,-1 1,1 h 1 l 1,-1 1,1 1,-1 v -1 h -3 l -2,2 -1,-1 -1,1 v 1 l 1,1 1,-1 1,1 v -1 l -1,1 -1,-1 -1,1 v 1 l 1,1 1,-1 2,2 h 3 v -1 l -1,-1 -1,1 -1,-1 h -1 l -1,1 -1,-1 -1,1 v 1 h 3 l 2,-2 1,1 1,-1 v -1 l -1,-1 -1,1 -1,-1 v 1 l 1,-1 1,1 1,-1 v -1 l -1,-1 -1,1 -2,-2 z"
         id="path1768-1-9"
         sodipodi:nodetypes="ccccccccccccccccccccccccccccccccccccccccccccccccccccc"
         inkscape:label="E1" />
      <path
         style="fill:none;fill-opacity:1;stroke:#ffffff;stroke-width:0.35;stroke-linecap:square;stroke-linejoin:miter;stroke-dasharray:none;stroke-opacity:1;paint-order:markers fill stroke"
         d="m 40.242527,79.77807 v 1 l 1,1 h 1 l 2,-2 h 1 l 2,2 v 1 h -2 v 1.000005 h 2 v 1 l -2,2 h -1 l -2,-2 h -1 l -1,1 v 1 h 1 l 3,-3 h -1 l 3,3 h 1 v -1 l -1,-1 h -1 l -2,2 h -1 l -2,-2 v -1 h 2 V 82.77807 h -2 v -1 l 2,-2 h 1 l 2,2 h 1 l 1,-1 v -1 h -1 l -3,3 h 1 l -3,-3 z"
         id="path1836-44"
         inkscape:label="F0" />
      <path
         style="fill:none;fill-opacity:1;stroke:#ffffff;stroke-width:0.35;stroke-linecap:square;stroke-linejoin:miter;stroke-dasharray:none;stroke-opacity:1;paint-order:markers fill stroke"
         d="m 56.242527,79.77807 v 1 l 1,1 h 1 l 2,-2 h 1 l 2,2 v 1 l -1,1.000005 h -1 V 82.77807 h 1 l 1,1.000005 v 1 l -2,2 h -1 l -2,-2 h -1 l -1,1 v 1 h 1 l 3,-3 h -1 l 3,3 h 1 v -1 l -1,-1 h -1 l -2,2 h -1 l -2,-2 v -1 l 1,-1.000005 h 1 v 1.000005 h -1 l -1,-1.000005 v -1 l 2,-2 h 1 l 2,2 h 1 l 1,-1 v -1 h -1 l -3,3 h 1 l -3,-3 z"
         id="path1836-4-4"
         sodipodi:nodetypes="ccccccccccccccccccccccccccccccccccccccccccccccccc"
         inkscape:label="F2" />
      <path
         style="fill:none;fill-opacity:1;stroke:#ffffff;stroke-width:0.35;stroke-linecap:square;stroke-linejoin:miter;stroke-dasharray:none;stroke-opacity:1;paint-order:markers fill stroke"
         d="m 64.242527,79.77807 v 1 l 1,1 h 1 l 2,-2 h 1 l 2,2 v 1 l -1,1.000005 -1,-1.000005 v 1.000005 l 1,-1.000005 1,1.000005 v 1 l -2,2 h -1 l -2,-2 h -1 l -1,1 v 1 h 1 l 3,-3 h -1 l 3,3 h 1 v -1 l -1,-1 h -1 l -2,2 h -1 l -2,-2 v -1 l 1,-1.000005 1,1.000005 V 82.77807 l -1,1.000005 -1,-1.000005 v -1 l 2,-2 h 1 l 2,2 h 1 l 1,-1 v -1 h -1 l -3,3 h 1 l -3,-3 z"
         id="path1836-4-6-9"
         sodipodi:nodetypes="ccccccccccccccccccccccccccccccccccccccccccccccccc"
         inkscape:label="F3" />
      <path
         style="fill:none;fill-opacity:1;stroke:#ffffff;stroke-width:0.35;stroke-linecap:square;stroke-linejoin:miter;stroke-dasharray:none;stroke-opacity:1;paint-order:markers fill stroke"
         d="m 48.242527,79.77807 v 1 l 1,1 h 1 l 2,-2 h 1 l 2,2 v 1 h -1 l -1,1.000005 V 82.77807 l 1,1.000005 h 1 v 1 l -2,2 h -1 l -2,-2 h -1 l -1,1 v 1 h 1 l 3,-3 h -1 l 3,3 h 1 v -1 l -1,-1 h -1 l -2,2 h -1 l -2,-2 v -1 h 1 l 1,-1.000005 v 1.000005 l -1,-1.000005 h -1 v -1 l 2,-2 h 1 l 2,2 h 1 l 1,-1 v -1 h -1 l -3,3 h 1 l -3,-3 z"
         id="path1836-7-0"
         sodipodi:nodetypes="ccccccccccccccccccccccccccccccccccccccccccccccccc"
         inkscape:label="F1" />
      <path
         style="fill:none;fill-opacity:1;stroke:#ffffff;stroke-width:0.35;stroke-linecap:square;stroke-linejoin:miter;stroke-dasharray:none;stroke-opacity:1;paint-order:markers fill stroke"
         d="m 40.242527,87.778075 v 1 h 1 l 1,-1 h 1 l 2,2 v 1 l 1,1.000005 v 1 h 1 v -3.000005 h -1 v 1 l -1,1.000005 v 1 l -2,2 h -1 l -1,-1 h -1 v 1 h 1 l 3,-3 h -1 l 3,3 h 1 v -1 h -1 l -1,1 h -1 l -2,-2 v -1 l -1,-1.000005 v -1 h -1 v 3.000005 h 1 v -1 l 1,-1.000005 v -1 l 2,-2 h 1 l 1,1 h 1 v -1 h -1 l -3,3 h 1 l -3,-3 z"
         id="path1998-99"
         inkscape:label="G0" />
      <path
         style="fill:none;fill-opacity:1;stroke:#ffffff;stroke-width:0.35;stroke-linecap:square;stroke-linejoin:miter;stroke-dasharray:none;stroke-opacity:1;paint-order:markers fill stroke"
         d="m 86.242523,43.77807 v 1 h 1 v -3 h -1 v 1 h -1 v -1 l -1.999996,-2 h -1 l -1,1 h -1 v -1 h 1 l 3,3 h -1 l 2.999996,-3 h 1 v 1 h -1 l -1,-1 h -0.999996 l -2,2 v 1 h -1 v -1 h -1 v 3 h 1 v -1 h 1 v 1 l 2,2 h 0.999996 l 1,-1 h 1 v 1 h -1 l -2.999996,-3 h 1 l -3,3 h -1 v -1 h 1 l 1,1 h 1 l 1.999996,-2 v -1 z"
         id="path1998-9-3"
         inkscape:label="G16"
         sodipodi:nodetypes="ccccccccccccccccccccccccccccccccccccccccccccccccc" />
      <path
         style="fill:none;fill-opacity:1;stroke:#ffffff;stroke-width:0.35;stroke-linecap:square;stroke-linejoin:miter;stroke-dasharray:none;stroke-opacity:1;paint-order:markers fill stroke"
         d="m 77.242527,83.778075 v 1 l -2,2 h -1 l -1,-1 h -1 v 1 h 1 l 3,-3 h -1 l 3,3 h 1 v -1 h -1 l -1,1 h -1 l -2,-2 v -1 l -1,1 v -1 l -1,1 V 81.77807 l 1,1 v -1 l 1,1 v -1 l 2,-2 h 1 l 1,1 h 1 v -1 h -1 l -3,3 h 1 l -3,-3 h -1 v 1 h 1 l 1,-1 h 1 l 2,2 v 1 l 1,-1 v 1 l 1,-1 v 3.000005 l -1,-1 v 1 z"
         id="path1998-9-5-7"
         inkscape:label="G17"
         sodipodi:nodetypes="cccccccccccccccccccccccccccccccccccccccccc" />
      <path
         style="fill:none;fill-opacity:1;stroke:#ffffff;stroke-width:0.35;stroke-linecap:square;stroke-linejoin:miter;stroke-dasharray:none;stroke-opacity:1;paint-order:markers fill stroke"
         d="m 85.242523,83.778075 v 1 l -1.999996,2 h -1 l -1,-1 h -1 v 1 h 1 l 3,-3 h -1 l 2.999996,3 h 1 v -1 h -1 l -1,1 h -0.999996 l -2,-2 v -1 l -1,1 -1,-1 v 1 l 1,-1 V 82.77807 l -1,-1 v 1 l 1,-1 1,1 v -1 l 2,-2 h 0.999996 l 1,1 h 1 v -1 h -1 l -2.999996,3 h 1 l -3,-3 h -1 v 1 h 1 l 1,-1 h 1 l 1.999996,2 v 1 l 1,-1 1,1 v -1 l -1,1 v 1.000005 l 1,1 v -1 l -1,1 z"
         id="path1998-9-5-8-28"
         inkscape:label="G18"
         sodipodi:nodetypes="ccccccccccccccccccccccccccccccccccccccccccccccccccccc" />
      <path
         style="fill:none;fill-opacity:1;stroke:#ffffff;stroke-width:0.35;stroke-linecap:square;stroke-linejoin:miter;stroke-dasharray:none;stroke-opacity:1;paint-order:markers fill stroke"
         d="m 77.242527,67.77807 v 1 l -2,2 h -1 l -1,-1 h -1 v 1 h 1 l 3,-3 h -1 l 3,3 h 1 v -1 h -1 l -1,1 h -1 l -2,-2 v -1 l -1,1 h -1 l 1,-1 -1,-1 v 1 l 1,-1 -1,-1 h 1 l 1,1 v -1 l 2,-2 h 1 l 1,1 h 1 v -1 h -1 l -3,3 h 1 l -3,-3 h -1 v 1 h 1 l 1,-1 h 1 l 2,2 v 1 l 1,-1 h 1 l -1,1 1,1 v -1 l -1,1 1,1 h -1 z"
         id="path1998-9-5-8-2-3"
         inkscape:label="G19"
         sodipodi:nodetypes="ccccccccccccccccccccccccccccccccccccccccccccccccccccc" />
      <path
         style="fill:none;fill-opacity:1;stroke:#ffffff;stroke-width:0.35;stroke-linecap:square;stroke-linejoin:miter;stroke-dasharray:none;stroke-opacity:1;paint-order:markers fill stroke"
         d="m 85.242523,67.77807 v 1 l -1.999996,2 h -1 l -1,-1 h -1 v 1 h 1 l 3,-3 h -1 l 2.999996,3 h 1 v -1 h -1 l -1,1 h -0.999996 l -2,-2 v -1 l -1,1 h -1 l 1,-1 h -1 v -1 h 1 l -1,-1 h 1 l 1,1 v -1 l 2,-2 h 0.999996 l 1,1 h 1 v -1 h -1 l -2.999996,3 h 1 l -3,-3 h -1 v 1 h 1 l 1,-1 h 1 l 1.999996,2 v 1 l 1,-1 h 1 l -1,1 h 1 v 1 h -1 l 1,1 h -1 z"
         id="path1998-9-5-8-2-5-7"
         inkscape:label="G20"
         sodipodi:nodetypes="ccccccccccccccccccccccccccccccccccccccccccccccccccccc" />
      <path
         style="fill:none;fill-opacity:1;stroke:#ffffff;stroke-width:0.35;stroke-linecap:square;stroke-linejoin:miter;stroke-dasharray:none;stroke-opacity:1;paint-order:markers fill stroke"
         d="m 77.242527,51.77807 v 1 l -2,2 h -1 l -1,-1 h -1 v 1 h 1 l 3,-3 h -1 l 3,3 h 1 v -1 h -1 l -1,1 h -1 l -2,-2 v -1 l -1,1 h -1 v -1 h 1 v -1 h -1 v -1 h 1 l 1,1 v -1 l 2,-2 h 1 l 1,1 h 1 v -1 h -1 l -3,3 h 1 l -3,-3 h -1 v 1 h 1 l 1,-1 h 1 l 2,2 v 1 l 1,-1 h 1 v 1 h -1 v 1 h 1 v 1 h -1 z"
         id="path1998-9-5-8-2-5-8-5"
         inkscape:label="G21"
         sodipodi:nodetypes="ccccccccccccccccccccccccccccccccccccccccccccccccccccc" />
      <path
         style="fill:none;fill-opacity:1;stroke:#ffffff;stroke-width:0.35;stroke-linecap:square;stroke-linejoin:miter;stroke-dasharray:none;stroke-opacity:1;paint-order:markers fill stroke"
         d="m 85.242523,52.77807 -1.999996,2 h -1 l -1,-1 h -1 v 1 h 1 l 3,-3 h -1 l 2.999996,3 h 1 v -1 h -1 l -1,1 h -0.999996 l -2,-2 v -1 h -1 l -1,1 h 1 l -1,-1 v -1 l 1,-1 h -1 l 1,1 h 1 v -1 l 2,-2 h 0.999996 l 1,1 h 1 v -1 h -1 l -2.999996,3 h 1 l -3,-3 h -1 v 1 h 1 l 1,-1 h 1 l 1.999996,2 v 1 h 1 l 1,-1 h -1 l 1,1 v 1 l -1,1 h 1 l -1,-1 h -1 z"
         id="path1998-8-4"
         inkscape:label="G15"
         sodipodi:nodetypes="cccccccccccccccccccccccccccccccccccccccccc" />
      <path
         style="fill:none;fill-opacity:1;stroke:#ffffff;stroke-width:0.35;stroke-linecap:square;stroke-linejoin:miter;stroke-dasharray:none;stroke-opacity:1;paint-order:markers fill stroke"
         d="m 80.242527,95.77808 v 1 h 1 l 1,-1 h 1 l 1.999996,2 v 1 l 2,2 h -1 l 1,-1 v -1 l -1,-1 h 1 l -2,2 v 1 l -1.999996,2 h -1 l -1,-1 h -1 v 1 h 1 l 3,-3 h -1 l 2.999996,3 h 1 v -1 h -1 l -1,1 h -0.999996 l -2,-2 v -1 l -2,-2 h 1 l -1,1 v 1 l 1,1 h -1 l 2,-2 v -1 l 2,-2 h 0.999996 l 1,1 h 1 v -1 h -1 l -2.999996,3 h 1 l -3,-3 z"
         id="path1998-07-7"
         sodipodi:nodetypes="ccccccccccccccccccccccccccccccccccccccccccccccccc"
         inkscape:label="G11" />
      <path
         style="fill:none;fill-opacity:1;stroke:#ffffff;stroke-width:0.35;stroke-linecap:square;stroke-linejoin:miter;stroke-dasharray:none;stroke-opacity:1;paint-order:markers fill stroke"
         d="m 72.242527,87.778075 v 1 h 1 l 1,-1 h 1 l 4,4.000005 v 1 h -1 l -1,-1 v -1.000005 l 1,-1 h 1 v 1 l -4,4.000005 h -1 l -1,-1 h -1 v 1 h 1 l 3,-3 h -1 l 3,3 h 1 v -1 h -1 l -1,1 h -1 l -4,-4.000005 v -1 h 1 l 1,1 v 1.000005 l -1,1 h -1 v -1 l 4,-4.000005 h 1 l 1,1 h 1 v -1 h -1 l -3,3 h 1 l -3,-3 z"
         id="path1998-0-0"
         sodipodi:nodetypes="ccccccccccccccccccccccccccccccccccccccccccccc"
         inkscape:label="G4" />
      <path
         style="fill:none;fill-opacity:1;stroke:#ffffff;stroke-width:0.35;stroke-linecap:square;stroke-linejoin:miter;stroke-dasharray:none;stroke-opacity:1;paint-order:markers fill stroke"
         d="m 80.242527,87.778075 v 1 h 1 l 1,-1 h 1 l 2.999996,3 h 1 v -1 h -1 l -1,1 v 1.000005 l 1,1 h 1 v -1 h -1 l -2.999996,3 h -1 l -1,-1 h -1 v 1 h 1 l 3,-3 h -1 l 2.999996,3 h 1 v -1 h -1 l -1,1 h -0.999996 l -3,-3 h -1 v 1 h 1 l 1,-1 v -1.000005 l -1,-1 h -1 v 1 h 1 l 3,-3 h 0.999996 l 1,1 h 1 v -1 h -1 l -2.999996,3 h 1 l -3,-3 z"
         id="path1998-0-4-5"
         sodipodi:nodetypes="ccccccccccccccccccccccccccccccccccccccccccccccccc"
         inkscape:label="G5" />
      <path
         style="fill:none;fill-opacity:1;stroke:#ffffff;stroke-width:0.35;stroke-linecap:square;stroke-linejoin:miter;stroke-dasharray:none;stroke-opacity:1;paint-order:markers fill stroke"
         d="m 74.242527,74.77807 v 1 h -2 v 1 h 2 l 2,2 h 1 l 1,-1 h 1 v 1 h -1 l -3,-3 h 1 l -3,3 h -1 v -1 h 1 l 1,1 h 1 l 2,-2 h 2 v -1 h -2 v -1 h 2 v -1 h -2 l -2,-2 h -1 l -1,1 h -1 v -1 h 1 l 3,3 h -1 l 3,-3 h 1 v 1 h -1 l -1,-1 h -1 l -2,2 h -2 v 1 z"
         id="path1998-0-4-07-8"
         sodipodi:nodetypes="ccccccccccccccccccccccccccccccccccccccccccccc"
         inkscape:label="G12" />
      <path
         style="fill:none;fill-opacity:1;stroke:#ffffff;stroke-width:0.35;stroke-linecap:square;stroke-linejoin:miter;stroke-dasharray:none;stroke-opacity:1;paint-order:markers fill stroke"
         d="m 82.242527,75.77807 v -1 l -1,1 h -1 v 1 h 2 l 2,2 h 0.999996 l 1,-1 h 1 v 1 h -1 l -2.999996,-3 h 1 l -3,3 h -1 v -1 h 1 l 1,1 h 1 l 1.999996,-2 h 2 v -1 h -1 l -1,-1 v 1 l 1,-1 h 1 v -1 h -2 l -1.999996,-2 h -1 l -1,1 h -1 v -1 h 1 l 3,3 h -1 l 2.999996,-3 h 1 v 1 h -1 l -1,-1 h -0.999996 l -2,2 h -2 v 1 h 1 z"
         id="path1998-0-4-07-3-8"
         sodipodi:nodetypes="ccccccccccccccccccccccccccccccccccccccccccccccccc"
         inkscape:label="G13" />
      <path
         style="fill:none;fill-opacity:1;stroke:#ffffff;stroke-width:0.35;stroke-linecap:square;stroke-linejoin:miter;stroke-dasharray:none;stroke-opacity:1;paint-order:markers fill stroke"
         d="m 73.242527,59.77807 h 1 v -1 h -1 l -1,1 v 1 h 2 l 2,2 h 1 l 1,-1 h 1 v 1 h -1 l -3,-3 h 1 l -3,3 h -1 v -1 h 1 l 1,1 h 1 l 2,-2 h 2 v -1 l -1,-1 h -1 v 1 h 1 l 1,-1 v -1 h -2 l -2,-2 h -1 l -1,1 h -1 v -1 h 1 l 3,3 h -1 l 3,-3 h 1 v 1 h -1 l -1,-1 h -1 l -2,2 h -2 v 1 z"
         id="path1998-0-4-07-3-9-1"
         sodipodi:nodetypes="ccccccccccccccccccccccccccccccccccccccccccccccccc"
         inkscape:label="G14" />
      <path
         style="fill:none;fill-opacity:1;stroke:#ffffff;stroke-width:0.35;stroke-linecap:square;stroke-linejoin:miter;stroke-dasharray:none;stroke-opacity:1;paint-order:markers fill stroke"
         d="m 81.242527,59.77807 1,-1 v 1 l -1,-1 -1,1 v 1 h 2 l 2,2 h 0.999996 l 1,-1 h 1 v 1 h -1 l -2.999996,-3 h 1 l -3,3 h -1 v -1 h 1 l 1,1 h 1 l 1.999996,-2 h 2 v -1 l -1,-1 -1,1 v -1 l 1,1 1,-1 v -1 h -2 l -1.999996,-2 h -1 l -1,1 h -1 v -1 h 1 l 3,3 h -1 l 2.999996,-3 h 1 v 1 h -1 l -1,-1 h -0.999996 l -2,2 h -2 v 1 z"
         id="path1998-0-4-07-3-9-7-7"
         sodipodi:nodetypes="ccccccccccccccccccccccccccccccccccccccccccccccccc"
         inkscape:label="G14" />
      <path
         style="fill:none;fill-opacity:1;stroke:#ffffff;stroke-width:0.35;stroke-linecap:square;stroke-linejoin:miter;stroke-dasharray:none;stroke-opacity:1;paint-order:markers fill stroke"
         d="m 40.242527,95.77808 v 1 h 1 l 1,-1 h 1 l 3,3 1,-1 v 1 l -1,-1 -1,1 v 1 l 1,1 1,-1 v 1 l -1,-1 -3,3 h -1 l -1,-1 h -1 v 1 h 1 l 3,-3 h -1 l 3,3 h 1 v -1 h -1 l -1,1 h -1 l -3,-3 -1,1 v -1 l 1,1 1,-1 v -1 l -1,-1 -1,1 v -1 l 1,1 3,-3 h 1 l 1,1 h 1 v -1 h -1 l -3,3 h 1 l -3,-3 z"
         id="path1998-0-4-0-86"
         sodipodi:nodetypes="ccccccccccccccccccccccccccccccccccccccccccccccccc"
         inkscape:label="G6" />
      <path
         style="fill:none;fill-opacity:1;stroke:#ffffff;stroke-width:0.35;stroke-linecap:square;stroke-linejoin:miter;stroke-dasharray:none;stroke-opacity:1;paint-order:markers fill stroke"
         d="m 69.242527,100.77808 -2,2 h -1 l -1,-1 h -1 v 1 h 1 l 3,-3 h -1 l 3,3 h 1 v -1 h -1 l -1,1 h -1 l -2,-2 h -1 l -1,-1 v 1 l 1,-1 h 1 v -1 h -1 l -1,-1 v 1 l 1,-1 h 1 l 2,-2 h 1 l 1,1 h 1 v -1 h -1 l -3,3 h 1 l -3,-3 h -1 v 1 h 1 l 1,-1 h 1 l 2,2 h 1 l 1,1 v -1 l -1,1 h -1 v 1 h 1 l 1,1 v -1 l -1,1 z"
         id="path1998-0-4-0-8-54"
         sodipodi:nodetypes="ccccccccccccccccccccccccccccccccccccccccccccccccccccc"
         inkscape:label="G9" />
      <path
         style="fill:none;fill-opacity:1;stroke:#ffffff;stroke-width:0.35;stroke-linecap:square;stroke-linejoin:miter;stroke-dasharray:none;stroke-opacity:1;paint-order:markers fill stroke"
         d="m 77.242527,100.77808 -2,2 h -1 l -1,-1 h -1 v 1 h 1 l 3,-3 h -1 l 3,3 h 1 v -1 h -1 l -1,1 h -1 l -2,-2 h -1 l -1,-1 v 1 l 2,-2 v 1 l -2,-2 v 1 l 1,-1 h 1 l 2,-2 h 1 l 1,1 h 1 v -1 h -1 l -3,3 h 1 l -3,-3 h -1 v 1 h 1 l 1,-1 h 1 l 2,2 h 1 l 1,1 v -1 l -2,2 v -1 l 2,2 v -1 l -1,1 z"
         id="path1998-0-4-0-8-5-4"
         sodipodi:nodetypes="ccccccccccccccccccccccccccccccccccccccccccccccccc"
         inkscape:label="G10" />
      <path
         style="fill:none;fill-opacity:1;stroke:#ffffff;stroke-width:0.35;stroke-linecap:square;stroke-linejoin:miter;stroke-dasharray:none;stroke-opacity:1;paint-order:markers fill stroke"
         d="m 62.242527,91.77808 -1,1 -2,2 h -1 l -1,-1 h -1 v 1 h 1 l 3,-3 h -1 l 3,3 h 1 v -1 h -1 l -1,1 h -1 l -2,-2 -1,-1 h 1 l -1,1 h -1 v -3.000005 h 1 l 1,1 h -1 l 1,-1 2,-2 h 1 l 1,1 h 1 v -1 h -1 l -3,3 h 1 l -3,-3 h -1 v 1 h 1 l 1,-1 h 1 l 2,2 1,1 h -1 l 1,-1 h 1 v 3.000005 h -1 l -1,-1 z"
         id="path1998-5-6"
         sodipodi:nodetypes="ccccccccccccccccccccccccccccccccccccccccccccccccc"
         inkscape:label="G2" />
      <path
         style="fill:none;fill-opacity:1;stroke:#ffffff;stroke-width:0.35;stroke-linecap:square;stroke-linejoin:miter;stroke-dasharray:none;stroke-opacity:1;paint-order:markers fill stroke"
         d="m 48.242527,87.778075 v 1 h 1 l 1,-1 h 1 l 2,2 v 1 l 1,-1 h 1 v 1 l -1,1.000005 v -1.000005 l 1,1.000005 v 1 h -1 l -1,-1 v 1 l -2,2 h -1 l -1,-1 h -1 v 1 h 1 l 3,-3 h -1 l 3,3 h 1 v -1 h -1 l -1,1 h -1 l -2,-2 v -1 l -1,1 h -1 v -1 l 1,-1.000005 v 1.000005 l -1,-1.000005 v -1 h 1 l 1,1 v -1 l 2,-2 h 1 l 1,1 h 1 v -1 h -1 l -3,3 h 1 l -3,-3 z"
         id="path1998-2-0"
         sodipodi:nodetypes="ccccccccccccccccccccccccccccccccccccccccccccccccccccc"
         inkscape:label="G1" />
      <path
         style="fill:none;fill-opacity:1;stroke:#ffffff;stroke-width:0.35;stroke-linecap:square;stroke-linejoin:miter;stroke-dasharray:none;stroke-opacity:1;paint-order:markers fill stroke"
         d="m 64.242527,87.778075 v 1 h 1 l 1,-1 h 1 l 3,3 -1,1.000005 1,1 h 1 v -3.000005 h -1 l -1,1 1,1.000005 -1,1 -2,2 h -1 l -1,-1 h -1 v 1 h 1 l 3,-3 h -1 l 3,3 h 1 v -1 h -1 l -1,1 h -1 l -2,-2 -1,-1 1,-1.000005 -1,-1 h -1 v 3.000005 h 1 l 1,-1 -1,-1.000005 3,-3 h 1 l 1,1 h 1 v -1 h -1 l -3,3 h 1 l -3,-3 z"
         id="path1998-23-5"
         sodipodi:nodetypes="ccccccccccccccccccccccccccccccccccccccccccccccc"
         inkscape:label="G3" />
      <path
         style="fill:none;fill-opacity:1;stroke:#ffffff;stroke-width:0.35;stroke-linecap:square;stroke-linejoin:miter;stroke-dasharray:none;stroke-opacity:1;paint-order:markers fill stroke"
         d="m 48.242527,95.77808 v 1 h 1 l 1,-1 h 1 l 2,2 h 1 l -1,1 2,2 v -3 l -2,2 1,1 h -1 l -2,2 h -1 l -1,-1 h -1 v 1 h 1 l 3,-3 h -1 l 3,3 h 1 v -1 h -1 l -1,1 h -1 l -2,-2 h -1 l 1,-1 -2,-2 v 3 l 2,-2 -1,-1 h 1 l 2,-2 h 1 l 1,1 h 1 v -1 h -1 l -3,3 h 1 l -3,-3 z"
         id="path1998-23-7-3"
         sodipodi:nodetypes="ccccccccccccccccccccccccccccccccccccccccccccc"
         inkscape:label="G7" />
      <path
         style="fill:none;fill-opacity:1;stroke:#ffffff;stroke-width:0.35;stroke-linecap:square;stroke-linejoin:miter;stroke-dasharray:none;stroke-opacity:1;paint-order:markers fill stroke"
         d="m 61.242527,99.77808 1,1 h -1 l -2,2 h -1 l -1,-1 h -1 v 1 h 1 l 3,-3 h -1 l 3,3 h 1 v -1 h -1 l -1,1 h -1 l -2,-2 h -1 l 1,-1 h -1 l -1,1 v -3 l 1,1 h 1 l -1,-1 h 1 l 2,-2 h 1 l 1,1 h 1 v -1 h -1 l -3,3 h 1 l -3,-3 h -1 v 1 h 1 l 1,-1 h 1 l 2,2 h 1 l -1,1 h 1 l 1,-1 v 3 l -1,-1 z"
         id="path1998-23-7-1-7"
         sodipodi:nodetypes="ccccccccccccccccccccccccccccccccccccccccccccccccc"
         inkscape:label="G8" />
    </g>
  </g>
  <g
     inkscape:groupmode="layer"
     id="layer2"
     inkscape:label="grid">
    <path
       style="fill:#00d913;stroke:#ffffff;stroke-width:0.25;stroke-linecap:square;stroke-dasharray:none;stroke-opacity:1;paint-order:markers fill stroke"
       d="M 157.48,37.795001 V 995.275"
       id="path2288" />
    <path
       style="fill:#00d913;stroke:#ffffff;stroke-width:0.25;stroke-linecap:square;stroke-dasharray:none;stroke-opacity:1;paint-order:markers fill stroke"
       d="M 277.165,37.795001 V 995.275"
       id="path2290" />
    <path
       style="fill:#00d913;stroke:#ffffff;stroke-width:0.25;stroke-linecap:square;stroke-dasharray:none;stroke-opacity:1;paint-order:markers fill stroke"
       d="M 396.85,995.275 V 37.795001"
       id="path2292" />
    <path
       style="fill:#00d913;stroke:#ffffff;stroke-width:0.25;stroke-linecap:square;stroke-dasharray:none;stroke-opacity:1;paint-order:markers fill stroke"
       d="M 516.535,37.795001 V 995.275"
       id="path2294" />
    <path
       style="fill:#00d913;stroke:#ffffff;stroke-width:0.25;stroke-linecap:square;stroke-dasharray:none;stroke-opacity:1;paint-order:markers fill stroke"
       d="M 636.22,995.275 V 37.795001"
       id="path2296" />
    <path
       style="fill:#00d913;stroke:#ffffff;stroke-width:0.25;stroke-linecap:square;stroke-dasharray:none;stroke-opacity:1;paint-order:markers fill stroke"
       d="M 755.905,157.48 H 37.795001"
       id="path2298" />
    <path
       style="fill:#00d913;stroke:#ffffff;stroke-width:0.25;stroke-linecap:square;stroke-dasharray:none;stroke-opacity:1;paint-order:markers fill stroke"
       d="M 37.795001,277.165 H 755.905"
       id="path2300" />
    <path
       style="fill:#00d913;stroke:#ffffff;stroke-width:0.25;stroke-linecap:square;stroke-dasharray:none;stroke-opacity:1;paint-order:markers fill stroke"
       d="M 755.905,396.85 H 37.795001"
       id="path2302" />
    <path
       style="fill:#00d913;stroke:#ffffff;stroke-width:0.25;stroke-linecap:square;stroke-dasharray:none;stroke-opacity:1;paint-order:markers fill stroke"
       d="M 37.795001,516.535 H 755.905"
       id="path2304" />
    <path
       style="fill:#00d913;stroke:#ffffff;stroke-width:0.25;stroke-linecap:square;stroke-dasharray:none;stroke-opacity:1;paint-order:markers fill stroke"
       d="M 755.905,636.22 H 37.795001"
       id="path2306" />
    <path
       style="fill:#00d913;stroke:#ffffff;stroke-width:0.25;stroke-linecap:square;stroke-dasharray:none;stroke-opacity:1;paint-order:markers fill stroke"
       d="M 37.795001,755.905 H 755.905"
       id="path2308" />
    <path
       style="fill:#00d913;stroke:#ffffff;stroke-width:0.25;stroke-linecap:square;stroke-dasharray:none;stroke-opacity:1;paint-order:markers fill stroke"
       d="M 755.905,875.59 H 37.795001"
       id="path2310" />
  </g>
</svg>
