<?xml version="1.0" encoding="UTF-8" standalone="no"?>
<!-- Created with Inkscape (http://www.inkscape.org/) -->

<svg
   width="1366"
   height="768"
   viewBox="0 0 1366 768"
   version="1.1"
   id="svg5"
   inkscape:version="1.2.2 (732a01da63, 2022-12-09)"
   sodipodi:docname="mkt.svg"
   xmlns:inkscape="http://www.inkscape.org/namespaces/inkscape"
   xmlns:sodipodi="http://sodipodi.sourceforge.net/DTD/sodipodi-0.dtd"
   xmlns="http://www.w3.org/2000/svg"
   xmlns:svg="http://www.w3.org/2000/svg">
  <sodipodi:namedview
     id="namedview7"
     pagecolor="#ffffff"
     bordercolor="#000000"
     borderopacity="0.25"
     inkscape:showpageshadow="2"
     inkscape:pageopacity="0.0"
     inkscape:pagecheckerboard="0"
     inkscape:deskcolor="#d1d1d1"
     inkscape:document-units="px"
     showgrid="false"
     inkscape:zoom="0.43457604"
     inkscape:cx="66.731704"
     inkscape:cy="283.03447"
     inkscape:window-width="1366"
     inkscape:window-height="697"
     inkscape:window-x="-8"
     inkscape:window-y="-8"
     inkscape:window-maximized="1"
     inkscape:current-layer="layer1" />
  <defs
     id="defs2" />
  <g
     inkscape:label="Layer 1"
     inkscape:groupmode="layer"
     id="layer1">
    <rect
       style="fill:#0e0c0a;fill-opacity:1;stroke:none;stroke-width:6;stroke-linecap:square;stroke-linejoin:bevel;stroke-opacity:1;paint-order:markers fill stroke"
       id="rect887"
       width="48"
       height="64"
       x="0"
       y="0"
       inkscape:export-filename="tours.png"
       inkscape:export-xdpi="1440"
       inkscape:export-ydpi="1440" />
    <path
       style="fill:none;fill-opacity:1;stroke:#ffffff;stroke-width:0.35;stroke-linecap:square;stroke-linejoin:miter;stroke-dasharray:none;stroke-opacity:1;paint-order:markers fill stroke"
       d="M 11.49999,0.4999958 H 8.4999899 v 1 l 1,1 1.0000001,-1 h 1 l 1,1 h 1 l 1,-1 1,1 v 1 h -3 v 1 h 3 v 1 l -1,1 -1,-1 h -1 l -1,1 h -1 l -1.0000001,-1 -1,1 v 1 H 15.49999 v -1 l -1,-1 -1,1 h -1 l -1,-1 h -1 l -1.0000001,1 -1,-1 v -1 H 11.49999 v -1 H 8.4999899 v -1 l 1,-1 1.0000001,1 h 1 l 1,-1 h 1 l 1,1 1,-1 v -1 h -3 z"
       id="path1429-1"
       sodipodi:nodetypes="ccccccccccccccccccccccccccccccccccccccccccccccc"
       inkscape:label="A0" />
    <path
       style="fill:none;fill-opacity:1;stroke:#ffffff;stroke-width:0.35;stroke-linecap:square;stroke-linejoin:miter;stroke-dasharray:none;stroke-opacity:1;paint-order:markers fill stroke"
       d="m 27.49999,0.4999958 h -3 v 1 l 1,1 1,-1 h 1 l 1,1 h 1 l 1,-1 1,1 v 1 l -1,1 h -1 l -1,-1 v 1 l 1,-1 h 1 l 1,1 v 1 l -1,1 -1,-1 h -1 l -1,1 h -1 l -1,-1 -1,1 v 1 h 7 v -1 l -1,-1 -1,1 h -1 l -1,-1 h -1 l -1,1 -1,-1 v -1 l 1,-1 h 1 l 1,1 v -1 l -1,1 h -1 l -1,-1 v -1 l 1,-1 1,1 h 1 l 1,-1 h 1 l 1,1 1,-1 v -1 h -3 z"
       id="path1429-6-0"
       sodipodi:nodetypes="ccccccccccccccccccccccccccccccccccccccccccccccccccccccc"
       inkscape:label="A2" />
    <path
       style="fill:none;fill-opacity:1;stroke:#ffffff;stroke-width:0.35;stroke-linecap:square;stroke-linejoin:miter;stroke-dasharray:none;stroke-opacity:1;paint-order:markers fill stroke"
       d="M 3.4999899,8.4999958 H 0.49998989 v 1 l 1.00000001,1.0000002 1,-1.0000002 h 1 l 1,1.0000002 h 1 l 1,-1.0000002 1,1.0000002 v 1 h -1 l -1,1 -1,-1 v 1 l 1,-1 1,1 h 1 v 1 l -1,1 -1,-1 h -1 l -1,1 h -1 l -1,-1 -1.00000001,1 v 1 H 7.4999899 v -1 l -1,-1 -1,1 h -1 l -1,-1 h -1 l -1,1 -1.00000001,-1 v -1 H 1.4999899 l 1,-1 1,1 v -1 l -1,1 -1,-1 H 0.49998989 v -1 l 1.00000001,-1.0000002 1,1.0000002 h 1 l 1,-1.0000002 h 1 l 1,1.0000002 1,-1.0000002 v -1 h -3 z"
       id="path1429-6-2-3"
       sodipodi:nodetypes="ccccccccccccccccccccccccccccccccccccccccccccccccccccccc"
       inkscape:label="A4" />
    <path
       style="fill:none;fill-opacity:1;stroke:#ffffff;stroke-width:0.35;stroke-linecap:square;stroke-linejoin:miter;stroke-dasharray:none;stroke-opacity:1;paint-order:markers fill stroke"
       d="m 19.49999,0.4999958 h -3 v 1 l 1,1 1,-1 1,1 1,-1 1,1 1,-1 1,1 v 1 h -3 v 1 h 3 v 1 l -1,1 -1,-1 -1,1 -1,-1 -1,1 -1,-1 -1,1 v 1 h 7 v -1 l -1,-1 -1,1 -1,-1 -1,1 -1,-1 -1,1 -1,-1 v -1 h 3 v -1 h -3 v -1 l 1,-1 1,1 1,-1 1,1 1,-1 1,1 1,-1 v -1 h -3 z"
       id="path1431-24"
       sodipodi:nodetypes="ccccccccccccccccccccccccccccccccccccccccccccccc"
       inkscape:label="A1" />
    <path
       style="fill:none;fill-opacity:1;stroke:#ffffff;stroke-width:0.35;stroke-linecap:square;stroke-linejoin:miter;stroke-dasharray:none;stroke-opacity:1;paint-order:markers fill stroke"
       d="m 35.49999,0.4999958 h -3 v 1 l 1,1 1,-1 1,1 1,-1 1,1 1,-1 1,1 v 1 l -1,1 h -1 l -1,-1 v 1 l 1,-1 h 1 l 1,1 v 1 l -1,1 -1,-1 -1,1 -1,-1 -1,1 -1,-1 -1,1 v 1 h 7 v -1 l -1,-1 -1,1 -1,-1 -1,1 -1,-1 -1,1 -1,-1 v -1 l 1,-1 h 1 l 1,1 v -1 l -1,1 h -1 l -1,-1 v -1 l 1,-1 1,1 1,-1 1,1 1,-1 1,1 1,-1 v -1 h -3 z"
       id="path1431-2-2"
       sodipodi:nodetypes="ccccccccccccccccccccccccccccccccccccccccccccccccccccccc"
       inkscape:label="A3" />
    <path
       style="fill:none;fill-opacity:1;stroke:#ffffff;stroke-width:0.35;stroke-linecap:square;stroke-linejoin:miter;stroke-dasharray:none;stroke-opacity:1;paint-order:markers fill stroke"
       d="M 11.49999,8.4999958 H 8.4999899 v 1 l 1,1.0000002 1.0000001,-1.0000002 1,1.0000002 1,-1.0000002 1,1.0000002 1,-1.0000002 1,1.0000002 v 1 h -1 l -1,1 -1,-1 v 1 l 1,-1 1,1 h 1 v 1 l -1,1 -1,-1 -1,1 -1,-1 -1,1 -1.0000001,-1 -1,1 v 1 H 15.49999 v -1 l -1,-1 -1,1 -1,-1 -1,1 -1,-1 -1.0000001,1 -1,-1 v -1 h 1 l 1.0000001,-1 1,1 v -1 l -1,1 -1.0000001,-1 h -1 v -1 l 1,-1.0000002 1.0000001,1.0000002 1,-1.0000002 1,1.0000002 1,-1.0000002 1,1.0000002 1,-1.0000002 v -1 h -3 z"
       id="path1431-2-7-8"
       sodipodi:nodetypes="ccccccccccccccccccccccccccccccccccccccccccccccccccccccc"
       inkscape:label="A5" />
    <path
       style="fill:none;fill-opacity:1;stroke:#ffffff;stroke-width:0.35;stroke-linecap:square;stroke-linejoin:miter;stroke-dasharray:none;stroke-opacity:1;paint-order:markers fill stroke"
       d="m 19.49999,8.4999958 h -3 v 1 l 1,1.0000002 1,-1.0000002 h 1 l 1,1.0000002 h 1 l 1,-1.0000002 1,1.0000002 v 1 l -1,1 -1,-1 h -1 v 1 h 1 l 1,-1 1,1 v 1 l -1,1 -1,-1 h -1 l -1,1 h -1 l -1,-1 -1,1 v 1 h 7 v -1 l -1,-1 -1,1 h -1 l -1,-1 h -1 l -1,1 -1,-1 v -1 l 1,-1 1,1 h 1 v -1 h -1 l -1,1 -1,-1 v -1 l 1,-1.0000002 1,1.0000002 h 1 l 1,-1.0000002 h 1 l 1,1.0000002 1,-1.0000002 v -1 h -3 z"
       id="path1429-6-2-2-8"
       sodipodi:nodetypes="ccccccccccccccccccccccccccccccccccccccccccccccccccccccc"
       inkscape:label="A6" />
    <path
       style="fill:none;fill-opacity:1;stroke:#ffffff;stroke-width:0.35;stroke-linecap:square;stroke-linejoin:miter;stroke-dasharray:none;stroke-opacity:1;paint-order:markers fill stroke"
       d="m 27.49999,8.4999958 h -3 v 1 l 1,1.0000002 1,-1.0000002 1,1.0000002 1,-1.0000002 1,1.0000002 1,-1.0000002 1,1.0000002 v 1 l -1,1 -1,-1 h -1 v 1 h 1 l 1,-1 1,1 v 1 l -1,1 -1,-1 -1,1 -1,-1 -1,1 -1,-1 -1,1 v 1 h 7 v -1 l -1,-1 -1,1 -1,-1 -1,1 -1,-1 -1,1 -1,-1 v -1 l 1,-1 1,1 h 1 v -1 h -1 l -1,1 -1,-1 v -1 l 1,-1.0000002 1,1.0000002 1,-1.0000002 1,1.0000002 1,-1.0000002 1,1.0000002 1,-1.0000002 v -1 h -3 z"
       id="path1431-2-7-5-1"
       sodipodi:nodetypes="ccccccccccccccccccccccccccccccccccccccccccccccccccccccc"
       inkscape:label="A7" />
    <path
       style="fill:none;fill-opacity:1;stroke:#ffffff;stroke-width:0.35;stroke-linecap:square;stroke-linejoin:miter;stroke-dasharray:none;stroke-opacity:1;paint-order:markers fill stroke"
       d="M 3.4999899,16.499996 H 0.49998989 v 1 l 1.00000001,1 1,-1 h 1 l 1,1 v 1 h 2 l -1,-1 1,-1 1,1 v 3 l -1,1 -1,-1 1,-1 h -2 v 1 l -1,1 h -1 l -1,-1 -1.00000001,1 v 1 H 7.4999899 v -1 l -1,-1 -1,1 h -1 l -1,-1 v -1 h -2 l 1,1 -1,1 -1.00000001,-1 v -3 l 1.00000001,-1 1,1 -1,1 h 2 v -1 l 1,-1 h 1 l 1,1 1,-1 v -1 h -3 z"
       id="path1644-0"
       sodipodi:nodetypes="ccccccccccccccccccccccccccccccccccccccccccccccc"
       inkscape:label="B0" />
    <path
       style="fill:none;fill-opacity:1;stroke:#ffffff;stroke-width:0.35;stroke-linecap:square;stroke-linejoin:miter;stroke-dasharray:none;stroke-opacity:1;paint-order:markers fill stroke"
       d="M 11.49999,16.499996 H 8.4999899 v 1 l 1,1 1.0000001,-1 h 1 l 1,1 v 1 l 1,1 1,-1 -1,-1 1,-1 1,1 v 3 l -1,1 -1,-1 1,-1 -1,-1 -1,1 v 1 l -1,1 h -1 l -1.0000001,-1 -1,1 v 1 H 15.49999 v -1 l -1,-1 -1,1 h -1 l -1,-1 v -1 l -1,-1 -1.0000001,1 1.0000001,1 -1.0000001,1 -1,-1 v -3 l 1,-1 1.0000001,1 -1.0000001,1 1.0000001,1 1,-1 v -1 l 1,-1 h 1 l 1,1 1,-1 v -1 h -3 z"
       id="path1646-2"
       sodipodi:nodetypes="ccccccccccccccccccccccccccccccccccccccccccccccccccc"
       inkscape:label="B1" />
    <path
       style="fill:none;fill-opacity:1;stroke:#ffffff;stroke-width:0.35;stroke-linecap:square;stroke-linejoin:miter;stroke-dasharray:none;stroke-opacity:1;paint-order:markers fill stroke"
       d="m 20.49999,17.499996 -1,-1 h -1 l -2,2 v 1 l 2,2 1,-1 3,3 h 1 v -1 l -2,-2 v -1 l 2,-2 v -1 h -1 l -3,3 -1,-1 -2,2 v 1 l 2,2 h 1 l 1,-1 h -1 l 1,1 h 1 l 2,-2 v -1 l -2,-2 -1,1 -3,-3 h -1 v 1 l 2,2 v 1 l -2,2 v 1 h 1 l 3,-3 1,1 2,-2 v -1 l -2,-2 h -1 l -1,1 z"
       id="path1663-7"
       sodipodi:nodetypes="ccccccccccccccccccccccccccccccccccccccccccccc"
       inkscape:label="C0" />
    <path
       style="fill:none;fill-opacity:1;stroke:#ffffff;stroke-width:0.35;stroke-linecap:square;stroke-linejoin:miter;stroke-dasharray:none;stroke-opacity:1;paint-order:markers fill stroke"
       d="m 28.49999,16.499996 -1,1 -1,-1 -2,2 v 1 l 2,2 1,-1 3,3 h 1 v -1 l -2,-2 v -1 l 2,-2 v -1 h -1 l -3,3 -1,-1 -2,2 v 1 l 2,2 1,-1 1,1 h -1 l 1,-1 1,1 2,-2 v -1 l -2,-2 -1,1 -3,-3 h -1 v 1 l 2,2 v 1 l -2,2 v 1 h 1 l 3,-3 1,1 2,-2 v -1 l -2,-2 -1,1 -1,-1 z"
       id="path1663-4-6"
       sodipodi:nodetypes="ccccccccccccccccccccccccccccccccccccccccccccc"
       inkscape:label="C1" />
    <path
       style="fill:none;fill-opacity:1;stroke:#ffffff;stroke-width:0.35;stroke-linecap:square;stroke-linejoin:miter;stroke-dasharray:none;stroke-opacity:1;paint-order:markers fill stroke"
       d="m 3.4999899,24.499996 -2,2 -1.00000001,-1 v -1 H 2.4999899 l 2,2 h 1 l 1,-1 1,1 v 1 h -2 l -1,1 v -1 l 1,1 h 2 v 1 l -1,1 -1,-1 h -1 l -2,2 H 0.49998989 v -1 l 1.00000001,-1 2,2 h 1 l 2,-2 1,1 v 1 h -2 l -2,-2 h -1 l -1,1 -1.00000001,-1 v -1 H 2.4999899 l 1,-1 v 1 l -1,-1 H 0.49998989 v -1 l 1.00000001,-1 1,1 h 1 l 2,-2 h 2 v 1 l -1,1 -2,-2 z"
       id="path1687-6"
       inkscape:label="D0" />
    <path
       style="fill:none;fill-opacity:1;stroke:#ffffff;stroke-width:0.35;stroke-linecap:square;stroke-linejoin:miter;stroke-dasharray:none;stroke-opacity:1;paint-order:markers fill stroke"
       d="m 11.49999,24.499996 -2.0000001,2 -1,-1 v -1 H 10.49999 l 2,2 h 1 l 1,-1 1,1 v 1 h -1 l -1,1 h -1 v -1 h 1 l 1,1 h 1 v 1 l -1,1 -1,-1 h -1 l -2,2 H 8.4999899 v -1 l 1,-1 2.0000001,2 h 1 l 2,-2 1,1 v 1 h -2 l -2,-2 h -1 l -1.0000001,1 -1,-1 v -1 h 1 l 1.0000001,-1 h 1 v 1 h -1 l -1.0000001,-1 h -1 v -1 l 1,-1 1.0000001,1 h 1 l 2,-2 h 2 v 1 l -1,1 -2,-2 z"
       id="path1687-7-8"
       sodipodi:nodetypes="ccccccccccccccccccccccccccccccccccccccccccccccccccccc"
       inkscape:label="D1" />
    <path
       style="fill:none;fill-opacity:1;stroke:#ffffff;stroke-width:0.35;stroke-linecap:square;stroke-linejoin:miter;stroke-dasharray:none;stroke-opacity:1;paint-order:markers fill stroke"
       d="m 19.49999,24.499996 -2,2 -1,-1 v -1 h 2 l 2,2 h 1 l 1,-1 1,1 v 1 l -1,1 h -2 v -1 h 2 l 1,1 v 1 l -1,1 -1,-1 h -1 l -2,2 h -2 v -1 l 1,-1 2,2 h 1 l 2,-2 1,1 v 1 h -2 l -2,-2 h -1 l -1,1 -1,-1 v -1 l 1,-1 h 2 v 1 h -2 l -1,-1 v -1 l 1,-1 1,1 h 1 l 2,-2 h 2 v 1 l -1,1 -2,-2 z"
       id="path1687-7-0-4"
       sodipodi:nodetypes="ccccccccccccccccccccccccccccccccccccccccccccccccc"
       inkscape:label="D2" />
    <path
       style="fill:none;fill-opacity:1;stroke:#ffffff;stroke-width:0.35;stroke-linecap:square;stroke-linejoin:miter;stroke-dasharray:none;stroke-opacity:1;paint-order:markers fill stroke"
       d="m 27.49999,24.499996 -2,2 -1,-1 v -1 h 2 l 2,2 h 1 l 1,-1 1,1 v 1 l -1,1 -1,-1 -1,1 v -1 l 1,1 1,-1 1,1 v 1 l -1,1 -1,-1 h -1 l -2,2 h -2 v -1 l 1,-1 2,2 h 1 l 2,-2 1,1 v 1 h -2 l -2,-2 h -1 l -1,1 -1,-1 v -1 l 1,-1 1,1 1,-1 v 1 l -1,-1 -1,1 -1,-1 v -1 l 1,-1 1,1 h 1 l 2,-2 h 2 v 1 l -1,1 -2,-2 z"
       id="path1687-7-0-9-1"
       sodipodi:nodetypes="ccccccccccccccccccccccccccccccccccccccccccccccccccccc"
       inkscape:label="D3" />
    <path
       style="fill:none;fill-opacity:1;stroke:#ffffff;stroke-width:0.35;stroke-linecap:square;stroke-linejoin:miter;stroke-dasharray:none;stroke-opacity:1;paint-order:markers fill stroke"
       d="m 0.49998989,32.499996 v 1 l 1.00000001,1 1,-1 1,1 h 1 l 1,-1 1,1 1,-1 v -1 h -3 l -2,2 -1,-1 -1.00000001,1 v 1 l 1.00000001,1 h 2 v -1 h -2 l -1.00000001,1 v 1 l 1.00000001,1 1,-1 2,2 h 3 v -1 l -1,-1 -1,1 -1,-1 h -1 l -1,1 -1,-1 -1.00000001,1 v 1 H 3.4999899 l 2,-2 1,1 1,-1 v -1 l -1,-1 h -2 v 1 h 2 l 1,-1 v -1 l -1,-1 -1,1 -2,-2 z"
       id="path1768-8"
       inkscape:label="E0" />
    <path
       style="fill:none;fill-opacity:1;stroke:#ffffff;stroke-width:0.35;stroke-linecap:square;stroke-linejoin:miter;stroke-dasharray:none;stroke-opacity:1;paint-order:markers fill stroke"
       d="m 16.49999,32.499996 v 1 l 1,1 1,-1 1,1 h 1 l 1,-1 1,1 1,-1 v -1 h -3 l -2,2 -1,-1 -1,1 v 1 h 1 l 1,1 h 1 v -1 h -1 l -1,1 h -1 v 1 l 1,1 1,-1 2,2 h 3 v -1 l -1,-1 -1,1 -1,-1 h -1 l -1,1 -1,-1 -1,1 v 1 h 3 l 2,-2 1,1 1,-1 v -1 h -1 l -1,-1 h -1 v 1 h 1 l 1,-1 h 1 v -1 l -1,-1 -1,1 -2,-2 z"
       id="path1768-4-0"
       sodipodi:nodetypes="ccccccccccccccccccccccccccccccccccccccccccccccccccccc"
       inkscape:label="E2" />
    <path
       style="fill:none;fill-opacity:1;stroke:#ffffff;stroke-width:0.35;stroke-linecap:square;stroke-linejoin:miter;stroke-dasharray:none;stroke-opacity:1;paint-order:markers fill stroke"
       d="m 24.49999,32.499996 v 1 l 1,1 1,-1 1,1 h 1 l 1,-1 1,1 1,-1 v -1 h -3 l -2,2 -1,-1 -1,1 v 1 h 2 l 1,1 v -1 l -1,1 h -2 v 1 l 1,1 1,-1 2,2 h 3 v -1 l -1,-1 -1,1 -1,-1 h -1 l -1,1 -1,-1 -1,1 v 1 h 3 l 2,-2 1,1 1,-1 v -1 h -2 l -1,-1 v 1 l 1,-1 h 2 v -1 l -1,-1 -1,1 -2,-2 z"
       id="path1768-4-9-9"
       sodipodi:nodetypes="ccccccccccccccccccccccccccccccccccccccccccccccccc"
       inkscape:label="E3" />
    <path
       style="fill:none;fill-opacity:1;stroke:#ffffff;stroke-width:0.35;stroke-linecap:square;stroke-linejoin:miter;stroke-dasharray:none;stroke-opacity:1;paint-order:markers fill stroke"
       d="m 8.4999899,32.499996 v 1 l 1,1 1.0000001,-1 1,1 h 1 l 1,-1 1,1 1,-1 v -1 h -3 l -2,2 -1.0000001,-1 -1,1 v 1 l 1,1 1.0000001,-1 1,1 v -1 l -1,1 -1.0000001,-1 -1,1 v 1 l 1,1 1.0000001,-1 2,2 h 3 v -1 l -1,-1 -1,1 -1,-1 h -1 l -1,1 -1.0000001,-1 -1,1 v 1 H 11.49999 l 2,-2 1,1 1,-1 v -1 l -1,-1 -1,1 -1,-1 v 1 l 1,-1 1,1 1,-1 v -1 l -1,-1 -1,1 -2,-2 z"
       id="path1768-1-9"
       sodipodi:nodetypes="ccccccccccccccccccccccccccccccccccccccccccccccccccccc"
       inkscape:label="E1" />
    <path
       style="fill:none;fill-opacity:1;stroke:#ffffff;stroke-width:0.35;stroke-linecap:square;stroke-linejoin:miter;stroke-dasharray:none;stroke-opacity:1;paint-order:markers fill stroke"
       d="m 0.49998989,40.499996 v 1 l 1.00000001,1 h 1 l 2,-2 h 1 l 2,2 v 1 h -2 v 1 h 2 v 1 l -2,2 h -1 l -2,-2 h -1 l -1.00000001,1 v 1 H 1.4999899 l 3,-3 h -1 l 3,3 h 1 v -1 l -1,-1 h -1 l -2,2 h -1 l -2.00000001,-2 v -1 H 2.4999899 v -1 H 0.49998989 v -1 l 2.00000001,-2 h 1 l 2,2 h 1 l 1,-1 v -1 h -1 l -3,3 h 1 l -3,-3 z"
       id="path1836-44"
       inkscape:label="F0" />
    <path
       style="fill:none;fill-opacity:1;stroke:#ffffff;stroke-width:0.35;stroke-linecap:square;stroke-linejoin:miter;stroke-dasharray:none;stroke-opacity:1;paint-order:markers fill stroke"
       d="m 16.49999,40.499996 v 1 l 1,1 h 1 l 2,-2 h 1 l 2,2 v 1 l -1,1 h -1 v -1 h 1 l 1,1 v 1 l -2,2 h -1 l -2,-2 h -1 l -1,1 v 1 h 1 l 3,-3 h -1 l 3,3 h 1 v -1 l -1,-1 h -1 l -2,2 h -1 l -2,-2 v -1 l 1,-1 h 1 v 1 h -1 l -1,-1 v -1 l 2,-2 h 1 l 2,2 h 1 l 1,-1 v -1 h -1 l -3,3 h 1 l -3,-3 z"
       id="path1836-4-4"
       sodipodi:nodetypes="ccccccccccccccccccccccccccccccccccccccccccccccccc"
       inkscape:label="F2" />
    <path
       style="fill:none;fill-opacity:1;stroke:#ffffff;stroke-width:0.35;stroke-linecap:square;stroke-linejoin:miter;stroke-dasharray:none;stroke-opacity:1;paint-order:markers fill stroke"
       d="m 24.49999,40.499996 v 1 l 1,1 h 1 l 2,-2 h 1 l 2,2 v 1 l -1,1 -1,-1 v 1 l 1,-1 1,1 v 1 l -2,2 h -1 l -2,-2 h -1 l -1,1 v 1 h 1 l 3,-3 h -1 l 3,3 h 1 v -1 l -1,-1 h -1 l -2,2 h -1 l -2,-2 v -1 l 1,-1 1,1 v -1 l -1,1 -1,-1 v -1 l 2,-2 h 1 l 2,2 h 1 l 1,-1 v -1 h -1 l -3,3 h 1 l -3,-3 z"
       id="path1836-4-6-9"
       sodipodi:nodetypes="ccccccccccccccccccccccccccccccccccccccccccccccccc"
       inkscape:label="F3" />
    <path
       style="fill:none;fill-opacity:1;stroke:#ffffff;stroke-width:0.35;stroke-linecap:square;stroke-linejoin:miter;stroke-dasharray:none;stroke-opacity:1;paint-order:markers fill stroke"
       d="m 8.4999899,40.499996 v 1 l 1,1 H 10.49999 l 2,-2 h 1 l 2,2 v 1 h -1 l -1,1 v -1 l 1,1 h 1 v 1 l -2,2 h -1 l -2,-2 H 9.4999899 l -1,1 v 1 h 1 l 3.0000001,-3 h -1 l 3,3 h 1 v -1 l -1,-1 h -1 l -2,2 h -1 l -2.0000001,-2 v -1 h 1 l 1.0000001,-1 v 1 l -1.0000001,-1 h -1 v -1 l 2.0000001,-2 h 1 l 2,2 h 1 l 1,-1 v -1 h -1 l -3,3 h 1 l -3.0000001,-3 z"
       id="path1836-7-0"
       sodipodi:nodetypes="ccccccccccccccccccccccccccccccccccccccccccccccccc"
       inkscape:label="F1" />
    <path
       style="fill:none;fill-opacity:1;stroke:#ffffff;stroke-width:0.35;stroke-linecap:square;stroke-linejoin:miter;stroke-dasharray:none;stroke-opacity:1;paint-order:markers fill stroke"
       d="m 0.49998989,48.499996 v 1 H 1.4999899 l 1,-1 h 1 l 2,2 v 1 l 1,1 v 1 h 1 v -3 h -1 v 1 l -1,1 v 1 l -2,2 h -1 l -1,-1 H 0.49998989 v 1 H 1.4999899 l 3,-3 h -1 l 3,3 h 1 v -1 h -1 l -1,1 h -1 l -2,-2 v -1 l -1,-1 v -1 H 0.49998989 v 3 H 1.4999899 v -1 l 1,-1 v -1 l 2,-2 h 1 l 1,1 h 1 v -1 h -1 l -3,3 h 1 l -3,-3 z"
       id="path1998-99"
       inkscape:label="G0" />
    <path
       style="fill:none;fill-opacity:1;stroke:#ffffff;stroke-width:0.35;stroke-linecap:square;stroke-linejoin:miter;stroke-dasharray:none;stroke-opacity:1;paint-order:markers fill stroke"
       d="m 46.499995,4.4999958 v 1 h 1 v -3 h -1 v 1 h -1 v -1 l -2,-2 h -1 l -1,1 H 40.49999 v -1 h 1.000005 l 3,3 h -1 l 3,-3 h 1 v 1 h -1 l -1,-1 h -1 l -2,2 v 1 h -1 v -1 H 40.49999 v 3 h 1.000005 v -1 h 1 v 1 l 2,2 h 1 l 1,-1 h 1 v 1 h -1 l -3,-3 h 1 l -3,3 H 40.49999 v -1 h 1.000005 l 1,1 h 1 l 2,-2 v -1 z"
       id="path1998-9-3"
       inkscape:label="G16"
       sodipodi:nodetypes="ccccccccccccccccccccccccccccccccccccccccccccccccc" />
    <path
       style="fill:none;fill-opacity:1;stroke:#ffffff;stroke-width:0.35;stroke-linecap:square;stroke-linejoin:miter;stroke-dasharray:none;stroke-opacity:1;paint-order:markers fill stroke"
       d="m 37.49999,44.499996 v 1 l -2,2 h -1 l -1,-1 h -1 v 1 h 1 l 3,-3 h -1 l 3,3 h 1 v -1 h -1 l -1,1 h -1 l -2,-2 v -1 l -1,1 v -1 l -1,1 v -3 l 1,1 v -1 l 1,1 v -1 l 2,-2 h 1 l 1,1 h 1 v -1 h -1 l -3,3 h 1 l -3,-3 h -1 v 1 h 1 l 1,-1 h 1 l 2,2 v 1 l 1,-1 v 1 l 1,-1 v 3 l -1,-1 v 1 z"
       id="path1998-9-5-7"
       inkscape:label="G17"
       sodipodi:nodetypes="cccccccccccccccccccccccccccccccccccccccccc" />
    <path
       style="fill:none;fill-opacity:1;stroke:#ffffff;stroke-width:0.35;stroke-linecap:square;stroke-linejoin:miter;stroke-dasharray:none;stroke-opacity:1;paint-order:markers fill stroke"
       d="m 45.499995,44.499996 v 1 l -2,2 h -1 l -1,-1 H 40.49999 v 1 h 1.000005 l 3,-3 h -1 l 3,3 h 1 v -1 h -1 l -1,1 h -1 l -2,-2 v -1 l -1,1 -1.000005,-1 v 1 l 1.000005,-1 v -1 l -1.000005,-1 v 1 l 1.000005,-1 1,1 v -1 l 2,-2 h 1 l 1,1 h 1 v -1 h -1 l -3,3 h 1 l -3,-3 H 40.49999 v 1 h 1.000005 l 1,-1 h 1 l 2,2 v 1 l 1,-1 1,1 v -1 l -1,1 v 1 l 1,1 v -1 l -1,1 z"
       id="path1998-9-5-8-28"
       inkscape:label="G18"
       sodipodi:nodetypes="ccccccccccccccccccccccccccccccccccccccccccccccccccccc" />
    <path
       style="fill:none;fill-opacity:1;stroke:#ffffff;stroke-width:0.35;stroke-linecap:square;stroke-linejoin:miter;stroke-dasharray:none;stroke-opacity:1;paint-order:markers fill stroke"
       d="m 37.49999,28.499996 v 1 l -2,2 h -1 l -1,-1 h -1 v 1 h 1 l 3,-3 h -1 l 3,3 h 1 v -1 h -1 l -1,1 h -1 l -2,-2 v -1 l -1,1 h -1 l 1,-1 -1,-1 v 1 l 1,-1 -1,-1 h 1 l 1,1 v -1 l 2,-2 h 1 l 1,1 h 1 v -1 h -1 l -3,3 h 1 l -3,-3 h -1 v 1 h 1 l 1,-1 h 1 l 2,2 v 1 l 1,-1 h 1 l -1,1 1,1 v -1 l -1,1 1,1 h -1 z"
       id="path1998-9-5-8-2-3"
       inkscape:label="G19"
       sodipodi:nodetypes="ccccccccccccccccccccccccccccccccccccccccccccccccccccc" />
    <path
       style="fill:none;fill-opacity:1;stroke:#ffffff;stroke-width:0.35;stroke-linecap:square;stroke-linejoin:miter;stroke-dasharray:none;stroke-opacity:1;paint-order:markers fill stroke"
       d="m 45.499995,28.499996 v 1 l -2,2 h -1 l -1,-1 H 40.49999 v 1 h 1.000005 l 3,-3 h -1 l 3,3 h 1 v -1 h -1 l -1,1 h -1 l -2,-2 v -1 l -1,1 H 40.49999 l 1.000005,-1 H 40.49999 v -1 h 1.000005 l -1.000005,-1 h 1.000005 l 1,1 v -1 l 2,-2 h 1 l 1,1 h 1 v -1 h -1 l -3,3 h 1 l -3,-3 H 40.49999 v 1 h 1.000005 l 1,-1 h 1 l 2,2 v 1 l 1,-1 h 1 l -1,1 h 1 v 1 h -1 l 1,1 h -1 z"
       id="path1998-9-5-8-2-5-7"
       inkscape:label="G20"
       sodipodi:nodetypes="ccccccccccccccccccccccccccccccccccccccccccccccccccccc" />
    <path
       style="fill:none;fill-opacity:1;stroke:#ffffff;stroke-width:0.35;stroke-linecap:square;stroke-linejoin:miter;stroke-dasharray:none;stroke-opacity:1;paint-order:markers fill stroke"
       d="m 37.49999,12.499996 v 1 l -2,2 h -1 l -1,-1 h -1 v 1 h 1 l 3,-3 h -1 l 3,3 h 1 v -1 h -1 l -1,1 h -1 l -2,-2 v -1 l -1,1 h -1 v -1 h 1 v -1 h -1 v -1 h 1 l 1,1 v -1 l 2,-2.0000002 h 1 l 1,1 h 1 v -1 h -1 l -3,3.0000002 h 1 l -3,-3.0000002 h -1 v 1 h 1 l 1,-1 h 1 l 2,2.0000002 v 1 l 1,-1 h 1 v 1 h -1 v 1 h 1 v 1 h -1 z"
       id="path1998-9-5-8-2-5-8-5"
       inkscape:label="G21"
       sodipodi:nodetypes="ccccccccccccccccccccccccccccccccccccccccccccccccccccc" />
    <path
       style="fill:none;fill-opacity:1;stroke:#ffffff;stroke-width:0.35;stroke-linecap:square;stroke-linejoin:miter;stroke-dasharray:none;stroke-opacity:1;paint-order:markers fill stroke"
       d="m 45.499995,13.499996 -2,2 h -1 l -1,-1 H 40.49999 v 1 h 1.000005 l 3,-3 h -1 l 3,3 h 1 v -1 h -1 l -1,1 h -1 l -2,-2 v -1 h -1 l -1.000005,1 h 1.000005 l -1.000005,-1 v -1 l 1.000005,-1 H 40.49999 l 1.000005,1 h 1 v -1 l 2,-2.0000002 h 1 l 1,1 h 1 v -1 h -1 l -3,3.0000002 h 1 l -3,-3.0000002 H 40.49999 v 1 h 1.000005 l 1,-1 h 1 l 2,2.0000002 v 1 h 1 l 1,-1 h -1 l 1,1 v 1 l -1,1 h 1 l -1,-1 h -1 z"
       id="path1998-8-4"
       inkscape:label="G15"
       sodipodi:nodetypes="cccccccccccccccccccccccccccccccccccccccccc" />
    <path
       style="fill:none;fill-opacity:1;stroke:#ffffff;stroke-width:0.35;stroke-linecap:square;stroke-linejoin:miter;stroke-dasharray:none;stroke-opacity:1;paint-order:markers fill stroke"
       d="m 40.49999,56.499996 v 1 h 1.000005 l 1,-1 h 1 l 2,2 v 1 l 2,2 h -1 l 1,-1 v -1 l -1,-1 h 1 l -2,2 v 1 l -2,2 h -1 l -1,-1 H 40.49999 v 1 h 1.000005 l 3,-3 h -1 l 3,3 h 1 v -1 h -1 l -1,1 h -1 l -2,-2 v -1 l -2.000005,-2 h 1.000005 l -1.000005,1 v 1 l 1.000005,1 H 40.49999 l 2.000005,-2 v -1 l 2,-2 h 1 l 1,1 h 1 v -1 h -1 l -3,3 h 1 l -3,-3 z"
       id="path1998-07-7"
       sodipodi:nodetypes="ccccccccccccccccccccccccccccccccccccccccccccccccc"
       inkscape:label="G11" />
    <path
       style="fill:none;fill-opacity:1;stroke:#ffffff;stroke-width:0.35;stroke-linecap:square;stroke-linejoin:miter;stroke-dasharray:none;stroke-opacity:1;paint-order:markers fill stroke"
       d="m 32.49999,48.499996 v 1 h 1 l 1,-1 h 1 l 4,4 v 1 h -1 l -1,-1 v -1 l 1,-1 h 1 v 1 l -4,4 h -1 l -1,-1 h -1 v 1 h 1 l 3,-3 h -1 l 3,3 h 1 v -1 h -1 l -1,1 h -1 l -4,-4 v -1 h 1 l 1,1 v 1 l -1,1 h -1 v -1 l 4,-4 h 1 l 1,1 h 1 v -1 h -1 l -3,3 h 1 l -3,-3 z"
       id="path1998-0-0"
       sodipodi:nodetypes="ccccccccccccccccccccccccccccccccccccccccccccc"
       inkscape:label="G4" />
    <path
       style="fill:none;fill-opacity:1;stroke:#ffffff;stroke-width:0.35;stroke-linecap:square;stroke-linejoin:miter;stroke-dasharray:none;stroke-opacity:1;paint-order:markers fill stroke"
       d="m 40.49999,48.499996 v 1 h 1.000005 l 1,-1 h 1 l 3,3 h 1 v -1 h -1 l -1,1 v 1 l 1,1 h 1 v -1 h -1 l -3,3 h -1 l -1,-1 H 40.49999 v 1 h 1.000005 l 3,-3 h -1 l 3,3 h 1 v -1 h -1 l -1,1 h -1 l -3,-3 H 40.49999 v 1 h 1.000005 l 1,-1 v -1 l -1,-1 H 40.49999 v 1 h 1.000005 l 3,-3 h 1 l 1,1 h 1 v -1 h -1 l -3,3 h 1 l -3,-3 z"
       id="path1998-0-4-5"
       sodipodi:nodetypes="ccccccccccccccccccccccccccccccccccccccccccccccccc"
       inkscape:label="G5" />
    <path
       style="fill:none;fill-opacity:1;stroke:#ffffff;stroke-width:0.35;stroke-linecap:square;stroke-linejoin:miter;stroke-dasharray:none;stroke-opacity:1;paint-order:markers fill stroke"
       d="m 34.49999,35.499996 v 1 h -2 v 1 h 2 l 2,2 h 1 l 1,-1 h 1 v 1 h -1 l -3,-3 h 1 l -3,3 h -1 v -1 h 1 l 1,1 h 1 l 2,-2 h 2 v -1 h -2 v -1 h 2 v -1 h -2 l -2,-2 h -1 l -1,1 h -1 v -1 h 1 l 3,3 h -1 l 3,-3 h 1 v 1 h -1 l -1,-1 h -1 l -2,2 h -2 v 1 z"
       id="path1998-0-4-07-8"
       sodipodi:nodetypes="ccccccccccccccccccccccccccccccccccccccccccccc"
       inkscape:label="G12" />
    <path
       style="fill:none;fill-opacity:1;stroke:#ffffff;stroke-width:0.35;stroke-linecap:square;stroke-linejoin:miter;stroke-dasharray:none;stroke-opacity:1;paint-order:markers fill stroke"
       d="m 42.499995,36.499996 v -1 l -1,1 H 40.49999 v 1 h 2.000005 l 2,2 h 1 l 1,-1 h 1 v 1 h -1 l -3,-3 h 1 l -3,3 H 40.49999 v -1 h 1.000005 l 1,1 h 1 l 2,-2 h 2 v -1 h -1 l -1,-1 v 1 l 1,-1 h 1 v -1 h -2 l -2,-2 h -1 l -1,1 H 40.49999 v -1 h 1.000005 l 3,3 h -1 l 3,-3 h 1 v 1 h -1 l -1,-1 h -1 l -2,2 H 40.49999 v 1 h 1.000005 z"
       id="path1998-0-4-07-3-8"
       sodipodi:nodetypes="ccccccccccccccccccccccccccccccccccccccccccccccccc"
       inkscape:label="G13" />
    <path
       style="fill:none;fill-opacity:1;stroke:#ffffff;stroke-width:0.35;stroke-linecap:square;stroke-linejoin:miter;stroke-dasharray:none;stroke-opacity:1;paint-order:markers fill stroke"
       d="m 33.49999,20.499996 h 1 v -1 h -1 l -1,1 v 1 h 2 l 2,2 h 1 l 1,-1 h 1 v 1 h -1 l -3,-3 h 1 l -3,3 h -1 v -1 h 1 l 1,1 h 1 l 2,-2 h 2 v -1 l -1,-1 h -1 v 1 h 1 l 1,-1 v -1 h -2 l -2,-2 h -1 l -1,1 h -1 v -1 h 1 l 3,3 h -1 l 3,-3 h 1 v 1 h -1 l -1,-1 h -1 l -2,2 h -2 v 1 z"
       id="path1998-0-4-07-3-9-1"
       sodipodi:nodetypes="ccccccccccccccccccccccccccccccccccccccccccccccccc"
       inkscape:label="G14" />
    <path
       style="fill:none;fill-opacity:1;stroke:#ffffff;stroke-width:0.35;stroke-linecap:square;stroke-linejoin:miter;stroke-dasharray:none;stroke-opacity:1;paint-order:markers fill stroke"
       d="m 41.499995,20.499996 1,-1 v 1 l -1,-1 -1.000005,1 v 1 h 2.000005 l 2,2 h 1 l 1,-1 h 1 v 1 h -1 l -3,-3 h 1 l -3,3 H 40.49999 v -1 h 1.000005 l 1,1 h 1 l 2,-2 h 2 v -1 l -1,-1 -1,1 v -1 l 1,1 1,-1 v -1 h -2 l -2,-2 h -1 l -1,1 H 40.49999 v -1 h 1.000005 l 3,3 h -1 l 3,-3 h 1 v 1 h -1 l -1,-1 h -1 l -2,2 H 40.49999 v 1 z"
       id="path1998-0-4-07-3-9-7-7"
       sodipodi:nodetypes="ccccccccccccccccccccccccccccccccccccccccccccccccc"
       inkscape:label="G14" />
    <path
       style="fill:none;fill-opacity:1;stroke:#ffffff;stroke-width:0.35;stroke-linecap:square;stroke-linejoin:miter;stroke-dasharray:none;stroke-opacity:1;paint-order:markers fill stroke"
       d="m 0.49998989,56.499996 v 1 H 1.4999899 l 1,-1 h 1 l 3,3 1,-1 v 1 l -1,-1 -1,1 v 1 l 1,1 1,-1 v 1 l -1,-1 -3,3 h -1 l -1,-1 H 0.49998989 v 1 H 1.4999899 l 3,-3 h -1 l 3,3 h 1 v -1 h -1 l -1,1 h -1 l -3,-3 -1.00000001,1 v -1 l 1.00000001,1 1,-1 v -1 l -1,-1 -1.00000001,1 v -1 l 1.00000001,1 3,-3 h 1 l 1,1 h 1 v -1 h -1 l -3,3 h 1 l -3,-3 z"
       id="path1998-0-4-0-86"
       sodipodi:nodetypes="ccccccccccccccccccccccccccccccccccccccccccccccccc"
       inkscape:label="G6" />
    <path
       style="fill:none;fill-opacity:1;stroke:#ffffff;stroke-width:0.35;stroke-linecap:square;stroke-linejoin:miter;stroke-dasharray:none;stroke-opacity:1;paint-order:markers fill stroke"
       d="m 29.49999,61.499996 -2,2 h -1 l -1,-1 h -1 v 1 h 1 l 3,-3 h -1 l 3,3 h 1 v -1 h -1 l -1,1 h -1 l -2,-2 h -1 l -1,-1 v 1 l 1,-1 h 1 v -1 h -1 l -1,-1 v 1 l 1,-1 h 1 l 2,-2 h 1 l 1,1 h 1 v -1 h -1 l -3,3 h 1 l -3,-3 h -1 v 1 h 1 l 1,-1 h 1 l 2,2 h 1 l 1,1 v -1 l -1,1 h -1 v 1 h 1 l 1,1 v -1 l -1,1 z"
       id="path1998-0-4-0-8-54"
       sodipodi:nodetypes="ccccccccccccccccccccccccccccccccccccccccccccccccccccc"
       inkscape:label="G9" />
    <path
       style="fill:none;fill-opacity:1;stroke:#ffffff;stroke-width:0.35;stroke-linecap:square;stroke-linejoin:miter;stroke-dasharray:none;stroke-opacity:1;paint-order:markers fill stroke"
       d="m 37.49999,61.499996 -2,2 h -1 l -1,-1 h -1 v 1 h 1 l 3,-3 h -1 l 3,3 h 1 v -1 h -1 l -1,1 h -1 l -2,-2 h -1 l -1,-1 v 1 l 2,-2 v 1 l -2,-2 v 1 l 1,-1 h 1 l 2,-2 h 1 l 1,1 h 1 v -1 h -1 l -3,3 h 1 l -3,-3 h -1 v 1 h 1 l 1,-1 h 1 l 2,2 h 1 l 1,1 v -1 l -2,2 v -1 l 2,2 v -1 l -1,1 z"
       id="path1998-0-4-0-8-5-4"
       sodipodi:nodetypes="ccccccccccccccccccccccccccccccccccccccccccccccccc"
       inkscape:label="G10" />
    <path
       style="fill:none;fill-opacity:1;stroke:#ffffff;stroke-width:0.35;stroke-linecap:square;stroke-linejoin:miter;stroke-dasharray:none;stroke-opacity:1;paint-order:markers fill stroke"
       d="m 22.49999,52.499996 -1,1 -2,2 h -1 l -1,-1 h -1 v 1 h 1 l 3,-3 h -1 l 3,3 h 1 v -1 h -1 l -1,1 h -1 l -2,-2 -1,-1 h 1 l -1,1 h -1 v -3 h 1 l 1,1 h -1 l 1,-1 2,-2 h 1 l 1,1 h 1 v -1 h -1 l -3,3 h 1 l -3,-3 h -1 v 1 h 1 l 1,-1 h 1 l 2,2 1,1 h -1 l 1,-1 h 1 v 3 h -1 l -1,-1 z"
       id="path1998-5-6"
       sodipodi:nodetypes="ccccccccccccccccccccccccccccccccccccccccccccccccc"
       inkscape:label="G2" />
    <path
       style="fill:none;fill-opacity:1;stroke:#ffffff;stroke-width:0.35;stroke-linecap:square;stroke-linejoin:miter;stroke-dasharray:none;stroke-opacity:1;paint-order:markers fill stroke"
       d="m 8.4999899,48.499996 v 1 h 1 l 1.0000001,-1 h 1 l 2,2 v 1 l 1,-1 h 1 v 1 l -1,1 v -1 l 1,1 v 1 h -1 l -1,-1 v 1 l -2,2 h -1 l -1.0000001,-1 h -1 v 1 h 1 l 3.0000001,-3 h -1 l 3,3 h 1 v -1 h -1 l -1,1 h -1 l -2,-2 v -1 l -1.0000001,1 h -1 v -1 l 1,-1 v 1 l -1,-1 v -1 h 1 l 1.0000001,1 v -1 l 2,-2 h 1 l 1,1 h 1 v -1 h -1 l -3,3 h 1 l -3.0000001,-3 z"
       id="path1998-2-0"
       sodipodi:nodetypes="ccccccccccccccccccccccccccccccccccccccccccccccccccccc"
       inkscape:label="G1" />
    <path
       style="fill:none;fill-opacity:1;stroke:#ffffff;stroke-width:0.35;stroke-linecap:square;stroke-linejoin:miter;stroke-dasharray:none;stroke-opacity:1;paint-order:markers fill stroke"
       d="m 24.49999,48.499996 v 1 h 1 l 1,-1 h 1 l 3,3 -1,1 1,1 h 1 v -3 h -1 l -1,1 1,1 -1,1 -2,2 h -1 l -1,-1 h -1 v 1 h 1 l 3,-3 h -1 l 3,3 h 1 v -1 h -1 l -1,1 h -1 l -2,-2 -1,-1 1,-1 -1,-1 h -1 v 3 h 1 l 1,-1 -1,-1 3,-3 h 1 l 1,1 h 1 v -1 h -1 l -3,3 h 1 l -3,-3 z"
       id="path1998-23-5"
       sodipodi:nodetypes="ccccccccccccccccccccccccccccccccccccccccccccccc"
       inkscape:label="G3" />
    <path
       style="fill:none;fill-opacity:1;stroke:#ffffff;stroke-width:0.35;stroke-linecap:square;stroke-linejoin:miter;stroke-dasharray:none;stroke-opacity:1;paint-order:markers fill stroke"
       d="m 8.4999899,56.499996 v 1 h 1 l 1.0000001,-1 h 1 l 2,2 h 1 l -1,1 2,2 v -3 l -2,2 1,1 h -1 l -2,2 h -1 l -1.0000001,-1 h -1 v 1 h 1 l 3.0000001,-3 h -1 l 3,3 h 1 v -1 h -1 l -1,1 h -1 l -2,-2 H 9.4999899 l 1.0000001,-1 -2.0000001,-2 v 3 l 2.0000001,-2 -1.0000001,-1 H 10.49999 l 2,-2 h 1 l 1,1 h 1 v -1 h -1 l -3,3 h 1 l -3.0000001,-3 z"
       id="path1998-23-7-3"
       sodipodi:nodetypes="ccccccccccccccccccccccccccccccccccccccccccccc"
       inkscape:label="G7" />
    <path
       style="fill:none;fill-opacity:1;stroke:#ffffff;stroke-width:0.35;stroke-linecap:square;stroke-linejoin:miter;stroke-dasharray:none;stroke-opacity:1;paint-order:markers fill stroke"
       d="m 21.49999,60.499996 1,1 h -1 l -2,2 h -1 l -1,-1 h -1 v 1 h 1 l 3,-3 h -1 l 3,3 h 1 v -1 h -1 l -1,1 h -1 l -2,-2 h -1 l 1,-1 h -1 l -1,1 v -3 l 1,1 h 1 l -1,-1 h 1 l 2,-2 h 1 l 1,1 h 1 v -1 h -1 l -3,3 h 1 l -3,-3 h -1 v 1 h 1 l 1,-1 h 1 l 2,2 h 1 l -1,1 h 1 l 1,-1 v 3 l -1,-1 z"
       id="path1998-23-7-1-7"
       sodipodi:nodetypes="ccccccccccccccccccccccccccccccccccccccccccccccccc"
       inkscape:label="G8" />
  </g>
</svg>
