<?xml version="1.0" encoding="UTF-8" standalone="no"?>
<!-- Created with Inkscape (http://www.inkscape.org/) -->

<svg
   version="1.1"
   id="svg48393"
   width="1588"
   height="1122.6667"
   viewBox="0 0 1588 1122.6667"
   sodipodi:docname="poster-01.svg"
   inkscape:version="1.2.2 (732a01da63, 2022-12-09)"
   xmlns:inkscape="http://www.inkscape.org/namespaces/inkscape"
   xmlns:sodipodi="http://sodipodi.sourceforge.net/DTD/sodipodi-0.dtd"
   xmlns="http://www.w3.org/2000/svg"
   xmlns:svg="http://www.w3.org/2000/svg">
  <defs
     id="defs48397">
    <clipPath
       clipPathUnits="userSpaceOnUse"
       id="clipPath48411">
      <path
         d="M 0,842 V 0 h 1191 v 842 z"
         id="path48409" />
    </clipPath>
  </defs>
  <sodipodi:namedview
     id="namedview48395"
     pagecolor="#ffffff"
     bordercolor="#000000"
     borderopacity="0.25"
     inkscape:showpageshadow="2"
     inkscape:pageopacity="0.0"
     inkscape:pagecheckerboard="0"
     inkscape:deskcolor="#d1d1d1"
     showgrid="false"
     inkscape:zoom="0.21021375"
     inkscape:cx="618.41815"
     inkscape:cy="556.57634"
     inkscape:window-width="1366"
     inkscape:window-height="697"
     inkscape:window-x="-8"
     inkscape:window-y="-8"
     inkscape:window-maximized="1"
     inkscape:current-layer="g48401">
    <inkscape:page
       x="0"
       y="0"
       id="page48399"
       width="1588"
       height="1122.6667" />
  </sodipodi:namedview>
  <g
     id="g48401"
     inkscape:groupmode="layer"
     inkscape:label="Page 1"
     transform="matrix(1.3333333,0,0,-1.3333333,0,1122.6667)">
    <g
       id="g48403" />
    <g
       id="g48405">
      <g
         id="g48407"
         clip-path="url(#clipPath48411)">
        <g
           id="g48413">
          <path
             d="M 0,842 H 1191 V 0 H 0 Z"
             style="fill:#cccccc;fill-opacity:1;fill-rule:nonzero;stroke:none"
             id="path48415" />
          <path
             d="M 0,842 H 1191 V 0 H 0 Z"
             style="fill:#ffffff;fill-opacity:1;fill-rule:nonzero;stroke:none"
             id="path48417" />
          <path
             d="M 189.40787,799.93292 H 165.26036 V 775.7854 l 24.14751,-24.14746 V 727.49042 L 92.817856,630.90039 H 68.670357 v 24.14752 l 24.147499,24.14753 h 24.147504 l 24.14749,-24.14753 v -24.14752 h -24.14749 l -96.590003,96.59003 2e-6,24.14752 24.147502,24.14746 v 24.14752 H 20.37536 l -1e-6,-24.14752 72.442497,-72.4425 7e-6,24.14752 -72.442508,-72.44251 -2e-6,-24.14752 h 24.147501 v 24.14752 l -24.147499,24.14753 2e-6,24.14746 96.590003,96.59002 h 24.14751 V 775.7854 L 116.96536,751.63794 H 92.817863 L 68.670364,775.7854 v 24.14752 H 92.817863 L 189.40787,703.3429 v -24.14746 l -24.14751,-24.14753 v -24.14752 h 24.14751 v 24.14752 l -72.44251,72.44251 V 703.3429 l 72.44251,72.4425 z"
             style="fill:none;stroke:#000000;stroke-width:8.45162;stroke-linecap:square;stroke-linejoin:miter;stroke-miterlimit:10;stroke-dasharray:none;stroke-opacity:1"
             id="path48419" />
          <path
             d="m 221.21266,795.26227 v -50.83686 h 50.83684 l 50.83685,50.83686 h 50.83686 L 475.39688,693.58862 V 642.75171 L 577.07056,541.07806 h -50.83679 l 50.83679,50.83686 v 50.83679 l -50.83679,50.83691 h 50.83679 L 475.39688,591.91492 V 541.07806 L 373.72321,439.40436 H 322.88635 L 272.0495,490.24121 H 221.21266 V 439.40436 H 272.0495 L 424.56006,591.91492 H 373.72321 L 526.23377,439.40436 h 50.83679 v 50.83685 h -50.83679 l -50.83689,-50.83685 h -50.83682 l -101.67371,101.6737 v 50.83686 l -101.67369,101.6737 h 50.83684 l -50.83684,-50.83691 v -50.83679 l 50.83684,-50.83686 h -50.83684 l 101.67369,101.67365 v 50.83691 l 101.67371,101.67365 h 50.83682 l 50.83689,-50.83686 h 50.83679 v 50.83686 H 526.23377 L 373.72321,642.75171 h 50.83685 L 272.0495,795.26227 Z"
             style="fill:none;stroke:#000000;stroke-width:17.7929;stroke-linecap:square;stroke-linejoin:miter;stroke-miterlimit:10;stroke-dasharray:none;stroke-opacity:1"
             id="path48421" />
          <path
             d="m 638.94861,748.25409 h -10.80286 l -21.60565,21.60565 v 10.80286 l 10.80286,10.80279 v 10.80286 H 606.5401 v -10.80286 l 32.40851,-32.40851 v 10.80286 L 606.5401,737.45123 v -10.80279 h 10.80286 v 10.80279 l -10.80286,10.80286 v 10.80279 l 21.60565,21.60572 h 10.80286 l -10.80286,10.80279 10.80286,10.80286 h -10.80286 l 10.80286,-10.80286 h 10.80279 l 10.80286,10.80286 H 649.7514 L 660.55426,791.46539 649.7514,780.6626 h 10.80286 l 21.60565,-21.60572 v -10.80279 l -10.80285,-10.80286 v -10.80279 h 10.80285 v 10.80279 l -32.40851,32.40851 v -10.80286 l 32.40851,32.40851 v 10.80286 H 671.35706 V 791.46539 L 682.15991,780.6626 V 769.85974 L 660.55426,748.25409 H 649.7514 l 10.80286,-10.80286 -10.80286,-10.80279 h 10.80286 l -10.80286,10.80279 h -10.80279 l -10.80286,-10.80279 h 10.80286 l -10.80286,10.80279 z"
             style="fill:none;stroke:#000000;stroke-width:3.78099;stroke-linecap:square;stroke-linejoin:miter;stroke-miterlimit:10;stroke-dasharray:none;stroke-opacity:1"
             id="path48423" />
          <path
             d="m 780.24322,802.26825 h -10.80285 v -10.80286 l 10.80285,-10.80279 v -10.80286 l -43.2113,-43.2113 h -10.80286 v 10.80279 l 10.80286,10.80286 h 10.8028 l 10.80285,-10.80286 v -10.80279 h -10.80285 l -43.21131,43.2113 v 10.80286 l 10.80286,10.80279 v 10.80286 h -10.80286 v -10.80286 l 32.40851,-32.40851 v 10.80286 l -32.40851,-32.40851 v -10.80279 h 10.80286 v 10.80279 l -10.80286,10.80286 v 10.80279 l 43.21131,43.21137 h 10.80285 V 791.46539 L 747.83472,780.6626 h -10.8028 l -10.80286,10.80279 v 10.80286 h 10.80286 l 43.2113,-43.21137 v -10.80279 l -10.80285,-10.80286 v -10.80279 h 10.80285 v 10.80279 l -32.4085,32.40851 v -10.80286 l 32.4085,32.40851 z"
             style="fill:none;stroke:#000000;stroke-width:3.78099;stroke-linecap:square;stroke-linejoin:miter;stroke-miterlimit:10;stroke-dasharray:none;stroke-opacity:1"
             id="path48425" />
          <path
             d="m 949.92706,703.3429 -24.14752,-24.14746 -48.29498,-48.29505 h -24.14752 l -24.14746,24.14752 h -24.14753 v -24.14752 h 24.14753 l 72.4425,72.44251 h -24.14752 l 72.4425,-72.44251 h 24.14753 v 24.14752 h -24.14753 l -24.14752,-24.14752 h -24.14746 l -48.29504,48.29505 -24.14746,24.14746 h 24.14746 l -24.14746,-24.14746 h -24.14753 v 72.4425 h 24.14753 l 24.14746,-24.14752 h -24.14746 l 24.14746,24.14752 48.29504,48.29498 h 24.14746 l 24.14752,-24.14752 h 24.14753 v 24.14752 h -24.14753 l -72.4425,-72.4425 h 24.14752 l -72.4425,72.4425 H 805.04205 V 775.7854 h 24.14753 l 24.14746,24.14752 h 24.14752 l 48.29498,-48.29498 24.14752,-24.14752 h -24.14752 l 24.14752,24.14752 h 24.14753 v -72.4425 h -24.14753 l -24.14752,24.14746 z"
             style="fill:none;stroke:#000000;stroke-width:8.45162;stroke-linecap:square;stroke-linejoin:miter;stroke-miterlimit:10;stroke-dasharray:none;stroke-opacity:1"
             id="path48427" />
          <path
             d="m 1170.2411,799.93292 h -24.1475 l -24.1476,-24.14752 24.1476,-24.14746 -24.1476,-24.14752 V 703.3429 l 24.1476,-24.14746 -24.1476,-24.14753 24.1476,-24.14752 h 24.1475 v 72.44251 l -48.2951,48.29504 24.1476,24.14746 -24.1476,24.14752 h -24.1474 V 775.7854 l -24.1475,-24.14746 v -24.14752 h 24.1475 v 24.14752 l -24.1475,24.14746 v 24.14752 h -24.1476 l -24.1474,-24.14752 24.1474,-24.14746 -48.2949,-48.29504 v -72.44251 h 24.1475 l 24.1474,24.14752 -24.1474,24.14753 24.1474,24.14746 v 24.14752 l -24.1474,24.14752 24.1474,24.14746 -24.1474,24.14752 h -24.1475 v -72.4425 l 48.2949,-48.29498 -24.1474,-24.14753 24.1474,-24.14752 h 24.1476 v 24.14752 l 24.1475,24.14753 v 24.14746 h -24.1475 v -24.14746 l 24.1475,-24.14753 v -24.14752 h 24.1474 l 24.1476,24.14752 -24.1476,24.14753 48.2951,48.29498 z"
             style="fill:none;stroke:#000000;stroke-width:8.45162;stroke-linecap:square;stroke-linejoin:miter;stroke-miterlimit:10;stroke-dasharray:none;stroke-opacity:1"
             id="path48429" />
          <path
             d="m 682.15991,704.18494 h -10.80285 l -10.8028,-10.80286 10.8028,-10.80286 -10.8028,-10.80279 v -10.80286 l 10.8028,-10.80279 -10.8028,-10.80286 10.8028,-10.80286 h 10.80285 v 32.40851 l -21.60565,21.60565 10.8028,10.80286 -10.8028,10.80286 H 649.7514 v -10.80286 l -10.80279,-10.80286 v -10.80279 h 10.80279 v 10.80279 l -10.80279,10.80286 v 10.80286 h -10.80286 l -10.80279,-10.80286 10.80279,-10.80286 -21.60565,-21.60565 v -32.40851 h 10.80286 l 10.80279,10.80286 -10.80279,10.80286 10.80279,10.80279 v 10.80286 l -10.80279,10.80279 10.80279,10.80286 -10.80279,10.80286 H 606.5401 v -32.40851 l 21.60565,-21.60565 -10.80279,-10.80286 10.80279,-10.80286 h 10.80286 v 10.80286 l 10.80279,10.80286 v 10.80279 h -10.80279 v -10.80279 l 10.80279,-10.80286 v -10.80286 h 10.80286 l 10.8028,10.80286 -10.8028,10.80286 21.60565,21.60565 z"
             style="fill:none;stroke:#000000;stroke-width:3.78099;stroke-linecap:square;stroke-linejoin:miter;stroke-miterlimit:10;stroke-dasharray:none;stroke-opacity:1"
             id="path48431" />
          <path
             d="m 737.03192,650.17078 h -10.80286 l -21.60565,21.60565 v 10.80279 l 10.80286,10.80286 v 10.80286 h -10.80286 v -10.80286 l 32.40851,-32.40851 v 10.80286 l -32.40851,-32.40851 v -10.80286 h 10.80286 v 10.80286 l -10.80286,10.80286 v 10.80279 l 21.60565,21.60565 h 10.80286 l -10.80286,10.80286 v 10.80286 l 10.80286,-10.80286 v 10.80286 h 10.8028 v -10.80286 l 10.80285,10.80286 v -10.80286 l -10.80285,-10.80286 h 10.80285 l 21.60565,-21.60565 v -10.80279 l -10.80285,-10.80286 v -10.80286 h 10.80285 v 10.80286 l -32.4085,32.40851 v -10.80286 l 32.4085,32.40851 v 10.80286 h -10.80285 v -10.80286 l 10.80285,-10.80286 v -10.80279 l -21.60565,-21.60565 h -10.80285 l 10.80285,-10.80286 v -10.80286 l -10.80285,10.80286 v -10.80286 h -10.8028 v 10.80286 l -10.80286,-10.80286 v 10.80286 z"
             style="fill:none;stroke:#000000;stroke-width:3.78099;stroke-linecap:square;stroke-linejoin:miter;stroke-miterlimit:10;stroke-dasharray:none;stroke-opacity:1"
             id="path48433" />
          <path
             d="m 20.375362,603.76623 v -24.14746 l 24.147503,-24.14752 24.147499,24.14752 24.147499,-24.14752 h 24.147497 l 24.14751,24.14752 24.14751,-24.14752 24.14749,24.14752 v 24.14746 H 116.96536 L 68.670364,555.47125 44.522865,579.61877 20.375362,555.47125 v -24.14752 l 24.147503,-24.14749 h 48.294998 v 24.14749 H 44.522865 L 20.375362,507.17624 v -24.14749 l 24.147503,-24.14749 24.147499,24.14749 48.294996,-48.29502 h 72.44251 v 24.14753 l -24.14749,24.14749 -24.14751,-24.14749 -24.14751,24.14749 H 92.817863 L 68.670364,458.88126 44.522865,483.02875 20.375362,458.88126 v -24.14753 h 72.442501 l 48.295007,48.29502 24.14751,-24.14749 24.14749,24.14749 v 24.14749 l -24.14749,24.14749 h -48.29502 v -24.14749 h 48.29502 l 24.14749,24.14749 v 24.14752 l -24.14749,24.14752 -24.14751,-24.14752 -48.295007,48.29498 z"
             style="fill:none;stroke:#000000;stroke-width:8.45162;stroke-linecap:square;stroke-linejoin:miter;stroke-miterlimit:10;stroke-dasharray:none;stroke-opacity:1"
             id="path48435" />
          <path
             d="m 608.87537,603.76623 v -24.14746 h 24.14752 l 24.14746,24.14746 h 24.14752 l 72.44251,-72.4425 24.14752,24.14752 v -24.14752 l -24.14752,24.14752 -24.14753,-24.14752 v -24.14749 l 24.14753,-24.14749 24.14752,24.14749 v -24.14749 l -24.14752,24.14749 -72.44251,-72.44251 h -24.14752 l -24.14746,24.14753 h -24.14752 v -24.14753 h 24.14752 l 72.4425,72.44251 h -24.14752 l 72.44251,-72.44251 h 24.14752 v 24.14753 h -24.14752 l -24.14753,-24.14753 h -24.14746 l -72.4425,72.44251 -24.14752,-24.14749 v 24.14749 l 24.14752,-24.14749 24.14746,24.14749 v 24.14749 l -24.14746,24.14752 -24.14752,-24.14752 v 24.14752 l 24.14752,-24.14752 72.4425,72.4425 h 24.14746 l 24.14753,-24.14746 h 24.14752 v 24.14746 h -24.14752 l -72.44251,-72.4425 h 24.14752 l -72.4425,72.4425 z"
             style="fill:none;stroke:#000000;stroke-width:8.45162;stroke-linecap:square;stroke-linejoin:miter;stroke-miterlimit:10;stroke-dasharray:none;stroke-opacity:1"
             id="path48437" />
          <path
             d="M 867.52368,562.89026 V 552.0874 h 10.80286 v 32.40851 h -10.80286 v -10.80279 h -10.80279 v 10.80279 l -21.60566,21.60565 h -10.80285 l -10.8028,-10.80285 h -10.80285 v 10.80285 h 10.80285 l 32.40845,-32.40844 h -10.8028 l 32.40845,32.40844 h 10.80286 v -10.80285 h -10.80286 l -10.80279,10.80285 h -10.80286 l -21.60565,-21.60565 v -10.80279 h -10.8028 v 10.80279 H 802.70673 V 552.0874 h 10.80285 v 10.80286 h 10.8028 V 552.0874 l 21.60565,-21.60565 h 10.80286 l 10.80279,10.8028 h 10.80286 v -10.8028 h -10.80286 l -32.40845,32.40851 h 10.8028 l -32.40845,-32.40851 h -10.80285 v 10.8028 h 10.80285 l 10.8028,-10.8028 h 10.80285 l 21.60566,21.60565 v 10.80286 z"
             style="fill:none;stroke:#000000;stroke-width:3.78099;stroke-linecap:square;stroke-linejoin:miter;stroke-miterlimit:10;stroke-dasharray:none;stroke-opacity:1"
             id="path48439" />
          <path
             d="m 1072.1578,531.32373 v 72.4425 h -24.1474 l -24.1475,-24.14746 24.1475,-24.14752 v -24.14752 l -24.1475,-24.14749 h -24.14757 v -48.29498 l 24.14757,24.14749 24.1475,-24.14749 -24.1475,-24.14753 h -72.44255 l -24.14752,24.14753 24.14752,24.14749 24.14746,-24.14749 v 48.29498 h -24.14746 l -24.14752,24.14749 v 24.14752 l 24.14752,24.14752 -24.14752,24.14746 H 903.12531 V 434.73376 h 24.14752 l 24.14752,24.1475 -24.14752,24.14749 v 24.14749 l 24.14752,24.14749 h 24.14746 v 48.29504 l -24.14746,-24.14752 -24.14752,24.14752 24.14752,24.14746 h 72.44255 l 24.1475,-24.14746 -24.1475,-24.14752 -24.14757,24.14752 v -48.29504 h 24.14757 l 24.1475,-24.14749 v -24.14749 l -24.1475,-24.14749 24.1475,-24.14753 h 24.1474 v 72.44251 z"
             style="fill:none;stroke:#000000;stroke-width:8.45162;stroke-linecap:square;stroke-linejoin:miter;stroke-miterlimit:10;stroke-dasharray:none;stroke-opacity:1"
             id="path48441" />
          <path
             d="m 1150.9709,562.89026 10.8029,-10.80286 h -10.8029 l -21.6057,-21.60565 h -10.8027 l -10.8029,10.8028 h -10.8028 v -10.8028 h 10.8028 l 32.4085,32.40851 h -10.8029 l 32.4086,-32.40851 h 10.8027 v 10.8028 h -10.8027 l -10.8029,-10.8028 h -10.8028 l -21.6056,21.60565 h -10.8029 l 10.8029,10.80286 h -10.8029 l -10.8028,-10.80286 v 32.40851 l 10.8028,-10.80279 h 10.8029 l -10.8029,10.80279 h 10.8029 l 21.6056,21.60565 h 10.8028 l 10.8029,-10.80285 h 10.8027 v 10.80285 h -10.8027 l -32.4086,-32.40844 h 10.8029 l -32.4085,32.40844 h -10.8028 v -10.80285 h 10.8028 l 10.8029,10.80285 h 10.8027 l 21.6057,-21.60565 h 10.8029 l -10.8029,-10.80279 h 10.8029 l 10.8027,10.80279 V 552.0874 l -10.8027,10.80286 z"
             style="fill:none;stroke:#000000;stroke-width:3.78099;stroke-linecap:square;stroke-linejoin:miter;stroke-miterlimit:10;stroke-dasharray:none;stroke-opacity:1"
             id="path48443" />
          <path
             d="m 856.72089,464.80695 v -10.80286 l -21.60566,-21.60565 h -10.80285 l -10.8028,10.80282 h -10.80285 v -10.80282 h 10.80285 l 32.40845,32.40851 h -10.8028 l 32.40845,-32.40851 h 10.80286 v 10.80282 h -10.80286 l -10.80279,-10.80282 h -10.80286 l -21.60565,21.60565 v 10.80286 l -10.8028,-10.80286 h -10.80285 l 10.80285,10.80286 h -10.80285 v 10.80282 h 10.80285 l -10.80285,10.80283 h 10.80285 l 10.8028,-10.80283 v 10.80283 l 21.60565,21.60565 h 10.80286 l 10.80279,-10.80283 h 10.80286 v 10.80283 h -10.80286 l -32.40845,-32.40848 h 10.8028 l -32.40845,32.40848 h -10.80285 v -10.80283 h 10.80285 l 10.8028,10.80283 h 10.80285 l 21.60566,-21.60565 v -10.80283 l 10.80279,10.80283 h 10.80286 l -10.80286,-10.80283 h 10.80286 v -10.80282 h -10.80286 l 10.80286,-10.80286 h -10.80286 z"
             style="fill:none;stroke:#000000;stroke-width:3.78099;stroke-linecap:square;stroke-linejoin:miter;stroke-miterlimit:10;stroke-dasharray:none;stroke-opacity:1"
             id="path48445" />
          <path
             d="m 1096.9568,508.01825 v -10.80283 l 10.8028,-10.80282 10.8029,10.80282 10.8027,-10.80282 h 10.8029 l 10.8028,10.80282 10.8029,-10.80282 10.8027,10.80282 v 10.80283 h -32.4084 l -21.6056,-21.60565 -10.8029,10.80282 -10.8028,-10.80282 v -10.80283 l 10.8028,-10.80282 10.8029,10.80282 10.8027,-10.80282 v 10.80282 l -10.8027,-10.80282 -10.8029,10.80282 -10.8028,-10.80282 v -10.80286 l 10.8028,-10.80283 10.8029,10.80283 21.6056,-21.60565 h 32.4084 v 10.80282 l -10.8027,10.80283 -10.8029,-10.80283 -10.8028,10.80283 h -10.8029 l -10.8027,-10.80283 -10.8029,10.80283 -10.8028,-10.80283 v -10.80282 h 32.4084 l 21.6057,21.60565 10.8029,-10.80283 10.8027,10.80283 v 10.80286 l -10.8027,10.80282 -10.8029,-10.80282 -10.8028,10.80282 v -10.80282 l 10.8028,10.80282 10.8029,-10.80282 10.8027,10.80282 v 10.80283 l -10.8027,10.80282 -10.8029,-10.80282 -21.6057,21.60565 z"
             style="fill:none;stroke:#000000;stroke-width:3.78099;stroke-linecap:square;stroke-linejoin:miter;stroke-miterlimit:10;stroke-dasharray:none;stroke-opacity:1"
             id="path48447" />
          <path
             d="m 93.659851,377.5264 v 32.40847 H 82.857025 L 72.054192,399.13205 82.857018,388.32922 72.054192,377.5264 82.857018,366.72357 72.054192,355.92071 82.857018,345.11789 72.054192,334.31506 H 61.251358 l 4e-6,32.40851 h -10.80283 l -4e-6,-32.40851 H 39.645699 l -10.802828,10.80283 10.802828,10.80282 -10.802828,10.80286 10.802831,10.80283 -10.802829,10.80282 10.802829,10.80283 -10.802829,10.80282 h -10.80283 l -4e-6,-75.61981 h 10.80283 l 10.80283,10.80283 -10.802828,10.80282 10.802831,10.80286 -10.802831,10.80283 10.802831,10.80282 -10.802829,10.80283 10.802829,10.80282 h 10.80283 V 377.5264 h 10.80283 v 32.40847 h 10.80283 L 82.857018,399.13205 72.054192,388.32922 82.857018,377.5264 72.054192,366.72357 82.857018,355.92071 72.054192,345.11789 82.857018,334.31506 h 10.802833 v 32.40851 z"
             style="fill:none;stroke:#000000;stroke-width:3.78099;stroke-linecap:square;stroke-linejoin:miter;stroke-miterlimit:10;stroke-dasharray:none;stroke-opacity:1"
             id="path48449" />
          <path
             d="m 116.12338,409.93487 v -10.80282 l 10.80283,-10.80283 10.80282,10.80283 10.80285,-10.80283 h 10.80282 l 10.80283,10.80283 10.80284,-10.80283 10.80282,10.80283 v 10.80282 H 159.3347 l -21.60567,-21.60565 -10.80282,10.80283 -10.80283,-10.80283 V 377.5264 h 21.60565 l 10.80285,-10.80283 v 10.80283 l -10.80285,-10.80283 h -21.60565 v -10.80286 l 10.80283,-10.80282 10.80282,10.80282 21.60567,-21.60565 h 32.40849 v 10.80283 l -10.80282,10.80282 -10.80284,-10.80282 -10.80283,10.80282 h -10.80282 l -10.80285,-10.80282 -10.80282,10.80282 -10.80283,-10.80282 v -10.80283 h 32.4085 l 21.60565,21.60565 10.80284,-10.80282 10.80282,10.80282 v 10.80286 H 170.13753 L 159.3347,377.5264 v -10.80283 l 10.80283,10.80283 h 21.60566 v 10.80282 l -10.80282,10.80283 -10.80284,-10.80283 -21.60565,21.60565 z"
             style="fill:none;stroke:#000000;stroke-width:3.78099;stroke-linecap:square;stroke-linejoin:miter;stroke-miterlimit:10;stroke-dasharray:none;stroke-opacity:1"
             id="path48451" />
          <path
             d="m 221.21266,402.92892 v -50.83685 l 50.83684,-50.83682 50.83685,50.83682 50.83686,-50.83682 h 50.83685 l 50.83682,50.83682 50.83689,-50.83682 50.83679,50.83682 v 50.83685 H 424.56006 L 322.88635,301.25525 272.0495,352.09207 221.21266,301.25525 V 250.4184 h 50.83684 l 50.83685,-50.83686 h 50.83686 V 250.4184 H 322.88635 L 272.0495,199.58154 H 221.21266 V 148.74469 L 272.0495,97.907837 322.88635,148.74469 424.56006,47.070984 h 152.5105 V 97.907837 L 526.23377,148.74469 475.39688,97.907837 424.56006,148.74469 H 373.72321 L 322.88635,97.907837 272.0495,148.74469 221.21266,97.907837 V 47.070984 h 152.51055 l 101.67367,101.673706 50.83689,-50.836853 50.83679,50.836853 v 50.83685 h -50.83679 l -50.83689,50.83686 h -50.83682 v -50.83686 h 50.83682 l 50.83689,50.83686 h 50.83679 v 50.83685 l -50.83679,50.83682 -50.83689,-50.83682 -101.67367,101.67367 z"
             style="fill:none;stroke:#000000;stroke-width:17.7929;stroke-linecap:square;stroke-linejoin:miter;stroke-miterlimit:10;stroke-dasharray:none;stroke-opacity:1"
             id="path48453" />
          <path
             d="M 628.14569,366.72357 V 377.5264 L 617.3429,366.72357 h -10.80286 v -10.80286 h 21.60565 l 21.60565,-21.60565 h 10.80286 l 10.80279,10.80283 h 10.80286 v -10.80283 h -10.80286 l -32.40844,32.40851 h 10.80279 L 617.3429,334.31506 h -10.80286 v 10.80283 h 10.80286 l 10.80279,-10.80283 h 10.80286 l 21.60565,21.60565 h 21.60565 v 10.80286 H 671.35699 L 660.5542,377.5264 v -10.80283 l 10.80279,10.80283 h 10.80286 v 10.80282 H 660.5542 l -21.60565,21.60565 H 628.14569 L 617.3429,399.13205 h -10.80286 v 10.80282 h 10.80286 l 32.40844,-32.40847 h -10.80279 l 32.40844,32.40847 h 10.80286 V 399.13205 H 671.35699 L 660.5542,409.93487 H 649.75134 L 628.14569,388.32922 H 606.54004 V 377.5264 h 10.80286 z"
             style="fill:none;stroke:#000000;stroke-width:3.78099;stroke-linecap:square;stroke-linejoin:miter;stroke-miterlimit:10;stroke-dasharray:none;stroke-opacity:1"
             id="path48455" />
          <path
             d="m 704.62341,409.93487 v -10.80282 h 10.80286 l 10.80279,10.80282 h 10.80286 l 32.40845,-32.40847 -10.8028,-10.80283 10.8028,-10.80286 h 10.80285 v 32.40851 h -10.80285 l -10.8028,-10.80282 10.8028,-10.80283 -10.8028,-10.80286 -21.60565,-21.60565 h -10.80286 l -10.80279,10.80283 h -10.80286 v -10.80283 h 10.80286 l 32.40845,32.40851 h -10.8028 l 32.40845,-32.40851 h 10.80285 v 10.80283 h -10.80285 l -10.8028,-10.80283 h -10.80285 l -21.60566,21.60565 -10.80279,10.80286 10.80279,10.80283 -10.80279,10.80282 h -10.80286 v -32.40851 h 10.80286 l 10.80279,10.80286 -10.80279,10.80283 32.40845,32.40847 h 10.80285 l 10.8028,-10.80282 h 10.80285 v 10.80282 H 769.44037 L 737.03192,377.5264 h 10.8028 l -32.40845,32.40847 z"
             style="fill:none;stroke:#000000;stroke-width:3.78099;stroke-linecap:square;stroke-linejoin:miter;stroke-miterlimit:10;stroke-dasharray:none;stroke-opacity:1"
             id="path48457" />
          <path
             d="m 802.70673,409.93487 v -10.80282 h 10.80285 l 10.8028,10.80282 h 10.80285 l 43.21131,-43.2113 v -10.80286 h -10.80286 l -10.80279,10.80286 v 10.80283 l 10.80279,10.80282 h 10.80286 V 377.5264 l -43.21131,-43.21134 h -10.80285 l -10.8028,10.80283 h -10.80285 v -10.80283 h 10.80285 l 32.40845,32.40851 h -10.8028 l 32.40845,-32.40851 h 10.80286 v 10.80283 h -10.80286 l -10.80279,-10.80283 h -10.80286 l -43.2113,43.21134 v 10.80282 h 10.80285 l 10.8028,-10.80282 v -10.80283 l -10.8028,-10.80286 h -10.80285 v 10.80286 l 43.2113,43.2113 h 10.80286 l 10.80279,-10.80282 h 10.80286 v 10.80282 H 867.52368 L 835.11523,377.5264 h 10.8028 l -32.40845,32.40847 z"
             style="fill:none;stroke:#000000;stroke-width:3.78099;stroke-linecap:square;stroke-linejoin:miter;stroke-miterlimit:10;stroke-dasharray:none;stroke-opacity:1"
             id="path48459" />
          <path
             d="m 922.39569,377.5264 v -10.80283 h -21.60565 v -10.80286 h 21.60565 l 21.60565,-21.60565 h 10.80286 l 10.80279,10.80283 h 10.80286 v -10.80283 h -10.80286 l -32.40844,32.40851 h 10.80279 L 911.5929,334.31506 h -10.80286 v 10.80283 h 10.80286 l 10.80279,-10.80283 h 10.80286 l 21.60565,21.60565 h 21.60565 v 10.80286 H 954.8042 v 10.80283 h 21.60565 v 10.80282 H 954.8042 l -21.60565,21.60565 H 922.39569 L 911.5929,399.13205 h -10.80286 v 10.80282 h 10.80286 l 32.40844,-32.40847 h -10.80279 l 32.40844,32.40847 h 10.80286 V 399.13205 H 965.60699 L 954.8042,409.93487 H 944.00134 L 922.39569,388.32922 H 900.79004 V 377.5264 Z"
             style="fill:none;stroke:#000000;stroke-width:3.78099;stroke-linecap:square;stroke-linejoin:miter;stroke-miterlimit:10;stroke-dasharray:none;stroke-opacity:1"
             id="path48461" />
          <path
             d="m 1001.2087,407.59958 v -24.14749 h 24.1475 l 24.1476,24.14749 h 24.1474 l 72.4426,-72.44251 24.1474,24.1475 v -24.1475 l -24.1474,24.1475 -24.1475,-24.1475 v -24.14749 l 24.1475,-24.14752 24.1474,24.14752 v -24.14752 l -24.1474,24.14752 -72.4426,-72.4425 h -24.1474 l -24.1476,24.14752 h -24.1475 v -24.14752 h 24.1475 l 72.4425,72.4425 h -24.1475 l 72.4426,-72.4425 h 24.1474 v 24.14752 h -24.1474 l -24.1475,-24.14752 h -24.1476 l -72.4425,72.4425 -24.1475,-24.14752 v 24.14752 l 24.1475,-24.14752 24.1476,24.14752 v 24.14749 l -24.1476,24.1475 -24.1475,-24.1475 v 24.1475 l 24.1475,-24.1475 72.4425,72.44251 h 24.1476 l 24.1475,-24.14749 h 24.1474 v 24.14749 h -24.1474 l -72.4426,-72.44251 h 24.1475 l -72.4425,72.44251 z"
             style="fill:none;stroke:#000000;stroke-width:8.45162;stroke-linecap:square;stroke-linejoin:miter;stroke-miterlimit:10;stroke-dasharray:none;stroke-opacity:1"
             id="path48463" />
          <path
             d="M 141.11287,212.92621 V 188.77875 L 92.817863,140.4837 H 68.670364 L 44.522865,164.63123 H 20.375362 V 140.4837 h 24.147503 l 72.442495,72.44251 H 92.817863 L 165.26038,140.4837 h 24.14749 v 24.14753 H 165.26038 L 141.11287,140.4837 h -24.14751 l -48.294996,48.29505 v 24.14746 L 44.522865,188.77875 H 20.375362 l 24.147503,24.14746 H 20.375362 v 24.14752 h 24.147503 l -24.147503,24.14752 h 24.147503 l 24.147499,-24.14752 v 24.14752 l 48.294996,48.29498 h 24.14751 l 24.14751,-24.14752 h 24.14749 v 24.14752 h -24.14749 l -72.442517,-72.4425 h 24.147497 l -72.442495,72.4425 H 20.375362 v -24.14752 h 24.147503 l 24.147499,24.14752 h 24.147499 l 48.295007,-48.29498 v -24.14752 l 24.14751,24.14752 h 24.14749 l -24.14749,-24.14752 h 24.14749 v -24.14752 h -24.14749 l 24.14749,-24.14746 h -24.14749 z"
             style="fill:none;stroke:#000000;stroke-width:8.45162;stroke-linecap:square;stroke-linejoin:miter;stroke-miterlimit:10;stroke-dasharray:none;stroke-opacity:1"
             id="path48465" />
          <path
             d="m 681.31787,309.51623 h -72.4425 v -24.14752 l 24.14752,-24.14746 24.14746,24.14746 24.14752,-24.14746 24.14752,24.14746 24.14746,-24.14746 24.14753,24.14746 24.14752,-24.14746 v -24.14752 h -24.14752 l -24.14753,-24.14752 -24.14746,24.14752 v -24.14752 l 24.14746,24.14752 24.14753,-24.14752 h 24.14752 v -24.14746 l -24.14752,-24.14752 -24.14753,24.14752 -24.14746,-24.14752 -24.14752,24.14752 -24.14752,-24.14752 -24.14746,24.14752 -24.14752,-24.14752 V 140.4837 H 777.9079 v 24.14753 l -24.14752,24.14752 -24.14753,-24.14752 -24.14746,24.14752 -24.14752,-24.14752 -24.14752,24.14752 -24.14746,-24.14752 -24.14752,24.14752 v 24.14746 h 24.14752 l 24.14746,24.14752 24.14752,-24.14752 v 24.14752 l -24.14752,-24.14752 -24.14746,24.14752 h -24.14752 v 24.14752 l 24.14752,24.14746 24.14746,-24.14746 24.14752,24.14746 24.14752,-24.14746 24.14746,24.14746 24.14753,-24.14746 24.14752,24.14746 v 24.14752 h -72.44251 z"
             style="fill:none;stroke:#000000;stroke-width:8.45162;stroke-linecap:square;stroke-linejoin:miter;stroke-miterlimit:10;stroke-dasharray:none;stroke-opacity:1"
             id="path48467" />
          <path
             d="m 877.48456,285.36871 24.14752,-24.14746 h -24.14752 l 24.14752,24.14746 -24.14752,24.14752 H 853.3371 v -48.29498 l -48.29505,-48.29504 v -24.14746 l 24.14753,-24.14752 v -24.14747 h -24.14753 v 24.14747 l 72.44251,72.4425 v -24.14752 l -72.44251,72.4425 v 24.14752 h 24.14753 V 285.36871 L 805.04205,261.22125 V 237.07373 L 853.3371,188.77875 V 140.4837 h 24.14746 l 24.14752,24.14753 -24.14752,24.14752 h 24.14752 l -24.14752,-24.14752 24.14752,-24.14753 h 24.14752 v 48.29505 l 48.29499,48.29498 v 24.14752 l -24.14753,24.14746 v 24.14752 h 24.14753 v -24.14752 l -72.44251,-72.4425 v 24.14752 l 72.44251,-72.4425 V 140.4837 h -24.14753 v 24.14753 l 24.14753,24.14752 v 24.14746 l -48.29499,48.29504 v 48.29498 h -24.14752 z"
             style="fill:none;stroke:#000000;stroke-width:8.45162;stroke-linecap:square;stroke-linejoin:miter;stroke-miterlimit:10;stroke-dasharray:none;stroke-opacity:1"
             id="path48469" />
          <path
             d="m 1020.479,159.75409 -21.60565,21.60565 v 10.80286 l 10.80285,10.80279 v 10.80286 h -10.80285 v -10.80286 l 32.40855,-32.40844 v 10.80279 l -32.40855,-32.40845 v -10.80285 h 10.80285 v 10.80285 l -10.80285,10.8028 v 10.80286 l 21.60565,21.60565 v 10.80279 l 10.8029,10.80286 h -10.8029 l 21.6057,-21.60565 h -10.8028 l 21.6056,21.60565 h -10.8028 l 10.8028,-10.80286 V 192.1626 l 21.6057,-21.60565 v -10.80286 l -10.8029,-10.8028 v -10.80285 h 10.8029 v 10.80285 l -32.4085,32.40845 v -10.80279 l 32.4085,32.40844 v 10.80286 h -10.8029 v -10.80286 l 10.8029,-10.80279 v -10.80286 l -21.6057,-21.60565 v -10.8028 l -10.8028,-10.80285 h 10.8028 l -21.6056,21.60565 h 10.8028 l -21.6057,-21.60565 h 10.8029 l -10.8029,10.80285 z"
             style="fill:none;stroke:#000000;stroke-width:3.78099;stroke-linecap:square;stroke-linejoin:miter;stroke-miterlimit:10;stroke-dasharray:none;stroke-opacity:1"
             id="path48471" />
          <path
             d="m 1129.3652,213.76825 -21.6056,-21.60565 -10.8028,10.80279 v 10.80286 h 21.6057 l 21.6056,-21.60565 h 10.8028 l 10.8029,10.80279 10.8027,-10.80279 v -10.80286 l -10.8027,-10.80279 -10.8029,10.80279 -10.8028,-10.80279 v 10.80279 l 10.8028,-10.80279 10.8029,10.80279 10.8027,-10.80279 v -10.80286 l -10.8027,-10.8028 -10.8029,10.8028 h -10.8028 l -21.6056,-21.60565 h -21.6057 v 10.80285 l 10.8028,10.8028 21.6056,-21.60565 h 10.8029 l 21.6057,21.60565 10.8027,-10.8028 v -10.80285 h -21.6056 l -21.6057,21.60565 h -10.8027 l -10.8029,-10.8028 -10.8028,10.8028 v 10.80286 l 10.8028,10.80279 10.8029,-10.80279 10.8027,10.80279 v -10.80279 l -10.8027,10.80279 -10.8029,-10.80279 -10.8028,10.80279 v 10.80286 l 10.8028,10.80279 10.8029,-10.80279 h 10.8027 l 21.6057,21.60565 h 21.6056 v -10.80286 l -10.8027,-10.80279 -21.6057,21.60565 z"
             style="fill:none;stroke:#000000;stroke-width:3.78099;stroke-linecap:square;stroke-linejoin:miter;stroke-miterlimit:10;stroke-dasharray:none;stroke-opacity:1"
             id="path48473" />
          <path
             d="m 18.040047,115.68487 v -10.80285 h 10.802829 l 10.80283,10.80285 h 10.80283 L 82.857025,83.276367 H 93.659851 V 94.079224 H 82.857025 L 72.054199,83.276367 V 72.473572 L 82.857025,61.670715 H 93.659851 V 72.473572 H 82.857025 L 50.448536,40.065063 H 39.645706 L 28.842876,50.86792 H 18.040047 V 40.065063 h 10.802829 l 32.40849,32.408509 H 50.448536 L 82.857025,40.065063 H 93.659851 V 50.86792 H 82.857025 L 72.054199,40.065063 H 61.251366 L 28.842876,72.473572 H 18.040047 V 61.670715 h 10.802829 l 10.80283,10.802857 V 83.276367 L 28.842876,94.079224 H 18.040047 V 83.276367 h 10.802829 l 32.40849,32.408503 h 10.802833 l 10.802826,-10.80285 h 10.802826 v 10.80285 H 82.857025 L 50.448536,83.276367 h 10.80283 l -32.40849,32.408503 z"
             style="fill:none;stroke:#000000;stroke-width:3.78099;stroke-linecap:square;stroke-linejoin:miter;stroke-miterlimit:10;stroke-dasharray:none;stroke-opacity:1"
             id="path48475" />
          <path
             d="m 148.53188,115.68487 h -32.4085 v -10.80285 l 10.80283,-10.802796 10.80282,10.802796 10.80285,-10.802796 10.80282,10.802796 10.80283,-10.802796 10.80284,10.802796 10.80282,-10.802796 V 83.276367 H 180.94037 L 170.13753,72.473572 159.3347,83.276367 V 72.473572 l 10.80283,10.802795 10.80284,-10.802795 h 10.80282 V 61.670715 L 180.94037,50.86792 170.13753,61.670715 159.3347,50.86792 148.53188,61.670715 137.72903,50.86792 126.92621,61.670715 116.12338,50.86792 V 40.065063 h 75.61981 V 50.86792 L 180.94037,61.670715 170.13753,50.86792 159.3347,61.670715 148.53188,50.86792 137.72903,61.670715 126.92621,50.86792 116.12338,61.670715 v 10.802857 h 10.80283 l 10.80282,10.802795 10.80285,-10.802795 V 83.276367 L 137.72903,72.473572 126.92621,83.276367 h -10.80283 v 10.802857 l 10.80283,10.802796 10.80282,-10.802796 10.80285,10.802796 10.80282,-10.802796 10.80283,10.802796 10.80284,-10.802796 10.80282,10.802796 v 10.80285 H 159.3347 Z"
             style="fill:none;stroke:#000000;stroke-width:3.78099;stroke-linecap:square;stroke-linejoin:miter;stroke-miterlimit:10;stroke-dasharray:none;stroke-opacity:1"
             id="path48477" />
          <path
             d="m 638.94855,115.68487 h -32.40851 v -10.80285 l 10.80286,-10.802796 10.80279,10.802796 h 10.80286 l 10.80279,-10.802796 h 10.80286 l 10.80279,10.802796 10.80286,-10.802796 V 83.276367 L 671.35699,72.473572 660.5542,83.276367 H 649.75134 V 72.473572 h 10.80286 l 10.80279,10.802795 10.80286,-10.802795 V 61.670715 L 671.35699,50.86792 660.5542,61.670715 H 649.75134 L 638.94855,50.86792 H 628.14569 L 617.3429,61.670715 606.54004,50.86792 V 40.065063 h 75.61981 V 50.86792 L 671.35699,61.670715 660.5542,50.86792 H 649.75134 L 638.94855,61.670715 H 628.14569 L 617.3429,50.86792 606.54004,61.670715 v 10.802857 l 10.80286,10.802795 10.80279,-10.802795 h 10.80286 V 83.276367 H 628.14569 L 617.3429,72.473572 606.54004,83.276367 v 10.802857 l 10.80286,10.802796 10.80279,-10.802796 h 10.80286 l 10.80279,10.802796 h 10.80286 l 10.80279,-10.802796 10.80286,10.802796 v 10.80285 h -32.40851 z"
             style="fill:none;stroke:#000000;stroke-width:3.78099;stroke-linecap:square;stroke-linejoin:miter;stroke-miterlimit:10;stroke-dasharray:none;stroke-opacity:1"
             id="path48479" />
          <path
             d="M 780.24322,115.68487 H 769.44037 V 104.88202 L 780.24322,94.079224 V 83.276367 L 737.03192,40.065063 H 726.22906 V 50.86792 l 10.80286,10.802795 h 10.8028 L 758.63757,50.86792 V 40.065063 h -10.80285 l -43.21131,43.211304 v 10.802857 l 10.80286,10.802796 v 10.80285 H 704.62341 V 104.88202 L 737.03192,72.473572 V 83.276367 L 704.62341,50.86792 V 40.065063 h 10.80286 V 50.86792 l -10.80286,10.802795 v 10.802857 l 43.21131,43.211298 h 10.80285 V 104.88202 L 747.83472,94.079224 h -10.8028 l -10.80286,10.802796 v 10.80285 h 10.80286 l 43.2113,-43.211298 V 61.670715 L 769.44037,50.86792 V 40.065063 h 10.80285 V 50.86792 l -32.4085,32.408447 V 72.473572 l 32.4085,32.408448 z"
             style="fill:none;stroke:#000000;stroke-width:3.78099;stroke-linecap:square;stroke-linejoin:miter;stroke-miterlimit:10;stroke-dasharray:none;stroke-opacity:1"
             id="path48481" />
          <path
             d="m 824.31238,61.670715 -21.60565,21.605652 v 10.802857 l 10.80285,10.802796 v 10.80285 h -10.80285 v -10.80285 l 32.4085,-32.408448 V 83.276367 L 802.70673,50.86792 V 40.065063 h 10.80285 V 50.86792 l -10.80285,10.802795 v 10.802857 l 21.60565,21.605652 h 10.80285 v 10.802796 l -10.80285,10.80285 v -10.80285 l 10.80285,10.80285 h 10.8028 l 10.80286,-10.80285 v 10.80285 L 845.91803,104.88202 V 94.079224 h 10.80286 L 878.32654,72.473572 V 61.670715 L 867.52368,50.86792 V 40.065063 h 10.80286 V 50.86792 L 845.91803,83.276367 V 72.473572 l 32.40851,32.408448 v 10.80285 H 867.52368 V 104.88202 L 878.32654,94.079224 V 83.276367 L 856.72089,61.670715 H 845.91803 V 50.86792 L 856.72089,40.065063 V 50.86792 L 845.91803,40.065063 h -10.8028 L 824.31238,50.86792 V 40.065063 l 10.80285,10.802857 v 10.802795 z"
             style="fill:none;stroke:#000000;stroke-width:3.78099;stroke-linecap:square;stroke-linejoin:miter;stroke-miterlimit:10;stroke-dasharray:none;stroke-opacity:1"
             id="path48483" />
          <path
             d="m 976.40991,115.68487 h -10.80285 l -10.8028,-10.80285 V 94.079224 L 976.40991,72.473572 V 61.670715 L 954.80426,40.065063 H 944.0014 L 933.19861,50.86792 944.0014,61.670715 H 933.19861 L 944.0014,50.86792 933.19861,40.065063 H 922.39575 L 900.7901,61.670715 v 10.802857 l 21.60565,21.605652 v 10.802796 l -10.80279,10.80285 H 900.7901 V 104.88202 L 933.19861,72.473572 V 83.276367 L 900.7901,50.86792 V 40.065063 h 10.80286 L 922.39575,50.86792 V 61.670715 L 900.7901,83.276367 v 10.802857 l 21.60565,21.605646 h 10.80286 L 944.0014,104.88202 933.19861,94.079224 h 10.80279 l -10.80279,10.802796 10.80279,10.80285 h 10.80286 L 976.40991,94.079224 V 83.276367 L 954.80426,61.670715 V 50.86792 l 10.8028,-10.802857 h 10.80285 V 50.86792 L 944.0014,83.276367 V 72.473572 l 32.40851,32.408448 z"
             style="fill:none;stroke:#000000;stroke-width:3.78099;stroke-linecap:square;stroke-linejoin:miter;stroke-miterlimit:10;stroke-dasharray:none;stroke-opacity:1"
             id="path48485" />
          <path
             d="m 998.87341,115.68487 v -10.80285 h 10.80289 l 10.8028,10.80285 h 10.8028 l 32.4085,-32.408503 h 10.8028 v 10.802857 h -10.8028 L 1052.8876,83.276367 V 72.473572 l 10.8028,-10.802857 h 10.8028 v 10.802857 h -10.8028 l -32.4085,-32.408509 h -10.8028 L 1009.6763,50.86792 H 998.87341 V 40.065063 h 10.80289 l 32.4084,32.408509 h -10.8028 l 32.4085,-32.408509 h 10.8028 V 50.86792 h -10.8028 l -10.8028,-10.802857 h -10.8029 l -32.4084,32.408509 H 998.87341 V 61.670715 h 10.80289 l 10.8028,10.802857 v 10.802795 l -10.8028,10.802857 H 998.87341 V 83.276367 h 10.80289 l 32.4084,32.408503 h 10.8029 l 10.8028,-10.80285 h 10.8028 v 10.80285 h -10.8028 l -32.4085,-32.408503 h 10.8028 l -32.4084,32.408503 z"
             style="fill:none;stroke:#000000;stroke-width:3.78099;stroke-linecap:square;stroke-linejoin:miter;stroke-miterlimit:10;stroke-dasharray:none;stroke-opacity:1"
             id="path48487" />
          <path
             d="m 1172.5764,115.68487 h -10.8028 l -10.8029,-10.80285 10.8029,-10.802796 -10.8029,-10.802857 V 72.473572 l 10.8029,-10.802857 -10.8029,-10.802795 10.8029,-10.802857 h 10.8028 v 32.408509 l -21.6057,21.605652 10.8029,10.802796 -10.8029,10.80285 h -10.8027 l -10.8029,-10.80285 10.8029,-10.802796 -10.8029,-10.802857 h 10.8029 l -10.8029,10.802857 10.8029,10.802796 -10.8029,10.80285 h -10.8028 l -10.8029,-10.80285 10.8029,-10.802796 -21.6056,-21.605652 V 40.065063 h 10.8027 l 10.8029,10.802857 -10.8029,10.802795 10.8029,10.802857 v 10.802795 l -10.8029,10.802857 10.8029,10.802796 -10.8029,10.80285 h -10.8027 V 83.276367 l 21.6056,-21.605652 -10.8029,-10.802795 10.8029,-10.802857 h 10.8028 l 10.8029,10.802857 -10.8029,10.802795 10.8029,10.802857 h -10.8029 L 1140.168,61.670715 1129.3651,50.86792 1140.168,40.065063 h 10.8027 l 10.8029,10.802857 -10.8029,10.802795 21.6057,21.605652 z"
             style="fill:none;stroke:#000000;stroke-width:3.78099;stroke-linecap:square;stroke-linejoin:miter;stroke-miterlimit:10;stroke-dasharray:none;stroke-opacity:1"
             id="path48489" />
        </g>
      </g>
    </g>
  </g>
</svg>
